{
.appVersion = "3182";
.formatVersion = 3;
DisplayStrings = (
"a/l.ss02/l.ss02  a/l.ss02 t ta/l.ss02/l.ss02  ye/l.ss02/l.ss02 ow Li/l.ss02/l.ss02 ian /l.ss02 and/l.ss02 ord A/l.ss02/l.ss02 egro
 B/l.ss02 ack C/l.ss02 ick Elephant 
/I.ss02/l.ss02/l.ss02 inois /I.ss02 nterstate /I.ss02 -75  
P/I.ss02 N /I.ss02 NT K/I.ss02 LL /I.ss02 B/I.ss02 S CH/I.ss02 EF F/I.ss02 CT/I.ss02 ON G/I.ss02 NJ/I.ss02 NHA L/I.ss02 L/I.ss02 ANA 
AB-/zero.ss02 1-FO/zero.ss02 4
/IJ.ss02/Iacute.ss02/Icircumflex.ss02/Idieresis.ss02/Idotaccent.ss02/Igrave.ss02/Imacron.ss02/Iogonek.ss02 
/l.ss02/lacute.ss02/lcaron.ss02/lcommaaccent.ss02/lslash.ss02 
"
);
axes = (
{
name = Weight;
tag = wght;
}
);
customParameters = (
{
name = fsType;
value = (
);
},
{
name = "Use Line Breaks";
value = 1;
},
{
name = "Use Typo Metrics";
value = 1;
},
{
name = "Axis Mappings";
value = {
wght = {
300 = 300;
400 = 400;
500 = 472;
600 = 558;
700 = 660;
800 = 780;
900 = 900;
};
};
},
{
name = "Enforce Compatibility Check";
value = 0;
},
{
name = "Variable Font Origin";
value = m01;
}
);
date = "2021-04-02 20:56:08 +0000";
familyName = Figtree;
featurePrefixes = (
{
automatic = 1;
code = "languagesystem DFLT dflt;

languagesystem latn dflt;
languagesystem latn AZE;
languagesystem latn CRT;
languagesystem latn KAZ;
languagesystem latn TAT;
languagesystem latn TRK;
languagesystem latn ROM;
languagesystem latn MOL;
languagesystem latn CAT;
languagesystem latn NLD;
";
name = Languagesystems;
}
);
features = (
{
automatic = 1;
code = "feature locl;
feature subs;
feature sinf;
feature sups;
feature numr;
feature dnom;
feature frac;
feature ordn;
feature pnum;
feature tnum;
feature case;
feature ss01;
";
tag = aalt;
},
{
code = "lookup ccmp_Other_1 {
	@CombiningTopAccents = [acutecomb brevecomb caroncomb circumflexcomb commaturnedabovecomb dieresiscomb dotaccentcomb gravecomb hungarumlautcomb macroncomb ringcomb tildecomb];
	@CombiningNonTopAccents = [cedillacomb ogonekcomb];

glyphs = (
{
glyphname = A;
kernLeft = A;
kernRight = A;
lastChange = "2022-10-16 04:36:06 +0000";
layers = (
{
anchors = (
{
name = bottom;
pos = (331,0);
},
{
name = ogonek;
pos = (652,0);
},
{
name = top;
pos = (331,670);
}
);
layerId = m01;
shapes = (
{
closed = 1;
nodes = (
(652,0,l),
(364,700,l),
(298,700,l),
(584,0,l)
);
},
{
closed = 1;
nodes = (
(78,0,l),
(364,700,l),
(298,700,l),
(10,0,l)
);
},
{
closed = 1;
nodes = (
(516,217,l),
(516,275,l),
(146,275,l),
(146,217,l)
);
}
);
width = 662;
},
{
anchors = (
{
name = bottom;
pos = (375,0);
},
{
name = ogonek;
pos = (752,0);
},
{
name = top;
pos = (375,700);
}
);
layerId = "747A0BA5-337F-45E8-9896-B2CAF0968805";
shapes = (
{
closed = 1;
nodes = (
(742,0,l),
(474,700,l),
(290,700,l),
(546,0,l)
);
},
{
closed = 1;
nodes = (
(203,0,l),
(459,700,l),
(275,700,l),
(7,0,l)
);
},
{
closed = 1;
nodes = (
(617,112,l),
(617,275,l),
(133,275,l),
(133,112,l)
);
}
);
width = 749;
}
);
unicode = 65;
},
{
glyphname = AE;
kernLeft = A;
lastChange = "2023-04-03 06:21:21 +0000";
layers = (
{
layerId = m01;
shapes = (
{
closed = 1;
nodes = (
(82,0,l),
(217,217,l),
(502,217,l),
(502,0,l),
(905,0,l),
(905,58,l),
(566,58,l),
(566,332,l),
(881,332,l),
(881,390,l),
(566,390,l),
(566,642,l),
(905,642,l),
(905,700,l),
(448,700,l),
(10,0,l)
);
},
{
closed = 1;
nodes = (
(482,642,l),
(502,642,l),
(502,275,l),
(253,275,l)
);
}
);
width = 995;
},
{
layerId = "747A0BA5-337F-45E8-9896-B2CAF0968805";
shapes = (
{
closed = 1;
nodes = (
(217,0,l),
(273,112,l),
(507,112,l),
(507,0,l),
(983,0,l),
(983,170,l),
(697,170,l),
(697,268,l),
(922,268,l),
(922,433,l),
(697,433,l),
(697,530,l),
(976,530,l),
(976,700,l),
(375,700,l),
(7,0,l)
);
},
{
closed = 1;
nodes = (
(482,530,l),
(507,530,l),
(507,275,l),
(355,275,l)
);
}
);
width = 1033;
}
);
metricLeft = A;
metricRight = E;
unicode = 198;
},
{
glyphname = B;
lastChange = "2023-02-22 13:39:54 +0000";
layers = (
{
background = {
shapes = (
{
closed = 1;
nodes = (
(164,0,l),
(164,700,l),
(100,700,l),
(100,0,l)
);
},
{
closed = 1;
nodes = (
(164,385,l),
(164,326,l),
(312,326,l),
(455,326,o),
(540,395,o),
(540,513,c),
(540,631,o),
(456,701,o),
(315,701,c),
(164,700,l),
(164,642,l),
(315,642,l),
(417,643,o),
(477,595,o),
(477,513,c),
(477,433,o),
(427,385,o),
(342,385,c),
(164,385,l),
(164,326,l)
);
},
{
closed = 1;
nodes = (
(164,59,l),
(164,0,l),
(342,0,l),
(479,0,o),
(560,69,o),
(560,187,c),
(560,311,o),
(458,385,o),
(285,385,c),
(164,384,l),
(164,326,l),
(315,326,l),
(429,327,o),
(497,275,o),
(497,187,c),
(497,107,o),
(439,59,o),
(342,59,c),
(164,59,l),
(164,0,l)
);
}
);
};
layerId = m01;
shapes = (
{
closed = 1;
nodes = (
(342,0,ls),
(479,0,o),
(560,69,o),
(560,187,cs),
(560,264,o),
(520,322,o),
(448,355,c),
(507,386,o),
(540,440,o),
(540,513,cs),
(540,631,o),
(456,700,o),
(315,700,cs),
(100,700,l),
(100,0,l)
);
},
{
closed = 1;
nodes = (
(164,326,l),
(315,326,ls),
(429,326,o),
(497,275,o),
(497,187,cs),
(497,107,o),
(439,59,o),
(342,59,cs),
(164,59,l)
);
},
{
closed = 1;
nodes = (
(164,642,l),
(315,642,ls),
(417,642,o),
(477,595,o),
(477,513,cs),
(477,433,o),
(427,385,o),
(342,385,cs),
(164,385,l)
);
}
);
width = 610;
},
{
layerId = "747A0BA5-337F-45E8-9896-B2CAF0968805";
shapes = (
{
closed = 1;
nodes = (
(347,0,ls),
(489,0,o),
(589,74,o),
(589,208,cs),
(589,287,o),
(554,340,o),
(493,373,c),
(536,408,o),
(561,450,o),
(561,493,cs),
(561,635,o),
(458,700,o),
(312,700,cs),
(60,700,l),
(60,0,l)
);
},
{
closed = 1;
nodes = (
(240,288,l),
(325,288,ls),
(369,288,o),
(397,264,o),
(397,227,cs),
(397,190,o),
(369,163,o),
(325,163,cs),
(240,163,l)
);
},
{
closed = 1;
nodes = (
(240,557,l),
(299,557,ls),
(341,557,o),
(371,535,o),
(371,496,cs),
(371,457,o),
(341,435,o),
(299,435,cs),
(240,435,l)
);
}
);
width = 614;
}
);
metricLeft = I;
metricRight = O;
unicode = 66;
},
{
glyphname = C;
kernLeft = round_left_uppercase;
lastChange = "2022-09-28 06:05:34 +0000";
layers = (
{
anchors = (
{
name = bottom;
pos = (389,0);
},
{
name = top;
pos = (386,670);
}
);
layerId = m01;
shapes = (
{
closed = 1;
nodes = (
(507,-12,o),
(627,63,o),
(679,170,c),
(626,203,l),
(584,110,o),
(486,44,o),
(389,44,cs),
(228,44,o),
(114,170,o),
(114,350,cs),
(114,528,o),
(227,654,o),
(386,654,cs),
(481,654,o),
(579,594,o),
(622,509,c),
(675,542,l),
(624,642,o),
(504,712,o),
(386,712,cs),
(189,712,o),
(50,562,o),
(50,350,cs),
(50,138,o),
(190,-12,o),
(389,-12,cs)
);
}
);
width = 719;
},
{
anchors = (
{
name = bottom;
pos = (383,0);
},
{
name = top;
pos = (383,700);
}
);
background = {
shapes = (
{
closed = 1;
nodes = (
(618,-16,o),
(772,135,o),
(772,349,cs),
(772,563,o),
(617,715,o),
(398,715,cs),
(180,715,o),
(25,563,o),
(25,349,cs),
(25,135,o),
(180,-16,o),
(400,-16,cs)
);
},
{
closed = 1;
nodes = (
(295,159,o),
(220,238,o),
(220,349,cs),
(220,461,o),
(294,540,o),
(398,540,cs),
(503,540,o),
(577,461,o),
(577,349,cs),
(577,238,o),
(504,159,o),
(400,159,cs)
);
}
);
};
layerId = "747A0BA5-337F-45E8-9896-B2CAF0968805";
shapes = (
{
closed = 1;
nodes = (
(545,-12,o),
(665,78,o),
(714,211,c),
(538,267,l),
(507,201,o),
(464,158,o),
(386,158,cs),
(286,158,o),
(215,237,o),
(215,350,cs),
(215,463,o),
(285,542,o),
(383,542,cs),
(457,542,o),
(508,500,o),
(537,434,c),
(713,490,l),
(663,622,o),
(544,712,o),
(383,712,cs),
(173,712,o),
(25,562,o),
(25,350,cs),
(25,138,o),
(173,-12,o),
(383,-12,cs)
);
}
);
width = 729;
}
);
metricLeft = O;
metricRight = "=O-10";
unicode = 67;
},
{
glyphname = D;
kernRight = round_right_uppercase;
lastChange = "2023-02-22 13:40:22 +0000";
layers = (
{
anchors = (
{
name = top;
pos = (308,670);
}
);
layerId = m01;
shapes = (
{
closed = 1;
nodes = (
(309,0,ls),
(498,0,o),
(633,145,o),
(633,350,cs),
(633,556,o),
(498,700,o),
(309,700,cs),
(100,700,l),
(100,0,l)
);
},
{
closed = 1;
nodes = (
(164,642,l),
(309,642,ls),
(453,642,o),
(569,511,o),
(569,350,cs),
(569,189,o),
(453,58,o),
(309,58,cs),
(164,58,l)
);
}
);
width = 683;
},
{
anchors = (
{
name = top;
pos = (303,700);
}
);
layerId = "747A0BA5-337F-45E8-9896-B2CAF0968805";
shapes = (
{
closed = 1;
nodes = (
(294,0,ls),
(524,0,o),
(686,145,o),
(686,350,cs),
(686,555,o),
(524,700,o),
(294,700,cs),
(60,700,l),
(60,0,l)
);
},
{
closed = 1;
nodes = (
(245,525,l),
(294,525,ls),
(412,525,o),
(496,453,o),
(496,350,cs),
(496,247,o),
(412,175,o),
(294,175,cs),
(245,175,l)
);
}
);
width = 711;
}
);
metricLeft = I;
metricRight = O;
unicode = 68;
},
{
glyphname = Eth;
kernRight = round_right_uppercase;
lastChange = "2022-09-05 14:26:45 +0000";
layers = (
{
layerId = m01;
shapes = (
{
closed = 1;
nodes = (
(395,320,l),
(395,378,l),
(80,378,l),
(80,320,l)
);
},
{
pos = (70,0);
ref = D;
}
);
width = 753;
},
{
layerId = "747A0BA5-337F-45E8-9896-B2CAF0968805";
shapes = (
{
closed = 1;
nodes = (
(378,287,l),
(378,414,l),
(40,414,l),
(40,287,l)
);
},
{
pos = (30,0);
ref = D;
}
);
width = 741;
}
);
metricLeft = "=D-20";
metricRight = D;
unicode = 208;
},
{
glyphname = E;
lastChange = "2023-02-22 13:40:34 +0000";
layers = (
{
anchors = (
{
name = bottom;
pos = (277,0);
},
{
name = ogonek;
pos = (503,0);
},
{
name = top;
pos = (308,670);
},
{
name = topleft;
pos = (20,700);
}
);
layerId = m01;
shapes = (
{
closed = 1;
nodes = (
(503,0,l),
(503,58,l),
(164,58,l),
(164,332,l),
(479,332,l),
(479,390,l),
(164,390,l),
(164,642,l),
(503,642,l),
(503,700,l),
(100,700,l),
(100,0,l)
);
}
);
width = 593;
},
{
anchors = (
{
name = bottom;
pos = (288,0);
},
{
name = ogonek;
pos = (546,0);
},
{
name = top;
pos = (288,700);
},
{
name = topleft;
pos = (10,700);
}
);
layerId = "747A0BA5-337F-45E8-9896-B2CAF0968805";
shapes = (
{
closed = 1;
nodes = (
(536,0,l),
(536,170,l),
(245,170,l),
(245,268,l),
(475,268,l),
(475,433,l),
(245,433,l),
(245,530,l),
(529,530,l),
(529,700,l),
(60,700,l),
(60,0,l)
);
}
);
width = 586;
}
);
metricLeft = I;
metricRight = "=I-10";
unicode = 69;
},
{
glyphname = F;
lastChange = "2023-02-22 13:40:42 +0000";
layers = (
{
layerId = m01;
shapes = (
{
closed = 1;
nodes = (
(164,0,l),
(164,317,l),
(469,317,l),
(469,375,l),
(164,375,l),
(164,642,l),
(503,642,l),
(503,700,l),
(100,700,l),
(100,0,l)
);
}
);
width = 539;
},
{
layerId = "747A0BA5-337F-45E8-9896-B2CAF0968805";
shapes = (
{
closed = 1;
nodes = (
(245,0,l),
(245,258,l),
(475,258,l),
(475,428,l),
(245,428,l),
(245,530,l),
(539,530,l),
(539,700,l),
(60,700,l),
(60,0,l)
);
}
);
width = 564;
}
);
metricLeft = I;
unicode = 70;
},
{
glyphname = G;
kernLeft = round_left_uppercase;
lastChange = "2022-10-15 05:46:42 +0000";
layers = (
{
anchors = (
{
name = bottom;
pos = (413,0);
},
{
name = top;
pos = (384,700);
}
);
layerId = m01;
shapes = (
{
closed = 1;
nodes = (
(597,-12,o),
(727,114,o),
(727,291,c),
(665,291,l),
(665,147,o),
(559,46,o),
(413,46,cs),
(238,46,o),
(114,172,o),
(114,349,cs),
(114,528,o),
(238,654,o),
(413,654,cs),
(501,654,o),
(595,605,o),
(639,535,c),
(688,572,l),
(633,654,o),
(519,712,o),
(413,712,cs),
(200,712,o),
(50,562,o),
(50,349,cs),
(50,138,o),
(200,-12,o),
(413,-12,cs)
);
},
{
closed = 1;
nodes = (
(699,291,l),
(727,291,l),
(727,350,l),
(489,350,l),
(489,291,l)
);
}
);
width = 767;
},
{
anchors = (
{
name = bottom;
pos = (393,0);
},
{
name = top;
pos = (393,700);
}
);
background = {
shapes = (
{
closed = 1;
nodes = (
(618,-12,o),
(772,138,o),
(772,349,cs),
(772,561,o),
(617,711,o),
(398,711,cs),
(180,711,o),
(25,561,o),
(25,349,cs),
(25,138,o),
(180,-12,o),
(400,-12,cs)
);
},
{
closed = 1;
nodes = (
(292,158,o),
(215,237,o),
(215,349,cs),
(215,461,o),
(291,541,o),
(398,541,cs),
(506,541,o),
(582,461,o),
(582,349,cs),
(582,237,o),
(507,158,o),
(400,158,cs)
);
}
);
};
layerId = "747A0BA5-337F-45E8-9896-B2CAF0968805";
shapes = (
{
closed = 1;
nodes = (
(580,-12,o),
(712,93,o),
(712,306,c),
(536,273,l),
(536,202,o),
(478,156,o),
(398,156,cs),
(285,156,o),
(215,237,o),
(215,350,cs),
(215,463,o),
(289,542,o),
(393,542,cs),
(444,542,o),
(499,511,o),
(527,467,c),
(681,558,l),
(625,647,o),
(535,712,o),
(393,712,cs),
(177,712,o),
(25,562,o),
(25,350,cs),
(25,138,o),
(177,-12,o),
(393,-12,cs)
);
},
{
closed = 1;
nodes = (
(607,252,l),
(712,289,l),
(712,392,l),
(380,392,l),
(380,252,l)
);
}
);
width = 727;
}
);
metricLeft = O;
metricRight = "=O-10";
unicode = 71;
},
{
glyphname = H;
lastChange = "2023-02-22 13:40:54 +0000";
layers = (
{
layerId = m01;
shapes = (
{
closed = 1;
nodes = (
(652,0,l),
(652,700,l),
(588,700,l),
(588,0,l)
);
},
{
closed = 1;
nodes = (
(164,0,l),
(164,700,l),
(100,700,l),
(100,0,l)
);
},
{
closed = 1;
nodes = (
(588,332,l),
(588,390,l),
(164,390,l),
(164,332,l)
);
}
);
width = 752;
},
{
layerId = "747A0BA5-337F-45E8-9896-B2CAF0968805";
shapes = (
{
closed = 1;
nodes = (
(688,0,l),
(688,700,l),
(503,700,l),
(503,0,l)
);
},
{
closed = 1;
nodes = (
(245,0,l),
(245,701,l),
(60,701,l),
(60,0,l)
);
},
{
closed = 1;
nodes = (
(611,271,l),
(611,441,l),
(187,441,l),
(187,271,l)
);
}
);
width = 748;
}
);
metricLeft = I;
metricRight = I;
unicode = 72;
},
{
glyphname = Hbar;
lastChange = "2022-09-05 14:26:45 +0000";
layers = (
{
layerId = m01;
shapes = (
{
closed = 1;
nodes = (
(747,500,l),
(747,558,l),
(5,558,l),
(5,500,l)
);
},
{
ref = H;
}
);
width = 752;
},
{
layerId = "747A0BA5-337F-45E8-9896-B2CAF0968805";
shapes = (
{
closed = 1;
nodes = (
(743,504,l),
(743,631,l),
(5,631,l),
(5,504,l)
);
},
{
ref = H;
}
);
width = 748;
}
);
unicode = 294;
},
{
glyphname = I;
lastChange = "2022-09-05 14:26:45 +0000";
layers = (
{
anchors = (
{
name = bottom;
pos = (132,0);
},
{
name = ogonek;
pos = (164,0);
},
{
name = top;
pos = (132,670);
},
{
name = topleft;
pos = (20,700);
}
);
layerId = m01;
shapes = (
{
closed = 1;
nodes = (
(164,0,l),
(164,700,l),
(100,700,l),
(100,0,l)
);
}
);
width = 264;
},
{
anchors = (
{
name = bottom;
pos = (155,0);
},
{
name = ogonek;
pos = (255,0);
},
{
name = top;
pos = (155,700);
},
{
name = topleft;
pos = (10,700);
}
);
layerId = "747A0BA5-337F-45E8-9896-B2CAF0968805";
shapes = (
{
closed = 1;
nodes = (
(245,0,l),
(245,700,l),
(60,700,l),
(60,0,l)
);
}
);
width = 305;
}
);
unicode = 73;
},
{
glyphname = Idieresis;
lastChange = "2022-09-05 14:26:45 +0000";
layers = (
{
anchors = (
{
name = _top;
pos = (132,670);
},
{
name = top;
pos = (132,880);
}
);
layerId = m01;
shapes = (
{
closed = 1;
nodes = (
(215,800,o),
(233,818,o),
(233,840,cs),
(233,862,o),
(215,880,o),
(193,880,cs),
(171,880,o),
(153,862,o),
(153,840,cs),
(153,818,o),
(171,800,o),
(193,800,cs)
);
},
{
ref = I;
},
{
closed = 1;
nodes = (
(94,800,o),
(112,818,o),
(112,840,cs),
(112,862,o),
(94,880,o),
(72,880,cs),
(50,880,o),
(32,862,o),
(32,840,cs),
(32,818,o),
(50,800,o),
(72,800,cs)
);
}
);
width = 264;
},
{
anchors = (
{
name = _top;
pos = (165,700);
},
{
name = top;
pos = (165,948);
}
);
layerId = "747A0BA5-337F-45E8-9896-B2CAF0968805";
shapes = (
{
closed = 1;
nodes = (
(312,769,o),
(353,810,o),
(353,857,cs),
(353,904,o),
(312,945,o),
(265,945,cs),
(218,945,o),
(177,904,o),
(177,857,cs),
(177,810,o),
(218,769,o),
(265,769,cs)
);
},
{
ref = I;
},
{
closed = 1;
nodes = (
(113,769,o),
(153,809,o),
(153,857,cs),
(153,905,o),
(113,945,o),
(65,945,cs),
(17,945,o),
(-23,905,o),
(-23,857,cs),
(-23,809,o),
(17,769,o),
(65,769,cs)
);
}
);
width = 330;
}
);
unicode = 207;
},
{
glyphname = J;
kernLeft = round_left_uppercase;
lastChange = "2022-09-30 05:24:38 +0000";
layers = (
{
anchors = (
{
name = top;
pos = (378,670);
}
);
layerId = m01;
shapes = (
{
closed = 1;
nodes = (
(291,-11,o),
(410,61,o),
(410,212,cs),
(410,700,l),
(346,700,l),
(346,242,ls),
(346,97,o),
(260,47,o),
(184,47,cs),
(123,47,o),
(80,83,o),
(51,130,c),
(6,95,l),
(42,33,o),
(101,-11,o),
(184,-11,cs)
);
}
);
width = 500;
},
{
anchors = (
{
name = top;
pos = (440,670);
}
);
background = {
shapes = (
{
closed = 1;
nodes = (
(185,271,l),
(185,700,l),
(-5,700,l),
(-5,271,l)
);
},
{
closed = 1;
nodes = (
(595,271,l),
(595,700,l),
(405,700,l),
(405,271,l)
);
},
{
closed = 1;
nodes = (
(405,204,o),
(364,165,o),
(295,165,cs),
(226,165,o),
(185,204,o),
(185,271,c),
(-5,271,l),
(-5,94,o),
(106,-12,o),
(293,-12,cs),
(483,-12,o),
(595,94,o),
(595,271,c),
(405,271,l)
);
}
);
};
layerId = "747A0BA5-337F-45E8-9896-B2CAF0968805";
shapes = (
{
closed = 1;
nodes = (
(434,-16,o),
(537,77,o),
(537,209,cs),
(537,700,l),
(352,700,l),
(352,255,ls),
(352,186,o),
(316,154,o),
(265,154,cs),
(218,154,o),
(187,186,o),
(173,251,c),
(10,201,l),
(10,121,o),
(89,-16,o),
(263,-16,cs)
);
}
);
width = 587;
}
);
metricRight = "=I-10";
unicode = 74;
},
{
glyphname = K;
lastChange = "2022-09-05 14:26:45 +0000";
layers = (
{
anchors = (
{
name = bottom;
pos = (294,0);
},
{
name = top;
pos = (294,700);
}
);
layerId = m01;
shapes = (
{
closed = 1;
nodes = (
(569,700,l),
(491,700,l),
(108,305,l),
(149,264,l)
);
},
{
closed = 1;
nodes = (
(160,0,l),
(160,700,l),
(100,700,l),
(100,0,l)
);
},
{
closed = 1;
nodes = (
(583,0,l),
(254,399,l),
(215,356,l),
(506,0,l)
);
}
);
width = 588;
},
{
anchors = (
{
name = bottom;
pos = (359,0);
},
{
name = top;
pos = (359,700);
}
);
layerId = "747A0BA5-337F-45E8-9896-B2CAF0968805";
shapes = (
{
closed = 1;
nodes = (
(699,700,l),
(456,700,l),
(164,378,l),
(164,119,l)
);
},
{
closed = 1;
nodes = (
(245,0,l),
(245,700,l),
(60,700,l),
(60,0,l)
);
},
{
closed = 1;
nodes = (
(708,0,l),
(346,464,l),
(207,356,l),
(478,0,l)
);
}
);
width = 718;
}
);
metricLeft = "=I";
unicode = 75;
},
{
glyphname = L;
lastChange = "2023-02-23 10:41:00 +0000";
layers = (
{
anchors = (
{
name = bottom;
pos = (284,0);
},
{
name = center;
pos = (257,350);
},
{
name = top;
pos = (132,670);
},
{
name = top_caron;
pos = (204,759);
},
{
name = topright;
pos = (493,700);
}
);
layerId = m01;
shapes = (
{
closed = 1;
nodes = (
(503,0,l),
(503,58,l),
(164,58,l),
(164,700,l),
(100,700,l),
(100,0,l)
);
}
);
width = 513;
},
{
anchors = (
{
name = bottom;
pos = (287,0);
},
{
name = center;
pos = (277,350);
},
{
name = top;
pos = (153,700);
},
{
name = top_caron;
pos = (257,759);
},
{
name = topright;
pos = (533,700);
}
);
layerId = "747A0BA5-337F-45E8-9896-B2CAF0968805";
shapes = (
{
closed = 1;
nodes = (
(533,0,l),
(533,170,l),
(245,170,l),
(245,700,l),
(60,700,l),
(60,0,l)
);
}
);
width = 553;
}
);
metricLeft = I;
unicode = 76;
},
{
glyphname = Lslash;
lastChange = "2022-09-05 14:26:45 +0000";
layers = (
{
guides = (
{
angle = 90;
pos = (132,700);
}
);
layerId = m01;
shapes = (
{
closed = 1;
nodes = (
(282,390,l),
(282,448,l),
(4,324,l),
(4,266,l)
);
},
{
ref = L;
}
);
width = 513;
},
{
layerId = "747A0BA5-337F-45E8-9896-B2CAF0968805";
shapes = (
{
closed = 1;
nodes = (
(334,402,l),
(334,550,l),
(0,369,l),
(0,221,l)
);
},
{
ref = L;
}
);
width = 553;
}
);
unicode = 321;
},
{
glyphname = M;
lastChange = "2023-02-22 13:41:31 +0000";
layers = (
{
layerId = m01;
shapes = (
{
closed = 1;
nodes = (
(164,0,l),
(164,592,l),
(420,211,l),
(677,594,l),
(677,0,l),
(741,0,l),
(741,700,l),
(677,700,l),
(421,320,l),
(164,700,l),
(100,700,l),
(100,0,l)
);
}
);
width = 841;
},
{
background = {
shapes = (
{
closed = 1;
nodes = (
(245,700,l),
(197,663,l),
(501,211,l),
(532,275,l)
);
}
);
};
layerId = "747A0BA5-337F-45E8-9896-B2CAF0968805";
shapes = (
{
closed = 1;
nodes = (
(245,0,l),
(245,414,l),
(435,140,l),
(623,414,l),
(623,0,l),
(808,0,l),
(808,700,l),
(603,700,l),
(434,450,l),
(265,700,l),
(60,700,l),
(60,0,l)
);
}
);
width = 868;
}
);
metricLeft = I;
metricRight = I;
unicode = 77;
},
{
glyphname = N;
lastChange = "2023-02-22 13:41:37 +0000";
layers = (
{
anchors = (
{
name = bottom;
pos = (387,0);
},
{
name = top;
pos = (381,670);
}
);
layerId = m01;
shapes = (
{
closed = 1;
nodes = (
(164,0,l),
(164,598,l),
(610,0,l),
(674,0,l),
(674,700,l),
(610,700,l),
(610,103,l),
(164,700,l),
(100,700,l),
(100,0,l)
);
}
);
width = 774;
},
{
anchors = (
{
name = bottom;
pos = (389,0);
},
{
name = top;
pos = (387,680);
}
);
layerId = "747A0BA5-337F-45E8-9896-B2CAF0968805";
shapes = (
{
closed = 1;
nodes = (
(245,0,l),
(245,399,l),
(528,0,l),
(713,0,l),
(713,700,l),
(528,700,l),
(528,315,l),
(255,700,l),
(60,700,l),
(60,0,l)
);
}
);
width = 773;
}
);
metricLeft = I;
metricRight = I;
unicode = 78;
},
{
glyphname = Eng;
lastChange = "2023-03-25 18:53:51 +0000";
layers = (
{
anchors = (
{
name = top;
pos = (644,503);
}
);
layerId = m01;
shapes = (
{
closed = 1;
nodes = (
(628,-212,o),
(674,-162,o),
(674,-60,cs),
(674,503,l),
(614,503,l),
(614,-60,ls),
(614,-125,o),
(589,-157,o),
(538,-157,cs),
(524,-157,o),
(501,-150,o),
(466,-137,c),
(444,-188,l),
(483,-204,o),
(512,-212,o),
(533,-212,cs)
);
},
{
ref = N;
}
);
width = 774;
},
{
anchors = (
{
name = top;
pos = (623,500);
}
);
layerId = "747A0BA5-337F-45E8-9896-B2CAF0968805";
shapes = (
{
closed = 1;
nodes = (
(637,-215,o),
(713,-143,o),
(713,-21,cs),
(713,0,l),
(528,0,l),
(528,-7,ls),
(528,-32,o),
(517,-47,o),
(499,-47,cs),
(486,-47,o),
(471,-41,o),
(459,-31,c),
(385,-180,l),
(415,-202,o),
(461,-215,o),
(509,-215,cs)
);
},
{
ref = N;
}
);
width = 773;
}
);
metricLeft = N;
metricRight = N;
unicode = 330;
},
{
glyphname = O;
kernLeft = round_left_uppercase;
kernRight = round_right_uppercase;
lastChange = "2022-10-15 05:45:34 +0000";
layers = (
{
anchors = (
{
name = bottom;
pos = (389,0);
},
{
name = center;
pos = (386,350);
},
{
name = ogonek;
pos = (695,10);
},
{
name = top;
pos = (386,670);
},
{
name = topleft;
pos = (20,700);
},
{
name = topright;
pos = (752,700);
}
);
layerId = m01;
shapes = (
{
closed = 1;
nodes = (
(584,-12,o),
(722,137,o),
(722,350,cs),
(722,562,o),
(584,712,o),
(386,712,cs),
(188,712,o),
(50,563,o),
(50,350,cs),
(50,137,o),
(191,-12,o),
(389,-12,cs)
);
},
{
closed = 1;
nodes = (
(228,46,o),
(114,172,o),
(114,350,cs),
(114,528,o),
(227,654,o),
(386,654,cs),
(545,654,o),
(658,528,o),
(658,350,cs),
(658,172,o),
(547,46,o),
(389,46,cs)
);
}
);
width = 772;
},
{
anchors = (
{
name = bottom;
pos = (399,0);
},
{
name = center;
pos = (399,350);
},
{
name = ogonek;
pos = (545,10);
},
{
name = top;
pos = (399,700);
},
{
name = topleft;
pos = (15,700);
},
{
name = topright;
pos = (782,700);
}
);
layerId = "747A0BA5-337F-45E8-9896-B2CAF0968805";
shapes = (
{
closed = 1;
nodes = (
(618,-12,o),
(772,138,o),
(772,349,cs),
(772,561,o),
(617,711,o),
(398,711,cs),
(180,711,o),
(25,561,o),
(25,349,cs),
(25,138,o),
(180,-12,o),
(400,-12,cs)
);
},
{
closed = 1;
nodes = (
(292,158,o),
(215,237,o),
(215,349,cs),
(215,461,o),
(291,541,o),
(398,541,cs),
(506,541,o),
(582,461,o),
(582,349,cs),
(582,237,o),
(507,158,o),
(400,158,cs)
);
}
);
width = 797;
}
);
unicode = 79;
},
{
glyphname = Oslash;
kernLeft = round_left_uppercase;
kernRight = round_right_uppercase;
lastChange = "2022-09-30 05:30:34 +0000";
layers = (
{
layerId = m01;
shapes = (
{
closed = 1;
nodes = (
(123,0,l),
(736,700,l),
(657,700,l),
(45,0,l)
);
},
{
pos = (5,0);
ref = O;
}
);
width = 781;
},
{
layerId = "747A0BA5-337F-45E8-9896-B2CAF0968805";
shapes = (
{
closed = 1;
nodes = (
(173,0,l),
(776,700,l),
(624,700,l),
(22,0,l)
);
},
{
pos = (-5,0);
ref = O;
}
);
width = 796;
}
);
metricLeft = "=O-5";
metricRight = "=O-5";
unicode = 216;
},
{
glyphname = OE;
kernLeft = round_left_uppercase;
lastChange = "2022-09-30 05:41:45 +0000";
layers = (
{
anchors = (
{
name = bottom;
pos = (386,0);
},
{
name = center;
pos = (386,350);
},
{
name = ogonek;
pos = (695,10);
},
{
name = top;
pos = (386,670);
},
{
name = topleft;
pos = (20,700);
},
{
name = topright;
pos = (752,700);
}
);
layerId = m01;
shapes = (
{
closed = 1;
nodes = (
(572,-16,o),
(702,115,o),
(702,350,cs),
(702,584,o),
(572,716,o),
(386,716,cs),
(188,716,o),
(50,565,o),
(50,350,cs),
(50,135,o),
(191,-16,o),
(389,-16,cs)
);
},
{
closed = 1;
nodes = (
(228,42,o),
(114,170,o),
(114,350,cs),
(114,530,o),
(227,658,o),
(386,658,cs),
(538,658,o),
(647,550,o),
(647,350,cs),
(647,150,o),
(540,42,o),
(389,42,cs)
);
},
{
alignment = -1;
pos = (547,0);
ref = E;
}
);
width = 1140;
},
{
anchors = (
{
name = bottom;
pos = (399,0);
},
{
name = center;
pos = (399,350);
},
{
name = ogonek;
pos = (721,10);
},
{
name = top;
pos = (399,700);
},
{
name = topleft;
pos = (15,700);
},
{
name = topright;
pos = (782,700);
}
);
layerId = "747A0BA5-337F-45E8-9896-B2CAF0968805";
shapes = (
{
closed = 1;
nodes = (
(590,-12,o),
(724,140,o),
(724,354,cs),
(724,563,o),
(589,711,o),
(398,711,cs),
(180,711,o),
(25,561,o),
(25,349,cs),
(25,138,o),
(180,-12,o),
(400,-12,cs)
);
},
{
closed = 1;
nodes = (
(295,163,o),
(220,240,o),
(220,349,cs),
(220,459,o),
(294,536,o),
(398,536,cs),
(500,536,o),
(571,459,o),
(571,349,cs),
(571,240,o),
(501,163,o),
(400,163,cs)
);
},
{
alignment = -1;
pos = (510,0);
ref = E;
}
);
width = 1096;
}
);
metricLeft = O;
metricRight = E;
unicode = 338;
},
{
glyphname = P;
lastChange = "2023-02-22 13:42:07 +0000";
layers = (
{
layerId = m01;
shapes = (
{
closed = 1;
nodes = (
(164,0,l),
(164,266,l),
(342,266,ls),
(458,266,o),
(540,356,o),
(540,483,cs),
(540,611,o),
(447,700,o),
(315,700,cs),
(100,700,l),
(100,0,l)
);
},
{
closed = 1;
nodes = (
(164,642,l),
(315,642,ls),
(410,642,o),
(477,577,o),
(477,483,cs),
(477,390,o),
(421,325,o),
(342,325,cs),
(164,325,l)
);
}
);
width = 570;
},
{
layerId = "747A0BA5-337F-45E8-9896-B2CAF0968805";
shapes = (
{
closed = 1;
nodes = (
(245,0,l),
(245,210,l),
(350,210,ls),
(508,210,o),
(620,312,o),
(620,456,cs),
(620,600,o),
(508,700,o),
(350,700,cs),
(60,700,l),
(60,0,l)
);
},
{
closed = 1;
nodes = (
(245,531,l),
(345,531,ls),
(395,531,o),
(430,500,o),
(430,456,cs),
(430,411,o),
(395,380,o),
(345,380,cs),
(245,380,l)
);
}
);
width = 625;
}
);
metricLeft = I;
metricRight = "=O-20";
unicode = 80;
},
{
glyphname = Thorn;
lastChange = "2023-02-22 13:42:12 +0000";
layers = (
{
layerId = m01;
shapes = (
{
closed = 1;
nodes = (
(342,145,ls),
(458,145,o),
(540,235,o),
(540,362,cs),
(540,490,o),
(447,579,o),
(315,579,cs),
(164,579,l),
(164,521,l),
(315,521,ls),
(410,521,o),
(477,456,o),
(477,362,cs),
(477,269,o),
(421,204,o),
(342,204,cs),
(164,204,l),
(164,145,l)
);
},
{
closed = 1;
nodes = (
(164,1,l),
(164,701,l),
(100,701,l),
(100,1,l)
);
}
);
width = 570;
},
{
layerId = "747A0BA5-337F-45E8-9896-B2CAF0968805";
shapes = (
{
closed = 1;
nodes = (
(365,111,ls),
(523,111,o),
(635,213,o),
(635,357,cs),
(635,501,o),
(523,601,o),
(365,601,cs),
(234,601,l),
(234,432,l),
(355,432,ls),
(405,432,o),
(440,401,o),
(440,357,cs),
(440,312,o),
(405,281,o),
(355,281,cs),
(234,281,l),
(234,111,l)
);
},
{
closed = 1;
nodes = (
(260,1,l),
(260,701,l),
(70,701,l),
(70,1,l)
);
}
);
width = 645;
}
);
unicode = 222;
},
{
glyphname = Q;
kernLeft = round_left_uppercase;
lastChange = "2022-10-15 05:45:58 +0000";
layers = (
{
layerId = m01;
shapes = (
{
closed = 1;
nodes = (
(584,-12,o),
(722,137,o),
(722,350,cs),
(722,562,o),
(584,712,o),
(386,712,cs),
(188,712,o),
(50,563,o),
(50,350,cs),
(50,137,o),
(191,-12,o),
(389,-12,cs)
);
},
{
closed = 1;
nodes = (
(726,5,l),
(481,253,l),
(437,211,l),
(684,-38,l)
);
},
{
closed = 1;
nodes = (
(228,46,o),
(114,172,o),
(114,350,cs),
(114,528,o),
(227,654,o),
(386,654,cs),
(545,654,o),
(658,528,o),
(658,350,cs),
(658,172,o),
(547,46,o),
(389,46,cs)
);
}
);
width = 776;
},
{
layerId = "747A0BA5-337F-45E8-9896-B2CAF0968805";
shapes = (
{
closed = 1;
nodes = (
(618,-12,o),
(772,138,o),
(772,349,cs),
(772,561,o),
(617,712,o),
(398,712,cs),
(180,712,o),
(25,561,o),
(25,349,cs),
(25,138,o),
(180,-12,o),
(400,-12,cs)
);
},
{
closed = 1;
nodes = (
(756,68,l),
(493,337,l),
(376,226,l),
(641,-44,l)
);
},
{
closed = 1;
nodes = (
(292,158,o),
(215,237,o),
(215,349,cs),
(215,462,o),
(291,542,o),
(398,542,cs),
(506,542,o),
(582,462,o),
(582,349,cs),
(582,237,o),
(507,158,o),
(400,158,cs)
);
}
);
width = 797;
}
);
metricLeft = O;
metricRight = O;
unicode = 81;
},
{
glyphname = R;
lastChange = "2023-02-22 13:42:40 +0000";
layers = (
{
anchors = (
{
name = bottom;
pos = (309,0);
},
{
name = top;
pos = (288,670);
}
);
layerId = m01;
shapes = (
{
closed = 1;
nodes = (
(164,0,l),
(164,286,l),
(302,286,ls),
(436,286,o),
(540,372,o),
(540,493,cs),
(540,615,o),
(447,700,o),
(315,700,cs),
(100,700,l),
(100,0,l)
);
},
{
closed = 1;
nodes = (
(568,0,l),
(381,321,l),
(328,290,l),
(498,0,l)
);
},
{
closed = 1;
nodes = (
(164,642,l),
(315,642,ls),
(410,642,o),
(477,581,o),
(477,493,cs),
(477,406,o),
(411,345,o),
(332,345,cs),
(164,345,l)
);
}
);
width = 618;
},
{
anchors = (
{
name = bottom;
pos = (332,0);
},
{
name = top;
pos = (301,700);
}
);
layerId = "747A0BA5-337F-45E8-9896-B2CAF0968805";
shapes = (
{
closed = 1;
nodes = (
(245,0,l),
(245,222,l),
(350,222,ls),
(508,222,o),
(620,321,o),
(620,462,cs),
(620,602,o),
(508,700,o),
(350,700,cs),
(60,700,l),
(60,0,l)
);
},
{
closed = 1;
nodes = (
(648,0,l),
(419,379,l),
(280,275,l),
(436,0,l)
);
},
{
closed = 1;
nodes = (
(245,531,l),
(340,531,ls),
(390,531,o),
(425,502,o),
(425,462,cs),
(425,421,o),
(390,392,o),
(340,392,cs),
(245,392,l)
);
}
);
width = 663;
}
);
metricLeft = I;
unicode = 82;
},
{
glyphname = S;
kernLeft = round_left_uppercase;
lastChange = "2022-09-05 14:26:45 +0000";
layers = (
{
anchors = (
{
name = bottom;
pos = (319,0);
},
{
name = top;
pos = (320,670);
}
);
background = {
shapes = (
{
closed = 1;
nodes = (
(464,-12,o),
(567,61,o),
(567,188,cs),
(567,282,o),
(489,359,o),
(353,394,cs),
(294,409,ls),
(205,433,o),
(158,476,o),
(158,517,cs),
(158,591,o),
(219,637,o),
(315,637,cs),
(408,637,o),
(464,609,o),
(493,538,c),
(567,569,l),
(533,659,o),
(447,712,o),
(328,712,cs),
(158,712,o),
(76,638,o),
(76,510,cs),
(76,430,o),
(146,364,o),
(270,330,cs),
(336,312,ls),
(435,286,o),
(485,247,o),
(485,181,cs),
(485,105,o),
(405,64,o),
(310,64,cs),
(231,64,o),
(153,108,o),
(122,178,c),
(48,150,l),
(76,69,o),
(167,-12,o),
(324,-12,cs)
);
}
);
};
guides = (
{
angle = 165.6507;
pos = (314,387);
},
{
angle = 165.6507;
pos = (317,322);
}
);
layerId = m01;
shapes = (
{
closed = 1;
nodes = (
(481,-12,o),
(562,78,o),
(562,184,cs),
(562,266,o),
(484,346,o),
(343,380,cs),
(272,397,ls),
(198,415,o),
(149,448,o),
(149,521,cs),
(149,602,o),
(211,654,o),
(310,654,cs),
(403,654,o),
(472,611,o),
(501,538,c),
(560,561,l),
(539,630,o),
(458,712,o),
(320,712,cs),
(167,712,o),
(85,638,o),
(85,513,cs),
(85,411,o),
(165,359,o),
(258,335,cs),
(329,317,ls),
(429,292,o),
(498,249,o),
(498,175,cs),
(498,98,o),
(427,46,o),
(304,46,cs),
(208,46,o),
(138,101,o),
(115,164,c),
(55,141,l),
(83,62,o),
(162,-12,o),
(319,-12,cs)
);
}
);
width = 617;
},
{
anchors = (
{
name = bottom;
pos = (305,0);
},
{
name = top;
pos = (305,700);
}
);
background = {
shapes = (
{
closed = 1;
nodes = (
(470,-12,o),
(595,67,o),
(595,202,cs),
(595,319,o),
(514,399,o),
(391,430,cs),
(334,443,ls),
(268,460,o),
(238,474,o),
(238,497,cs),
(238,522,o),
(260,543,o),
(303,543,cs),
(347,543,o),
(381,526,o),
(391,485,c),
(583,540,l),
(543,641,o),
(461,711,o),
(299,711,cs),
(122,711,o),
(14,631,o),
(14,489,cs),
(14,386,o),
(76,301,o),
(195,272,cs),
(252,259,ls),
(314,243,o),
(343,228,o),
(343,203,cs),
(343,176,o),
(317,162,o),
(281,162,cs),
(256,162,o),
(216,170,o),
(196,217,c),
(-12,156,l),
(21,51,o),
(141,-12,o),
(281,-12,cs)
);
}
);
};
guides = (
{
angle = 165.6507;
pos = (301,264);
},
{
angle = 165.6507;
pos = (301,440);
}
);
layerId = "747A0BA5-337F-45E8-9896-B2CAF0968805";
shapes = (
{
closed = 1;
nodes = (
(469,-12,o),
(568,65,o),
(568,203,cs),
(568,303,o),
(505,388,o),
(398,415,cs),
(292,442,ls),
(255,451,o),
(234,470,o),
(234,494,cs),
(234,532,o),
(260,553,o),
(305,553,cs),
(352,553,o),
(379,519,o),
(386,493,c),
(569,546,l),
(521,664,o),
(436,712,o),
(305,712,cs),
(140,712,o),
(44,631,o),
(44,494,cs),
(44,389,o),
(107,314,o),
(216,286,cs),
(321,259,ls),
(357,250,o),
(373,227,o),
(373,204,cs),
(373,169,o),
(339,146,o),
(302,147,cs),
(255,149,o),
(226,175,o),
(214,209,c),
(30,158,l),
(44,67,o),
(173,-12,o),
(305,-12,cs)
);
}
);
width = 600;
}
);
unicode = 83;
},
{
glyphname = Germandbls;
lastChange = "2023-02-22 13:43:06 +0000";
layers = (
{
background = {
shapes = (
{
closed = 1;
nodes = (
(164,0,l),
(164,530,ls),
(164,609,o),
(205,657,o),
(290,657,cs),
(400,657,o),
(434,595,o),
(466,548,c),
(509,596,l),
(481,638,o),
(427,712,o),
(295,712,cs),
(167,712,o),
(104,649,o),
(104,540,cs),
(104,0,l)
);
},
{
closed = 1;
nodes = (
(286,343,l),
(507,595,l),
(464,633,l),
(243,382,l),
(243,343,l)
);
},
{
closed = 1;
nodes = (
(233,-1,o),
(284,-12,o),
(309,-12,cs),
(440,-12,o),
(509,60,o),
(509,183,cs),
(509,305,o),
(433,377,o),
(304,377,cs),
(243,377,l),
(243,322,l),
(304,322,ls),
(395,322,o),
(449,270,o),
(449,183,cs),
(449,95,o),
(406,43,o),
(317,43,cs),
(271,43,o),
(249,70,o),
(239,78,c),
(195,40,l)
);
}
);
};
layerId = m01;
shapes = (
{
closed = 1;
nodes = (
(440,-12,o),
(509,60,o),
(509,183,cs),
(509,301,o),
(438,372,o),
(318,377,c),
(509,596,l),
(481,638,o),
(427,712,o),
(295,712,cs),
(164,712,o),
(100,649,o),
(100,540,cs),
(100,0,l),
(164,0,l),
(164,530,ls),
(164,607,o),
(205,654,o),
(290,654,cs),
(362,654,o),
(401,627,o),
(428,595,c),
(243,382,l),
(243,319,l),
(304,319,ls),
(392,319,o),
(445,268,o),
(445,183,cs),
(445,97,o),
(403,46,o),
(317,46,cs),
(272,46,o),
(250,72,o),
(240,80,c),
(195,40,l),
(233,-1,o),
(284,-12,o),
(309,-12,cs)
);
}
);
width = 559;
},
{
layerId = "747A0BA5-337F-45E8-9896-B2CAF0968805";
shapes = (
{
closed = 1;
nodes = (
(574,-12,o),
(659,67,o),
(659,202,cs),
(659,294,o),
(618,360,o),
(527,390,c),
(656,578,l),
(586,642,o),
(462,712,o),
(329,712,cs),
(160,712,o),
(60,649,o),
(60,543,cs),
(60,0,l),
(250,0,l),
(250,485,ls),
(250,523,o),
(275,546,o),
(316,546,cs),
(354,546,o),
(388,539,o),
(419,528,c),
(329,409,l),
(329,286,l),
(390,286,ls),
(459,286,o),
(478,271,o),
(478,234,cs),
(478,190,o),
(440,164,o),
(400,164,cs),
(372,164,o),
(351,169,o),
(336,176,c),
(305,6,l),
(342,-8,o),
(391,-12,o),
(416,-12,cs)
);
}
);
width = 684;
}
);
metricLeft = B;
metricRight = B;
unicode = 7838;
},
{
glyphname = T;
kernLeft = undercut_left_uppercase;
kernRight = undercut_right_uppercase;
lastChange = "2023-02-22 13:43:13 +0000";
layers = (
{
anchors = (
{
name = bottom;
pos = (270,0);
},
{
name = center;
pos = (270,350);
},
{
name = top;
pos = (270,670);
}
);
layerId = m01;
shapes = (
{
closed = 1;
nodes = (
(302,0,l),
(302,642,l),
(530,642,l),
(530,700,l),
(10,700,l),
(10,642,l),
(238,642,l),
(238,0,l)
);
}
);
width = 540;
},
{
anchors = (
{
name = bottom;
pos = (307,0);
},
{
name = center;
pos = (307,350);
},
{
name = top;
pos = (306,700);
}
);
layerId = "747A0BA5-337F-45E8-9896-B2CAF0968805";
shapes = (
{
closed = 1;
nodes = (
(400,0,l),
(400,530,l),
(597,530,l),
(597,700,l),
(17,700,l),
(17,530,l),
(215,530,l),
(215,0,l)
);
}
);
width = 614;
}
);
unicode = 84;
},
{
glyphname = U;
kernLeft = round_left_uppercase;
kernRight = round_right_uppercase;
lastChange = "2023-02-22 13:43:19 +0000";
layers = (
{
anchors = (
{
name = bottom;
pos = (355,0);
},
{
name = ogonek;
pos = (536,50);
},
{
name = top;
pos = (355,670);
},
{
name = topright;
pos = (669,700);
}
);
layerId = m01;
shapes = (
{
closed = 1;
nodes = (
(508,-16,o),
(619,92,o),
(619,245,cs),
(619,700,l),
(555,700,l),
(555,245,ls),
(555,126,o),
(472,42,o),
(354,42,cs),
(237,42,o),
(154,126,o),
(154,245,cs),
(154,700,l),
(90,700,l),
(90,245,ls),
(90,92,o),
(199,-16,o),
(352,-16,cs)
);
}
);
width = 709;
},
{
anchors = (
{
name = bottom;
pos = (348,0);
},
{
name = ogonek;
pos = (555,50);
},
{
name = top;
pos = (350,700);
},
{
name = topright;
pos = (670,700);
}
);
background = {
shapes = (
{
closed = 1;
nodes = (
(630,700,l),
(440,700,l),
(440,258,ls),
(440,205,o),
(405,167,o),
(356,167,cs),
(323,167,o),
(293,189,o),
(280,220,c),
(103,120,l),
(143,40,o),
(248,-13,o),
(356,-13,cs),
(516,-13,o),
(630,80,o),
(630,212,c)
);
}
);
};
layerId = "747A0BA5-337F-45E8-9896-B2CAF0968805";
shapes = (
{
closed = 1;
nodes = (
(538,-12,o),
(650,94,o),
(650,271,cs),
(650,700,l),
(465,700,l),
(465,271,ls),
(465,201,o),
(422,160,o),
(350,160,cs),
(278,160,o),
(235,201,o),
(235,271,cs),
(235,700,l),
(50,700,l),
(50,271,ls),
(50,94,o),
(161,-12,o),
(348,-12,cs)
);
}
);
width = 700;
}
);
metricLeft = "=I-10";
metricRight = "=I-10";
unicode = 85;
},
{
glyphname = V;
kernLeft = undercut_left_uppercase;
kernRight = undercut_right_uppercase;
lastChange = "2022-09-05 14:26:45 +0000";
layers = (
{
layerId = m01;
shapes = (
{
closed = 1;
nodes = (
(376,0,l),
(671,700,l),
(604,700,l),
(310,0,l)
);
},
{
closed = 1;
nodes = (
(369,0,l),
(76,700,l),
(10,700,l),
(304,0,l)
);
}
);
width = 681;
},
{
layerId = "747A0BA5-337F-45E8-9896-B2CAF0968805";
shapes = (
{
closed = 1;
nodes = (
(476,0,l),
(743,700,l),
(543,700,l),
(297,0,l)
);
},
{
closed = 1;
nodes = (
(455,0,l),
(207,700,l),
(7,700,l),
(276,0,l)
);
}
);
width = 750;
}
);
metricLeft = A;
metricRight = A;
unicode = 86;
},
{
glyphname = W;
kernLeft = undercut_left_uppercase;
kernRight = undercut_right_uppercase;
lastChange = "2022-09-05 14:26:45 +0000";
layers = (
{
anchors = (
{
name = top;
pos = (475,670);
}
);
layerId = m01;
shapes = (
{
closed = 1;
nodes = (
(719,0,l),
(940,700,l),
(876,700,l),
(654,0,l)
);
},
{
closed = 1;
nodes = (
(291,0,l),
(74,700,l),
(10,700,l),
(226,0,l)
);
},
{
closed = 1;
nodes = (
(296,0,l),
(507,700,l),
(443,700,l),
(231,0,l)
);
},
{
closed = 1;
nodes = (
(714,0,l),
(507,700,l),
(443,700,l),
(649,0,l)
);
}
);
width = 950;
},
{
anchors = (
{
name = top;
pos = (503,670);
}
);
layerId = "747A0BA5-337F-45E8-9896-B2CAF0968805";
shapes = (
{
closed = 1;
nodes = (
(800,0,l),
(1001,700,l),
(812,700,l),
(625,0,l)
);
},
{
closed = 1;
nodes = (
(383,0,l),
(196,700,l),
(7,700,l),
(208,0,l)
);
},
{
closed = 1;
nodes = (
(400,0,l),
(576,700,l),
(412,700,l),
(235,0,l)
);
},
{
closed = 1;
nodes = (
(783,0,l),
(596,700,l),
(432,700,l),
(608,0,l)
);
}
);
width = 1008;
}
);
metricLeft = A;
metricRight = A;
unicode = 87;
},
{
glyphname = X;
lastChange = "2022-09-05 14:28:20 +0000";
layers = (
{
layerId = m01;
shapes = (
{
closed = 1;
nodes = (
(88,0,l),
(313,330,l),
(579,700,l),
(503,700,l),
(280,385,l),
(10,0,l)
);
},
{
closed = 1;
nodes = (
(579,0,l),
(309,385,l),
(86,700,l),
(10,700,l),
(276,330,l),
(501,0,l)
);
}
);
width = 589;
},
{
layerId = "747A0BA5-337F-45E8-9896-B2CAF0968805";
shapes = (
{
closed = 1;
nodes = (
(233,0,l),
(457,340,l),
(721,700,l),
(500,700,l),
(282,382,l),
(10,0,l)
);
},
{
closed = 1;
nodes = (
(729,0,l),
(458,383,l),
(239,700,l),
(18,700,l),
(283,340,l),
(506,0,l)
);
}
);
width = 739;
}
);
unicode = 88;
},
{
glyphname = Y;
kernLeft = undercut_left_uppercase;
kernRight = undercut_right_uppercase;
lastChange = "2022-09-05 14:28:20 +0000";
layers = (
{
anchors = (
{
name = top;
pos = (294,670);
}
);
layerId = m01;
shapes = (
{
closed = 1;
nodes = (
(578,700,l),
(503,700,l),
(275,328,l),
(326,292,l)
);
},
{
closed = 1;
nodes = (
(326,0,l),
(326,336,l),
(262,336,l),
(262,0,l)
);
},
{
closed = 1;
nodes = (
(313,328,l),
(85,700,l),
(10,700,l),
(262,292,l)
);
}
);
width = 588;
},
{
anchors = (
{
name = top;
pos = (343,670);
}
);
layerId = "747A0BA5-337F-45E8-9896-B2CAF0968805";
shapes = (
{
closed = 1;
nodes = (
(681,700,l),
(471,700,l),
(248,318,l),
(429,287,l)
);
},
{
closed = 1;
nodes = (
(436,0,l),
(436,336,l),
(251,336,l),
(251,0,l)
);
},
{
closed = 1;
nodes = (
(438,318,l),
(215,700,l),
(5,700,l),
(257,287,l)
);
}
);
width = 686;
}
);
unicode = 89;
},
{
glyphname = Z;
lastChange = "2023-02-22 13:43:41 +0000";
layers = (
{
anchors = (
{
name = top;
pos = (323,670);
}
);
layerId = m01;
shapes = (
{
closed = 1;
nodes = (
(591,0,l),
(591,58,l),
(129,58,l),
(594,642,l),
(594,700,l),
(53,700,l),
(53,642,l),
(515,642,l),
(50,58,l),
(50,0,l)
);
}
);
width = 644;
},
{
anchors = (
{
name = top;
pos = (313,700);
}
);
layerId = "747A0BA5-337F-45E8-9896-B2CAF0968805";
shapes = (
{
closed = 1;
nodes = (
(591,0,l),
(591,175,l),
(272,175,l),
(594,525,l),
(594,700,l),
(33,700,l),
(33,525,l),
(352,525,l),
(30,175,l),
(30,0,l)
);
}
);
width = 624;
}
);
metricLeft = "=I/2";
metricRight = "=I/2";
unicode = 90;
},
{
glyphname = I.ss02;
lastChange = "2023-04-04 05:56:17 +0000";
layers = (
{
anchors = (
{
name = bottom;
pos = (182,0);
},
{
name = ogonek;
pos = (214,0);
},
{
name = top;
pos = (182,670);
},
{
name = topleft;
pos = (70,700);
}
);
layerId = m01;
shapes = (
{
closed = 1;
nodes = (
(314,0,l),
(314,58,l),
(214,58,l),
(214,642,l),
(314,642,l),
(314,700,l),
(50,700,l),
(50,642,l),
(150,642,l),
(150,58,l),
(50,58,l),
(50,0,l)
);
}
);
width = 364;
},
{
anchors = (
{
name = bottom;
pos = (235,0);
},
{
name = ogonek;
pos = (335,0);
},
{
name = top;
pos = (235,700);
},
{
name = topleft;
pos = (90,700);
}
);
layerId = "747A0BA5-337F-45E8-9896-B2CAF0968805";
shapes = (
{
closed = 1;
nodes = (
(435,0,l),
(435,170,l),
(325,170,l),
(325,530,l),
(435,530,l),
(435,700,l),
(30,700,l),
(30,530,l),
(140,530,l),
(140,170,l),
(30,170,l),
(30,0,l)
);
}
);
width = 465;
}
);
},
{
glyphname = Idieresis.ss02;
lastChange = "2023-04-04 07:06:35 +0000";
layers = (
{
anchors = (
{
name = _top;
pos = (182,670);
},
{
name = top;
pos = (182,880);
}
);
layerId = m01;
shapes = (
{
closed = 1;
nodes = (
(265,800,o),
(283,818,o),
(283,840,cs),
(283,862,o),
(265,880,o),
(243,880,cs),
(221,880,o),
(203,862,o),
(203,840,cs),
(203,818,o),
(221,800,o),
(243,800,cs)
);
},
{
closed = 1;
nodes = (
(144,800,o),
(162,818,o),
(162,840,cs),
(162,862,o),
(144,880,o),
(122,880,cs),
(100,880,o),
(82,862,o),
(82,840,cs),
(82,818,o),
(100,800,o),
(122,800,cs)
);
},
{
ref = I.ss02;
}
);
width = 364;
},
{
anchors = (
{
name = _top;
pos = (245,700);
},
{
name = top;
pos = (245,948);
}
);
layerId = "747A0BA5-337F-45E8-9896-B2CAF0968805";
shapes = (
{
closed = 1;
nodes = (
(392,769,o),
(433,810,o),
(433,857,cs),
(433,904,o),
(392,945,o),
(345,945,cs),
(298,945,o),
(257,904,o),
(257,857,cs),
(257,810,o),
(298,769,o),
(345,769,cs)
);
},
{
closed = 1;
nodes = (
(193,769,o),
(233,809,o),
(233,857,cs),
(233,905,o),
(193,945,o),
(145,945,cs),
(97,945,o),
(57,905,o),
(57,857,cs),
(57,809,o),
(97,769,o),
(145,769,cs)
);
},
{
ref = I.ss02;
}
);
width = 465;
}
);
metricLeft = "=I.ss02";
metricRight = "=I.ss02";
},
{
glyphname = a;
kernLeft = "round-left-lowercase";
kernRight = "arch-right-lowercase";
lastChange = "2023-03-09 18:12:40 +0000";
layers = (
{
anchors = (
{
name = bottom;
pos = (246,0);
},
{
name = ogonek;
pos = (441,0);
},
{
name = top;
pos = (252,500);
}
);
background = {
shapes = (
{
closed = 1;
nodes = (
(441,0,l),
(441,268,ls),
(441,432,o),
(375,512,o),
(240,512,cs),
(162,512,o),
(103,478,o),
(62,407,c),
(116,383,l),
(141,433,o),
(182,457,o),
(240,457,cs),
(339,457,o),
(381,395,o),
(381,268,cs),
(381,75,l),
(386,0,l)
);
},
{
closed = 1;
nodes = (
(354,-12,o),
(415,78,o),
(415,214,c),
(381,214,l),
(381,102,o),
(324,43,o),
(228,43,cs),
(150,43,o),
(105,80,o),
(105,141,c),
(105,205,o),
(144,242,o),
(240,242,cs),
(382,242,l),
(382,297,l),
(232,297,ls),
(114,297,o),
(45,239,o),
(45,141,c),
(45,45,o),
(114,-12,o),
(232,-12,cs)
);
}
);
};
guides = (
{
pos = (-1,242);
},
{
pos = (-2,297);
}
);
layerId = m01;
shapes = (
{
closed = 1;
nodes = (
(441,0,l),
(441,268,ls),
(441,432,o),
(376,512,o),
(242,512,cs),
(162,512,o),
(103,478,o),
(62,407,c),
(116,383,l),
(143,434,o),
(182,457,o),
(242,457,cs),
(340,457,o),
(381,395,o),
(381,268,cs),
(381,75,l),
(386,0,l)
);
},
{
closed = 1;
nodes = (
(348,-12,o),
(416,78,o),
(416,214,c),
(381,214,l),
(381,102,o),
(324,43,o),
(228,43,cs),
(150,43,o),
(105,80,o),
(105,141,c),
(105,205,o),
(144,242,o),
(240,242,cs),
(382,242,l),
(382,297,l),
(232,297,ls),
(114,297,o),
(45,239,o),
(45,141,c),
(45,45,o),
(114,-12,o),
(232,-12,cs)
);
}
);
width = 501;
},
{
anchors = (
{
name = bottom;
pos = (252,0);
},
{
name = ogonek;
pos = (516,0);
},
{
name = top;
pos = (252,500);
}
);
background = {
shapes = (
{
closed = 1;
nodes = (
(403,-12,o),
(520,97,o),
(520,250,cs),
(520,403,o),
(404,512,o),
(240,512,cs),
(135,512,o),
(39,456,o),
(1,352,c),
(173,296,l),
(184,323,o),
(216,342,o),
(250,342,cs),
(300,342,o),
(335,304,o),
(335,250,cs),
(335,196,o),
(299,158,o),
(248,158,cs),
(215,158,o),
(184,177,o),
(172,204,c),
(0,149,l),
(38,45,o),
(133,-12,o),
(238,-12,cs)
);
}
);
};
guides = (
{
angle = 180;
pos = (351,294);
}
);
layerId = "747A0BA5-337F-45E8-9896-B2CAF0968805";
shapes = (
{
closed = 1;
nodes = (
(506,0,l),
(506,281,ls),
(506,419,o),
(412,512,o),
(252,512,cs),
(148,512,o),
(72,460,o),
(31,378,c),
(188,328,l),
(202,349,o),
(222,368,o),
(256,368,cs),
(328,368,o),
(332,315,o),
(332,245,cs),
(332,115,l),
(337,0,l)
);
},
{
closed = 1;
nodes = (
(314,-12,o),
(379,61,o),
(379,191,c),
(332,191,l),
(332,144,o),
(301,114,o),
(251,114,c),
(220,114,o),
(202,125,o),
(202,145,c),
(202,174,o),
(228,191,o),
(275,191,c),
(351,191,l),
(351,294,l),
(204,294,ls),
(88,294,o),
(20,245,o),
(20,141,cs),
(20,42,o),
(88,-12,o),
(204,-12,cs)
);
}
);
width = 546;
},
{
anchors = (
{
name = bottom;
pos = (264,0);
},
{
name = ogonek;
pos = (480,10);
},
{
name = top;
pos = (264,500);
}
);
associatedMasterId = m01;
attr = {
coordinates = (
660
);
};
background = {
shapes = (
{
closed = 1;
nodes = (
(482,0,l),
(485,277,ls),
(487,429,o),
(410,512,o),
(260,512,cs),
(134,512,o),
(69,444,o),
(42,380,c),
(158,340,l),
(181,380,o),
(215,398,o),
(257,398,cs),
(317,398,o),
(354,363,o),
(354,253,cs),
(354,101,l),
(357,0,l)
);
},
{
closed = 1;
nodes = (
(338,-12,o),
(387,68,o),
(387,204,c),
(352,204,l),
(352,152,o),
(304,98,o),
(241,98,cs),
(193,98,o),
(165,116,o),
(165,145,c),
(165,182,o),
(193,204,o),
(280,204,cs),
(361,204,l),
(361,302,l),
(234,302,ls),
(105,302,o),
(30,248,o),
(30,141,c),
(30,43,o),
(99,-12,o),
(219,-12,cs)
);
}
);
};
guides = (
{
pos = (-9,242);
},
{
pos = (-10,297);
}
);
layerId = "90681BF4-6953-4703-994E-AC6AC34C754C";
name = "{660}";
shapes = (
{
closed = 1;
nodes = (
(482,0,l),
(485,277,ls),
(487,420,o),
(412,512,o),
(260,512,cs),
(134,512,o),
(69,444,o),
(42,380,c),
(158,340,l),
(182,379,o),
(217,397,o),
(260,397,cs),
(329,397,o),
(355,342,o),
(355,253,cs),
(355,101,l),
(359,0,l)
);
},
{
closed = 1;
nodes = (
(340,-12,o),
(387,68,o),
(387,204,c),
(355,204,l),
(355,152,o),
(306,98,o),
(241,98,cs),
(193,98,o),
(165,116,o),
(165,145,c),
(165,182,o),
(193,204,o),
(280,204,cs),
(361,204,l),
(361,302,l),
(234,302,ls),
(105,302,o),
(30,248,o),
(30,141,c),
(30,43,o),
(99,-12,o),
(219,-12,cs)
);
}
);
width = 533;
}
);
metricLeft = o;
metricRight = n;
unicode = 97;
},
{
glyphname = aogonek;
kernLeft = "round-left-lowercase";
kernRight = "arch-right-lowercase";
lastChange = "2022-09-05 14:27:59 +0000";
layers = (
{
background = {
anchors = (
{
name = top;
pos = (305,500);
}
);
shapes = (
{
closed = 1;
nodes = (
(437,-212,o),
(466,-204,o),
(505,-188,c),
(483,-137,l),
(448,-150,o),
(425,-157,o),
(411,-157,cs),
(360,-157,o),
(335,-125,o),
(335,-60,cs),
(335,503,l),
(275,503,l),
(275,-60,ls),
(275,-162,o),
(321,-212,o),
(416,-212,cs)
);
}
);
};
layerId = m01;
shapes = (
{
ref = a;
},
{
pos = (245,0);
ref = ogonekcomb;
}
);
width = 501;
},
{
layerId = "747A0BA5-337F-45E8-9896-B2CAF0968805";
shapes = (
{
ref = a;
},
{
pos = (291,0);
ref = ogonekcomb;
}
);
width = 546;
}
);
unicode = 261;
},
{
glyphname = ae;
kernLeft = "round-left-lowercase";
kernRight = "round-right-lowercase";
lastChange = "2022-10-02 05:42:38 +0000";
layers = (
{
layerId = m01;
shapes = (
{
pos = (336,0);
ref = e;
},
{
closed = 1;
nodes = (
(441,180,l),
(441,268,ls),
(441,432,o),
(376,512,o),
(242,512,cs),
(158,512,o),
(94,477,o),
(50,405,c),
(104,381,l),
(132,432,o),
(178,457,o),
(242,457,cs),
(340,457,o),
(369,395,o),
(381,268,cs),
(389,180,l)
);
},
{
closed = 1;
nodes = (
(360,-12,o),
(435,89,o),
(435,242,c),
(381,242,l),
(381,123,o),
(324,43,o),
(228,43,cs),
(150,43,o),
(105,80,o),
(105,141,c),
(105,205,o),
(144,242,o),
(240,242,cs),
(420,242,l),
(420,297,l),
(232,297,ls),
(114,297,o),
(45,239,o),
(45,141,c),
(45,45,o),
(114,-12,o),
(232,-12,cs)
);
}
);
width = 879;
},
{
layerId = "747A0BA5-337F-45E8-9896-B2CAF0968805";
shapes = (
{
alignment = -1;
pos = (306,0);
ref = e;
},
{
closed = 1;
nodes = (
(466,160,l),
(466,281,ls),
(466,419,o),
(387,512,o),
(252,512,cs),
(142,512,o),
(68,460,o),
(21,378,c),
(180,328,l),
(201,356,o),
(218,368,o),
(248,368,cs),
(328,368,o),
(328,315,o),
(332,245,cs),
(337,160,l)
);
},
{
closed = 1;
nodes = (
(369,-12,o),
(467,69,o),
(467,214,c),
(327,195,l),
(327,146,o),
(296,114,o),
(247,114,c),
(217,114,o),
(200,125,o),
(200,145,c),
(200,174,o),
(226,191,o),
(273,191,c),
(351,191,l),
(351,294,l),
(204,294,ls),
(88,294,o),
(20,245,o),
(20,141,cs),
(20,42,o),
(88,-12,o),
(204,-12,cs)
);
}
);
width = 872;
}
);
metricLeft = a;
metricRight = e;
unicode = 230;
},
{
glyphname = b;
kernRight = "round-right-lowercase";
lastChange = "2023-02-22 15:02:18 +0000";
layers = (
{
layerId = m01;
shapes = (
{
closed = 1;
nodes = (
(132,0,l),
(135,93,l),
(135,700,l),
(75,700,l),
(75,0,l)
);
},
{
pos = (582,0);
ref = Bowl;
scale = (-1,1);
}
);
width = 582;
},
{
layerId = "747A0BA5-337F-45E8-9896-B2CAF0968805";
shapes = (
{
closed = 1;
nodes = (
(216,0,l),
(225,93,l),
(225,700,l),
(45,700,l),
(45,0,l)
);
},
{
pos = (596,0);
ref = Bowl;
scale = (-1,1);
}
);
width = 605;
}
);
metricLeft = l;
metricRight = o;
unicode = 98;
},
{
glyphname = c;
kernLeft = "round-left-lowercase";
kernRight = "round-right-lowercase";
lastChange = "2023-02-22 14:28:43 +0000";
layers = (
{
anchors = (
{
name = bottom;
pos = (291,0);
},
{
name = top;
pos = (289,500);
}
);
layerId = m01;
shapes = (
{
closed = 1;
nodes = (
(387,-12,o),
(464,38,o),
(504,119,c),
(451,147,l),
(421,82,o),
(363,43,o),
(291,43,cs),
(182,43,o),
(105,128,o),
(105,250,cs),
(105,372,o),
(181,457,o),
(289,457,cs),
(359,457,o),
(417,422,o),
(448,365,c),
(500,393,l),
(460,467,o),
(383,512,o),
(289,512,cs),
(146,512,o),
(45,404,o),
(45,250,cs),
(45,96,o),
(147,-12,o),
(291,-12,cs)
);
}
);
width = 539;
},
{
anchors = (
{
name = bottom;
pos = (302,-1);
},
{
name = top;
pos = (300,500);
}
);
background = {
shapes = (
{
closed = 1;
nodes = (
(451,-12,o),
(563,96,o),
(563,250,cs),
(563,404,o),
(451,512,o),
(291,512,cs),
(132,512,o),
(20,404,o),
(20,250,cs),
(20,96,o),
(133,-12,o),
(293,-12,cs)
);
},
{
closed = 1;
nodes = (
(241,154,o),
(205,194,o),
(205,250,cs),
(205,306,o),
(241,346,o),
(291,346,cs),
(342,346,o),
(378,306,o),
(378,250,cs),
(378,194,o),
(343,154,o),
(293,154,cs)
);
}
);
};
layerId = "747A0BA5-337F-45E8-9896-B2CAF0968805";
shapes = (
{
closed = 1;
nodes = (
(407,-12,o),
(502,45,o),
(540,149,c),
(368,204,l),
(356,177,o),
(325,158,o),
(292,158,cs),
(241,158,o),
(205,196,o),
(205,250,cs),
(205,304,o),
(240,342,o),
(290,342,cs),
(324,342,o),
(356,323,o),
(367,296,c),
(539,352,l),
(501,456,o),
(405,512,o),
(300,512,cs),
(136,512,o),
(20,403,o),
(20,250,cs),
(20,97,o),
(137,-12,o),
(302,-12,cs)
);
}
);
width = 550;
}
);
metricLeft = o;
metricRight = "=e";
unicode = 99;
},
{
glyphname = d;
kernLeft = "round-left-lowercase";
lastChange = "2022-09-05 20:18:16 +0000";
layers = (
{
anchors = (
{
name = top;
pos = (477,700);
},
{
name = top_caron;
pos = (508,700);
}
);
layerId = m01;
shapes = (
{
closed = 1;
nodes = (
(507,0,l),
(507,700,l),
(447,700,l),
(447,93,l),
(450,0,l)
);
},
{
ref = Bowl;
}
);
width = 582;
},
{
anchors = (
{
name = top;
pos = (459,700);
},
{
name = top_caron;
pos = (560,700);
}
);
background = {
shapes = (
{
closed = 1;
nodes = (
(559,0,l),
(559,700,l),
(379,700,l),
(379,93,l),
(388,0,l)
);
},
{
pos = (421,0);
ref = arch;
scale = (-1,1);
},
{
angle = 180;
pos = (421,500);
ref = arch;
}
);
};
layerId = "747A0BA5-337F-45E8-9896-B2CAF0968805";
shapes = (
{
closed = 1;
nodes = (
(559,0,l),
(559,700,l),
(379,700,l),
(379,93,l),
(388,0,l)
);
},
{
pos = (9,0);
ref = Bowl;
}
);
width = 604;
}
);
metricLeft = o;
metricRight = l;
unicode = 100;
},
{
glyphname = dcroat;
kernLeft = "round-left-lowercase";
lastChange = "2022-09-05 14:27:59 +0000";
layers = (
{
layerId = m01;
shapes = (
{
closed = 1;
nodes = (
(587,571,l),
(587,626,l),
(279,626,l),
(279,571,l)
);
},
{
ref = d;
}
);
width = 582;
},
{
layerId = "747A0BA5-337F-45E8-9896-B2CAF0968805";
shapes = (
{
closed = 1;
nodes = (
(614,545,l),
(614,650,l),
(260,650,l),
(260,545,l)
);
},
{
ref = d;
}
);
width = 604;
}
);
metricLeft = d;
unicode = 273;
},
{
glyphname = eth;
kernLeft = "round-left-lowercase";
lastChange = "2022-10-01 22:11:35 +0000";
layers = (
{
layerId = m01;
shapes = (
{
closed = 1;
nodes = (
(433,-12,o),
(534,96,o),
(534,250,c),
(472,405,l),
(433,472,o),
(368,512,o),
(289,512,cs),
(146,512,o),
(45,404,o),
(45,250,cs),
(45,96,o),
(147,-12,o),
(291,-12,cs)
);
},
{
closed = 1;
nodes = (
(182,43,o),
(105,128,o),
(105,250,cs),
(105,372,o),
(181,457,o),
(289,457,cs),
(397,457,o),
(474,372,o),
(474,250,cs),
(474,128,o),
(398,43,o),
(291,43,cs)
);
},
{
closed = 1;
nodes = (
(534,250,l),
(534,516,o),
(420,684,o),
(170,737,c),
(157,678,l),
(381,631,o),
(474,489,o),
(474,250,c)
);
},
{
closed = 1;
nodes = (
(465,645,l),
(440,687,l),
(263,578,l),
(290,535,l)
);
}
);
width = 589;
},
{
layerId = "747A0BA5-337F-45E8-9896-B2CAF0968805";
shapes = (
{
closed = 1;
nodes = (
(423,-12,o),
(529,91,o),
(529,236,c),
(441,315,l),
(441,376,o),
(335,444,o),
(250,444,cs),
(109,444,o),
(20,349,o),
(20,216,cs),
(20,82,o),
(125,-12,o),
(275,-12,cs)
);
},
{
closed = 1;
nodes = (
(234,150,o),
(206,178,o),
(206,216,cs),
(206,254,o),
(234,281,o),
(273,281,cs),
(315,281,o),
(343,254,o),
(343,216,cs),
(343,178,o),
(316,150,o),
(275,150,cs)
);
},
{
closed = 1;
nodes = (
(529,236,l),
(536,450,o),
(488,684,o),
(157,731,c),
(125,586,l),
(327,539,o),
(360,469,o),
(358,333,c)
);
},
{
closed = 1;
nodes = (
(502,647,l),
(458,707,l),
(187,513,l),
(229,453,l)
);
}
);
width = 560;
}
);
metricLeft = o;
metricRight = "=o+10";
unicode = 240;
},
{
glyphname = e;
kernLeft = "round-left-lowercase";
kernRight = "round-right-lowercase";
lastChange = "2023-04-04 06:13:46 +0000";
layers = (
{
anchors = (
{
name = bottom;
pos = (291,0);
},
{
name = ogonek;
pos = (455,50);
},
{
name = top;
pos = (286,500);
}
);
background = {
shapes = (
{
closed = 1;
nodes = (
(391,-12,o),
(465,40,o),
(503,114,c),
(453,145,l),
(422,85,o),
(368,43,o),
(291,43,cs),
(178,43,o),
(97,134,o),
(106,262,c),
(80,243,l),
(508,243,l),
(508,400,o),
(428,512,o),
(286,512,cs),
(145,512,o),
(45,403,o),
(45,250,cs),
(45,96,o),
(147,-12,o),
(291,-12,cs)
);
}
);
};
layerId = m01;
shapes = (
{
closed = 1;
nodes = (
(391,-12,o),
(465,40,o),
(503,114,c),
(453,145,l),
(422,85,o),
(368,43,o),
(291,43,cs),
(178,43,o),
(104,124,o),
(104,262,c),
(81,243,l),
(508,243,l),
(508,400,o),
(428,512,o),
(286,512,cs),
(145,512,o),
(45,403,o),
(45,250,cs),
(45,96,o),
(147,-12,o),
(291,-12,cs)
);
},
{
closed = 1;
nodes = (
(109,385,o),
(189,457,o),
(286,457,cs),
(383,457,o),
(444,384,o),
(444,279,c),
(469,298,l),
(84,298,l),
(109,280,l)
);
}
);
width = 543;
},
{
anchors = (
{
name = bottom;
pos = (283,0);
},
{
name = ogonek;
pos = (485,50);
},
{
name = top;
pos = (295,500);
}
);
layerId = "747A0BA5-337F-45E8-9896-B2CAF0968805";
shapes = (
{
closed = 1;
nodes = (
(391,-12,o),
(503,25,o),
(539,130,c),
(381,179,l),
(373,148,o),
(337,125,o),
(293,125,cs),
(235,125,o),
(204,166,o),
(204,231,c),
(182,205,l),
(556,205,l),
(556,412,o),
(448,512,o),
(295,512,cs),
(132,512,o),
(20,406,o),
(20,250,cs),
(20,94,o),
(135,-12,o),
(298,-12,cs)
);
},
{
closed = 1;
nodes = (
(205,364,o),
(248,388,o),
(290,388,cs),
(330,388,o),
(375,364,o),
(375,286,c),
(393,315,l),
(186,315,l),
(205,286,l)
);
}
);
width = 566;
},
{
anchors = (
{
name = bottom;
pos = (277,0);
},
{
name = ogonek;
pos = (505,10);
},
{
name = top;
pos = (290,500);
}
);
associatedMasterId = m01;
attr = {
coordinates = (
660
);
};
background = {
shapes = (
{
closed = 1;
nodes = (
(401,-12,o),
(479,38,o),
(522,123,c),
(398,171,l),
(380,135,o),
(349,110,o),
(297,110,cs),
(234,110,o),
(180,145,o),
(168,215,c),
(534,215,l),
(534,405,o),
(419,512,o),
(290,512,cs),
(138,512,o),
(30,404,o),
(30,250,cs),
(30,96,o),
(135,-12,o),
(283,-12,cs)
);
},
{
closed = 1;
nodes = (
(190,371,o),
(228,395,o),
(285,395,cs),
(332,395,o),
(368,373,o),
(387,318,c),
(174,318,l)
);
}
);
};
layerId = "935C6971-B6E4-413A-871C-B432CCB3E320";
name = "{660}";
shapes = (
{
closed = 1;
nodes = (
(401,-12,o),
(479,38,o),
(522,123,c),
(404,169,l),
(385,132,o),
(352,106,o),
(297,106,cs),
(229,106,o),
(167,152,o),
(167,227,c),
(155,215,l),
(534,215,l),
(534,405,o),
(421,512,o),
(290,512,cs),
(138,512,o),
(30,404,o),
(30,250,cs),
(30,96,o),
(135,-12,o),
(283,-12,cs)
);
},
{
closed = 1;
nodes = (
(174,373,o),
(240,400,o),
(286,400,cs),
(332,400,o),
(392,373,o),
(392,301,c),
(403,313,l),
(162,313,l),
(174,301,l)
);
}
);
width = 554;
}
);
metricLeft = o;
metricRight = "=o-10";
unicode = 101;
},
{
glyphname = f;
kernLeft = tall_left_lowercase;
lastChange = "2022-10-16 05:18:34 +0000";
layers = (
{
layerId = m01;
shapes = (
{
closed = 1;
nodes = (
(185,0,l),
(185,560,ls),
(185,625,o),
(210,657,o),
(261,657,cs),
(275,657,o),
(298,650,o),
(333,637,c),
(355,688,l),
(316,704,o),
(287,712,o),
(266,712,cs),
(171,712,o),
(125,662,o),
(125,560,cs),
(125,0,l)
);
},
{
closed = 1;
nodes = (
(338,445,l),
(338,500,l),
(30,500,l),
(30,445,l)
);
}
);
width = 360;
},
{
layerId = "747A0BA5-337F-45E8-9896-B2CAF0968805";
shapes = (
{
closed = 1;
nodes = (
(275,0,l),
(275,507,ls),
(275,555,o),
(286,572,o),
(313,572,cs),
(326,572,o),
(341,568,o),
(353,558,c),
(420,683,l),
(387,704,o),
(329,724,o),
(278,724,cs),
(154,724,o),
(95,654,o),
(95,543,cs),
(95,0,l)
);
},
{
closed = 1;
nodes = (
(378,360,l),
(378,500,l),
(20,500,l),
(20,360,l)
);
}
);
width = 415;
}
);
unicode = 102;
},
{
glyphname = g;
kernLeft = "round-left-lowercase";
lastChange = "2022-09-05 21:51:21 +0000";
layers = (
{
anchors = (
{
name = bottom;
pos = (284,-200);
},
{
name = top;
pos = (271,500);
}
);
background = {
shapes = (
{
closed = 1;
nodes = (
(444,50,l),
(444,-74,o),
(367,-161,o),
(258,-161,cs),
(186,-161,o),
(128,-120,o),
(98,-53,c),
(45,-81,l),
(85,-164,o),
(162,-216,o),
(258,-216,cs),
(402,-216,o),
(504,-106,o),
(504,50,c)
);
}
);
};
layerId = m01;
shapes = (
{
closed = 1;
nodes = (
(398,-212,o),
(507,-129,o),
(507,46,cs),
(507,500,l),
(447,500,l),
(447,46,ls),
(447,-97,o),
(370,-157,o),
(266,-157,cs),
(196,-157,o),
(128,-129,o),
(105,-114,c),
(83,-164,l),
(103,-174,o),
(175,-212,o),
(266,-212,cs)
);
},
{
closed = 1;
nodes = (
(398,0,o),
(487,107,o),
(487,258,cs),
(487,407,o),
(398,512,o),
(271,512,cs),
(139,512,o),
(45,407,o),
(45,258,cs),
(45,107,o),
(139,0,o),
(271,0,cs)
);
},
{
closed = 1;
nodes = (
(179,53,o),
(105,138,o),
(105,258,cs),
(105,376,o),
(178,460,o),
(282,460,cs),
(379,460,o),
(447,376,o),
(447,258,cs),
(447,138,o),
(379,53,o),
(283,53,cs)
);
}
);
width = 582;
},
{
anchors = (
{
name = bottom;
pos = (305,-200);
},
{
name = top;
pos = (305,500);
}
);
layerId = "747A0BA5-337F-45E8-9896-B2CAF0968805";
shapes = (
{
closed = 1;
nodes = (
(474,-214,o),
(569,-107,o),
(569,60,cs),
(569,500,l),
(389,500,l),
(389,52,ls),
(389,-21,o),
(345,-56,o),
(283,-56,cs),
(189,-56,o),
(145,-27,o),
(113,-11,c),
(42,-154,l),
(90,-192,o),
(161,-214,o),
(292,-214,cs)
);
},
{
closed = 1;
nodes = (
(360,24,o),
(428,108,o),
(428,250,cs),
(428,415,o),
(360,512,o),
(246,512,cs),
(104,512,o),
(20,416,o),
(20,254,cs),
(20,110,o),
(104,24,o),
(246,24,cs)
);
},
{
closed = 1;
nodes = (
(253,173,o),
(220,210,o),
(219,261,cs),
(220,314,o),
(252,350,o),
(300,350,cs),
(349,350,o),
(380,314,o),
(380,261,cs),
(380,210,o),
(350,173,o),
(301,173,cs)
);
}
);
width = 614;
}
);
metricLeft = o;
metricRight = "=|n";
unicode = 103;
},
{
glyphname = h;
kernLeft = tall_left_lowercase;
kernRight = "arch-right-lowercase";
lastChange = "2023-04-03 06:17:47 +0000";
layers = (
{
anchors = (
{
name = bottom;
pos = (277,0);
},
{
name = center;
pos = (277,400);
},
{
name = top;
pos = (105,700);
}
);
layerId = m01;
shapes = (
{
closed = 1;
nodes = (
(135,0,l),
(135,700,l),
(75,700,l),
(75,0,l)
);
},
{
closed = 1;
nodes = (
(494,0,l),
(494,256,l),
(434,256,l),
(434,0,l)
);
},
{
pos = (98,0);
ref = arch;
}
);
width = 554;
},
{
anchors = (
{
name = bottom;
pos = (290,0);
},
{
name = center;
pos = (290,400);
},
{
name = top;
pos = (135,700);
}
);
layerId = "747A0BA5-337F-45E8-9896-B2CAF0968805";
shapes = (
{
closed = 1;
nodes = (
(227,0,l),
(227,700,l),
(47,700,l),
(47,0,l)
);
},
{
closed = 1;
nodes = (
(540,0,l),
(540,256,l),
(360,256,l),
(360,0,l)
);
},
{
pos = (185,0);
ref = arch;
}
);
width = 580;
}
);
metricLeft = "l(75)";
metricRight = n;
unicode = 104;
},
{
glyphname = hbar;
kernLeft = tall_left_lowercase;
lastChange = "2022-09-05 14:27:59 +0000";
layers = (
{
layerId = m01;
shapes = (
{
closed = 1;
nodes = (
(308,571,l),
(308,626,l),
(0,626,l),
(0,571,l)
);
},
{
ref = h;
}
);
width = 554;
},
{
layerId = "747A0BA5-337F-45E8-9896-B2CAF0968805";
shapes = (
{
closed = 1;
nodes = (
(354,545,l),
(354,650,l),
(0,650,l),
(0,545,l)
);
},
{
ref = h;
}
);
width = 580;
}
);
metricRight = h;
unicode = 295;
},
{
glyphname = idotless;
lastChange = "2023-02-22 13:35:13 +0000";
layers = (
{
anchors = (
{
name = bottom;
pos = (110,0);
},
{
name = ogonek;
pos = (139,0);
},
{
name = top;
pos = (110,500);
}
);
layerId = m01;
shapes = (
{
closed = 1;
nodes = (
(139,0,l),
(139,500,l),
(79,500,l),
(79,0,l)
);
}
);
width = 220;
},
{
anchors = (
{
name = bottom;
pos = (145,0);
},
{
name = ogonek;
pos = (245,0);
},
{
name = top;
pos = (145,500);
}
);
layerId = "747A0BA5-337F-45E8-9896-B2CAF0968805";
shapes = (
{
closed = 1;
nodes = (
(235,0,l),
(235,500,l),
(55,500,l),
(55,0,l)
);
}
);
width = 290;
}
);
unicode = 305;
},
{
glyphname = idieresis;
kernLeft = tall_left_lowercase;
lastChange = "2022-09-05 14:27:59 +0000";
layers = (
{
anchors = (
{
name = _top;
pos = (110,500);
},
{
name = top;
pos = (110,710);
}
);
layerId = m01;
shapes = (
{
closed = 1;
nodes = (
(193,630,o),
(211,648,o),
(211,670,cs),
(211,692,o),
(193,710,o),
(171,710,cs),
(149,710,o),
(131,692,o),
(131,670,cs),
(131,648,o),
(149,630,o),
(171,630,cs)
);
},
{
ref = idotless;
},
{
closed = 1;
nodes = (
(72,630,o),
(90,648,o),
(90,670,cs),
(90,692,o),
(72,710,o),
(50,710,cs),
(28,710,o),
(10,692,o),
(10,670,cs),
(10,648,o),
(28,630,o),
(50,630,cs)
);
}
);
width = 220;
},
{
anchors = (
{
name = _top;
pos = (145,500);
},
{
name = top;
pos = (145,748);
}
);
layerId = "747A0BA5-337F-45E8-9896-B2CAF0968805";
shapes = (
{
closed = 1;
nodes = (
(292,569,o),
(333,610,o),
(333,657,cs),
(333,704,o),
(292,745,o),
(245,745,cs),
(198,745,o),
(157,704,o),
(157,657,cs),
(157,610,o),
(198,569,o),
(245,569,cs)
);
},
{
ref = idotless;
},
{
closed = 1;
nodes = (
(93,569,o),
(133,609,o),
(133,657,cs),
(133,705,o),
(93,745,o),
(45,745,cs),
(-3,745,o),
(-43,705,o),
(-43,657,cs),
(-43,609,o),
(-3,569,o),
(45,569,cs)
);
}
);
width = 290;
}
);
unicode = 239;
},
{
glyphname = imacron;
kernLeft = tall_left_lowercase;
lastChange = "2023-03-16 09:35:06 +0000";
layers = (
{
background = {
anchors = (
{
name = bottom;
pos = (110,0);
},
{
name = ogonek;
pos = (139,0);
},
{
name = top;
pos = (110,500);
}
);
shapes = (
{
closed = 1;
nodes = (
(139,0,l),
(139,500,l),
(79,500,l),
(79,0,l)
);
},
{
closed = 1;
nodes = (
(234,580,l),
(234,637,l),
(-15,637,l),
(-15,580,l)
);
}
);
};
layerId = m01;
shapes = (
{
ref = idotless;
},
{
pos = (-40,0);
ref = macroncomb.narrow;
}
);
width = 220;
},
{
background = {
anchors = (
{
name = bottom;
pos = (145,0);
},
{
name = ogonek;
pos = (245,0);
},
{
name = top;
pos = (145,500);
}
);
shapes = (
{
closed = 1;
nodes = (
(235,0,l),
(235,500,l),
(55,500,l),
(55,0,l)
);
},
{
closed = 1;
nodes = (
(295,549,l),
(295,700,l),
(-5,700,l),
(-5,549,l)
);
}
);
};
layerId = "747A0BA5-337F-45E8-9896-B2CAF0968805";
shapes = (
{
ref = idotless;
},
{
pos = (-5,0);
ref = macroncomb.narrow;
}
);
width = 290;
}
);
unicode = 299;
},
{
glyphname = j;
lastChange = "2022-09-05 20:44:46 +0000";
layers = (
{
guides = (
{
angle = 67;
pos = (-22,-126);
}
);
layerId = m01;
shapes = (
{
closed = 1;
nodes = (
(172,632,o),
(190,650,o),
(190,672,cs),
(190,694,o),
(172,712,o),
(150,712,cs),
(128,712,o),
(110,694,o),
(110,672,cs),
(110,650,o),
(128,632,o),
(150,632,cs)
);
},
{
ref = jdotless;
}
);
width = 260;
},
{
layerId = "747A0BA5-337F-45E8-9896-B2CAF0968805";
shapes = (
{
closed = 1;
nodes = (
(219,542,o),
(266,589,o),
(266,645,cs),
(266,701,o),
(219,748,o),
(163,748,cs),
(107,748,o),
(60,701,o),
(60,645,cs),
(60,589,o),
(107,542,o),
(163,542,cs)
);
},
{
ref = jdotless;
}
);
width = 311;
}
);
metricRight = i;
unicode = 106;
},
{
glyphname = jdotless;
lastChange = "2022-09-05 14:27:59 +0000";
layers = (
{
anchors = (
{
name = top;
pos = (150,500);
}
);
layerId = m01;
shapes = (
{
closed = 1;
nodes = (
(134,-215,o),
(180,-165,o),
(180,-63,cs),
(180,500,l),
(120,500,l),
(120,-63,ls),
(120,-128,o),
(95,-160,o),
(44,-160,cs),
(30,-160,o),
(7,-153,o),
(-28,-140,c),
(-50,-191,l),
(-11,-207,o),
(18,-215,o),
(39,-215,cs)
);
}
);
width = 250;
},
{
anchors = (
{
name = top;
pos = (163,500);
}
);
layerId = "747A0BA5-337F-45E8-9896-B2CAF0968805";
shapes = (
{
closed = 1;
nodes = (
(178,-215,o),
(253,-143,o),
(253,-21,cs),
(253,500,l),
(73,500,l),
(73,-7,ls),
(73,-32,o),
(62,-47,o),
(44,-47,cs),
(31,-47,o),
(16,-41,o),
(4,-31,c),
(-70,-180,l),
(-40,-202,o),
(5,-215,o),
(52,-215,cs)
);
}
);
width = 298;
}
);
metricRight = i;
unicode = 567;
},
{
glyphname = k;
kernLeft = tall_left_lowercase;
kernRight = "indented-right-lowercase";
lastChange = "2022-09-05 20:42:55 +0000";
layers = (
{
anchors = (
{
name = bottom;
pos = (241,0);
},
{
name = top;
pos = (233,800);
}
);
layerId = m01;
shapes = (
{
closed = 1;
nodes = (
(443,500,l),
(365,500,l),
(94,215,l),
(135,174,l)
);
},
{
closed = 1;
nodes = (
(135,0,l),
(135,700,l),
(75,700,l),
(75,0,l)
);
},
{
closed = 1;
nodes = (
(465,0,l),
(228,347,l),
(189,304,l),
(388,0,l)
);
}
);
width = 465;
},
{
anchors = (
{
name = bottom;
pos = (287,0);
},
{
name = top;
pos = (293,800);
}
);
layerId = "747A0BA5-337F-45E8-9896-B2CAF0968805";
name = Black;
shapes = (
{
closed = 1;
nodes = (
(566,500,l),
(356,500,l),
(110,220,l),
(215,95,l)
);
},
{
closed = 1;
nodes = (
(225,0,l),
(225,700,l),
(45,700,l),
(45,0,l)
);
},
{
closed = 1;
nodes = (
(576,0,l),
(343,323,l),
(225,200,l),
(369,0,l)
);
}
);
width = 586;
}
);
metricLeft = l;
unicode = 107;
},
{
glyphname = l;
kernLeft = tall_left_lowercase;
lastChange = "2022-09-28 05:50:00 +0000";
layers = (
{
anchors = (
{
name = bottom;
pos = (105,0);
},
{
name = top;
pos = (105,670);
},
{
name = top_caron;
pos = (137,700);
}
);
layerId = m01;
shapes = (
{
closed = 1;
nodes = (
(135,0,l),
(135,700,l),
(75,700,l),
(75,0,l)
);
}
);
width = 210;
},
{
anchors = (
{
name = bottom;
pos = (135,0);
},
{
name = top;
pos = (135,700);
},
{
name = top_caron;
pos = (227,700);
}
);
layerId = "747A0BA5-337F-45E8-9896-B2CAF0968805";
shapes = (
{
closed = 1;
nodes = (
(225,0,l),
(225,700,l),
(45,700,l),
(45,0,l)
);
}
);
width = 270;
}
);
metricRight = "=|l";
unicode = 108;
},
{
glyphname = lslash;
kernLeft = tall_left_lowercase;
lastChange = "2023-04-04 06:31:04 +0000";
layers = (
{
layerId = m01;
shapes = (
{
closed = 1;
nodes = (
(260,384,l),
(260,442,l),
(20,327,l),
(20,269,l)
);
},
{
pos = (34,0);
ref = l;
}
);
width = 280;
},
{
layerId = "747A0BA5-337F-45E8-9896-B2CAF0968805";
shapes = (
{
closed = 1;
nodes = (
(290,358,l),
(290,496,l),
(0,342,l),
(0,204,l)
);
},
{
pos = (10,0);
ref = l;
}
);
width = 290;
}
);
unicode = 322;
},
{
glyphname = m;
kernLeft = short_lower_case;
kernRight = "arch-right-lowercase";
lastChange = "2023-04-03 06:20:49 +0000";
layers = (
{
background = {
shapes = (
{
closed = 1;
nodes = (
(135,0,l),
(135,408,l),
(131,500,l),
(75,500,l),
(75,0,l)
);
},
{
closed = 1;
nodes = (
(459,0,l),
(459,286,l),
(399,256,l),
(399,0,l)
);
},
{
closed = 1;
nodes = (
(459,286,l),
(460,438,o),
(388,512,o),
(279,512,cs),
(161,512,o),
(98,417,o),
(98,257,c),
(135,257,l),
(135,382,o),
(185,456,o),
(269,456,cs),
(342,456,o),
(399,422,o),
(399,256,c)
);
},
{
closed = 1;
nodes = (
(783,0,l),
(783,286,l),
(723,256,l),
(723,0,l)
);
},
{
closed = 1;
nodes = (
(783,286,l),
(784,438,o),
(712,512,o),
(603,512,cs),
(485,512,o),
(422,417,o),
(422,257,c),
(459,257,l),
(459,382,o),
(509,456,o),
(593,456,cs),
(666,456,o),
(723,422,o),
(723,256,c)
);
}
);
};
layerId = m01;
shapes = (
{
closed = 1;
nodes = (
(135,0,l),
(135,257,ls),
(135,382,o),
(185,456,o),
(269,456,cs),
(342,456,o),
(399,422,o),
(399,256,cs),
(399,0,l),
(459,0,l),
(459,257,ls),
(459,382,o),
(509,456,o),
(593,456,cs),
(666,456,o),
(723,422,o),
(723,256,cs),
(723,0,l),
(783,0,l),
(783,286,ls),
(784,438,o),
(712,512,o),
(603,512,cs),
(525,512,o),
(471,470,o),
(443,396,c),
(417,474,o),
(357,512,o),
(279,512,cs),
(213,512,o),
(164,482,o),
(134,428,c),
(131,500,l),
(75,500,l),
(75,0,l)
);
}
);
width = 843;
},
{
layerId = "747A0BA5-337F-45E8-9896-B2CAF0968805";
shapes = (
{
closed = 1;
nodes = (
(225,0,l),
(225,266,ls),
(225,320,o),
(250,345,o),
(301,343,cs),
(339,341,o),
(358,313,o),
(358,256,cs),
(358,0,l),
(538,0,l),
(538,266,ls),
(538,320,o),
(563,345,o),
(614,343,cs),
(652,341,o),
(671,313,o),
(671,256,cs),
(671,0,l),
(851,0,l),
(851,286,ls),
(851,440,o),
(793,512,o),
(671,512,cs),
(606,512,o),
(551,477,o),
(519,412,c),
(493,480,o),
(440,512,o),
(358,512,cs),
(302,512,o),
(254,487,o),
(222,439,c),
(215,500,l),
(45,500,l),
(45,0,l)
);
}
);
width = 891;
}
);
metricLeft = n;
metricRight = n;
unicode = 109;
},
{
glyphname = n;
kernLeft = short_lower_case;
kernRight = "arch-right-lowercase";
lastChange = "2022-10-15 05:55:54 +0000";
layers = (
{
anchors = (
{
name = bottom;
pos = (277,0);
},
{
name = top;
pos = (277,500);
}
);
layerId = m01;
shapes = (
{
closed = 1;
nodes = (
(135,0,l),
(135,408,l),
(131,500,l),
(75,500,l),
(75,0,l)
);
},
{
closed = 1;
nodes = (
(494,0,l),
(494,256,l),
(434,256,l),
(434,0,l)
);
},
{
pos = (98,0);
ref = arch;
}
);
width = 554;
},
{
anchors = (
{
name = bottom;
pos = (284,0);
},
{
name = top;
pos = (284,500);
}
);
background = {
shapes = (
{
pos = (596,0);
ref = Bowl;
scale = (-1,1);
}
);
};
layerId = "747A0BA5-337F-45E8-9896-B2CAF0968805";
shapes = (
{
closed = 1;
nodes = (
(225,0,l),
(225,408,l),
(215,500,l),
(45,500,l),
(45,0,l)
);
},
{
closed = 1;
nodes = (
(538,0,l),
(538,256,l),
(358,256,l),
(358,0,l)
);
},
{
pos = (183,0);
ref = arch;
}
);
width = 578;
}
);
unicode = 110;
},
{
glyphname = eng;
kernLeft = short_lower_case;
lastChange = "2023-03-25 15:48:16 +0000";
layers = (
{
anchors = (
{
name = top;
pos = (464,500);
}
);
layerId = m01;
shapes = (
{
closed = 1;
nodes = (
(448,-215,o),
(494,-165,o),
(494,-63,cs),
(494,0,l),
(434,0,l),
(434,-63,ls),
(434,-128,o),
(409,-160,o),
(358,-160,cs),
(344,-160,o),
(321,-153,o),
(286,-140,c),
(264,-191,l),
(303,-207,o),
(332,-215,o),
(353,-215,cs)
);
},
{
ref = n;
}
);
width = 554;
},
{
anchors = (
{
name = top;
pos = (448,500);
}
);
layerId = "747A0BA5-337F-45E8-9896-B2CAF0968805";
shapes = (
{
closed = 1;
nodes = (
(463,-215,o),
(538,-143,o),
(538,-21,cs),
(538,0,l),
(358,0,l),
(358,-7,ls),
(358,-32,o),
(347,-47,o),
(329,-47,cs),
(316,-47,o),
(301,-41,o),
(289,-31,c),
(215,-180,l),
(245,-202,o),
(290,-215,o),
(337,-215,cs)
);
},
{
ref = n;
}
);
width = 578;
}
);
metricLeft = n;
metricRight = n;
unicode = 331;
},
{
glyphname = o;
kernLeft = "round-left-lowercase";
kernRight = "round-right-lowercase";
lastChange = "2022-10-12 07:52:36 +0000";
layers = (
{
anchors = (
{
name = bottom;
pos = (290,0);
},
{
name = center;
pos = (290,250);
},
{
name = ogonek;
pos = (521,10);
},
{
name = top;
pos = (290,500);
},
{
name = topright;
pos = (559,500);
}
);
layerId = m01;
shapes = (
{
closed = 1;
nodes = (
(433,-12,o),
(534,96,o),
(534,250,cs),
(534,404,o),
(433,512,o),
(289,512,cs),
(146,512,o),
(45,404,o),
(45,250,cs),
(45,96,o),
(147,-12,o),
(291,-12,cs)
);
},
{
closed = 1;
nodes = (
(182,43,o),
(105,128,o),
(105,250,cs),
(105,372,o),
(181,457,o),
(289,457,cs),
(397,457,o),
(474,372,o),
(474,250,cs),
(474,128,o),
(398,43,o),
(291,43,cs)
);
}
);
width = 579;
},
{
anchors = (
{
name = bottom;
pos = (286,0);
},
{
name = center;
pos = (286,250);
},
{
name = ogonek;
pos = (526,10);
},
{
name = top;
pos = (286,500);
},
{
name = topright;
pos = (566,500);
}
);
layerId = "747A0BA5-337F-45E8-9896-B2CAF0968805";
shapes = (
{
closed = 1;
nodes = (
(451,-12,o),
(563,96,o),
(563,250,cs),
(563,404,o),
(451,512,o),
(291,512,cs),
(132,512,o),
(20,404,o),
(20,250,cs),
(20,96,o),
(133,-12,o),
(293,-12,cs)
);
},
{
closed = 1;
nodes = (
(241,154,o),
(205,194,o),
(205,250,cs),
(205,306,o),
(241,346,o),
(291,346,cs),
(342,346,o),
(378,306,o),
(378,250,cs),
(378,194,o),
(343,154,o),
(293,154,cs)
);
}
);
width = 583;
}
);
metricRight = "=|o";
unicode = 111;
},
{
glyphname = oslash;
kernLeft = "round-left-lowercase";
kernRight = "round-right-lowercase";
lastChange = "2023-04-04 03:10:28 +0000";
layers = (
{
layerId = m01;
shapes = (
{
closed = 1;
nodes = (
(107,0,l),
(547,500,l),
(471,500,l),
(32,0,l)
);
},
{
pos = (-1,0);
ref = o;
}
);
width = 579;
},
{
layerId = "747A0BA5-337F-45E8-9896-B2CAF0968805";
shapes = (
{
closed = 1;
nodes = (
(148,0,l),
(571,500,l),
(429,500,l),
(7,0,l)
);
},
{
pos = (-5,0);
ref = o;
}
);
width = 578;
}
);
metricLeft = "=o-13";
metricRight = "=o-13";
unicode = 248;
},
{
glyphname = p;
kernLeft = short_lower_case;
kernRight = "round-right-lowercase";
lastChange = "2022-09-05 21:48:09 +0000";
layers = (
{
layerId = m01;
shapes = (
{
closed = 1;
nodes = (
(140,-200,l),
(140,408,l),
(136,500,l),
(80,500,l),
(80,-200,l)
);
},
{
pos = (587,0);
ref = Bowl;
scale = (-1,1);
}
);
width = 587;
},
{
layerId = "747A0BA5-337F-45E8-9896-B2CAF0968805";
shapes = (
{
closed = 1;
nodes = (
(230,-200,l),
(230,408,l),
(220,500,l),
(50,500,l),
(50,-200,l)
);
},
{
pos = (601,0);
ref = Bowl;
scale = (-1,1);
}
);
width = 610;
}
);
metricLeft = "=n+5";
metricRight = o;
unicode = 112;
},
{
glyphname = thorn;
kernRight = "round-right-lowercase";
lastChange = "2022-10-02 05:44:18 +0000";
layers = (
{
layerId = m01;
shapes = (
{
closed = 1;
nodes = (
(135,-200,l),
(135,700,l),
(75,700,l),
(75,-200,l)
);
},
{
pos = (582,0);
ref = Bowl;
scale = (-1,1);
}
);
width = 582;
},
{
layerId = "747A0BA5-337F-45E8-9896-B2CAF0968805";
shapes = (
{
closed = 1;
nodes = (
(225,-200,l),
(225,700,l),
(45,700,l),
(45,-200,l)
);
},
{
pos = (596,0);
ref = Bowl;
scale = (-1,1);
}
);
width = 605;
}
);
metricLeft = l;
metricRight = p;
unicode = 254;
},
{
glyphname = q;
kernLeft = "round-left-lowercase";
lastChange = "2022-09-05 20:47:29 +0000";
layers = (
{
layerId = m01;
shapes = (
{
closed = 1;
nodes = (
(507,-200,l),
(507,500,l),
(450,500,l),
(447,407,l),
(447,-200,l)
);
},
{
ref = Bowl;
}
);
width = 572;
},
{
layerId = "747A0BA5-337F-45E8-9896-B2CAF0968805";
shapes = (
{
closed = 1;
nodes = (
(560,-200,l),
(560,500,l),
(390,500,l),
(380,407,l),
(380,-200,l)
);
},
{
pos = (9,0);
ref = Bowl;
}
);
width = 605;
}
);
metricLeft = o;
metricRight = "=n+5";
unicode = 113;
},
{
glyphname = r;
kernLeft = short_lower_case;
lastChange = "2022-09-05 15:30:14 +0000";
layers = (
{
anchors = (
{
name = bottom;
pos = (127,0);
},
{
name = top;
pos = (155,500);
}
);
layerId = m01;
shapes = (
{
closed = 1;
nodes = (
(135,280,l),
(135,405,o),
(224,447,o),
(312,447,c),
(312,502,l),
(204,502,o),
(100,436,o),
(100,274,c)
);
},
{
closed = 1;
nodes = (
(135,0,l),
(135,500,l),
(75,500,l),
(75,0,l)
);
}
);
width = 322;
},
{
anchors = (
{
name = bottom;
pos = (164,0);
},
{
name = top;
pos = (188,500);
}
);
background = {
shapes = (
{
pos = (183,0);
ref = arch;
}
);
};
layerId = "747A0BA5-337F-45E8-9896-B2CAF0968805";
shapes = (
{
closed = 1;
nodes = (
(225,251,l),
(225,299,o),
(307,326,o),
(402,326,c),
(402,502,l),
(294,502,o),
(183,417,o),
(183,255,c)
);
},
{
closed = 1;
nodes = (
(225,0,l),
(225,500,l),
(45,500,l),
(45,0,l)
);
}
);
width = 417;
}
);
metricLeft = n;
unicode = 114;
},
{
glyphname = s;
kernLeft = short_lower_case;
lastChange = "2023-02-22 13:45:19 +0000";
layers = (
{
anchors = (
{
name = bottom;
pos = (245,0);
},
{
name = top;
pos = (248,500);
}
);
background = {
shapes = (
{
closed = 1;
nodes = (
(353,-12,o),
(419,47,o),
(439,105,c),
(385,125,l),
(363,75,o),
(307,43,o),
(250,43,cs),
(180,43,o),
(123,73,o),
(123,127,cs),
(123,175,o),
(159,204,o),
(230,223,cs),
(279,236,ls),
(368,260,o),
(419,308,o),
(419,366,cs),
(419,458,o),
(359,512,o),
(236,512,cs),
(152,512,o),
(96,466,o),
(62,402,c),
(117,378,l),
(141,428,o),
(179,457,o),
(245,457,cs),
(316,457,o),
(359,425,o),
(359,371,cs),
(359,341,o),
(326,310,o),
(261,293,cs),
(218,282,ls),
(120,257,o),
(63,201,o),
(63,132,cs),
(63,41,o),
(138,-12,o),
(239,-12,cs)
);
}
);
};
guides = (
{
angle = 165.6507;
pos = (453,173);
},
{
angle = 165.6507;
pos = (459,231);
}
);
layerId = m01;
shapes = (
{
closed = 1;
nodes = (
(346,-12,o),
(421,41,o),
(421,132,cs),
(421,201,o),
(364,257,o),
(266,282,cs),
(223,293,ls),
(158,310,o),
(125,341,o),
(125,371,cs),
(125,425,o),
(168,457,o),
(239,457,cs),
(306,457,o),
(346,438,o),
(367,386,c),
(421,409,l),
(396,473,o),
(334,512,o),
(248,512,cs),
(125,512,o),
(65,458,o),
(65,366,cs),
(65,308,o),
(116,260,o),
(205,236,cs),
(254,223,ls),
(325,204,o),
(361,175,o),
(361,127,cs),
(361,73,o),
(304,43,o),
(234,43,cs),
(177,43,o),
(121,75,o),
(99,125,c),
(45,105,l),
(65,47,o),
(131,-12,o),
(245,-12,cs)
);
}
);
width = 466;
},
{
anchors = (
{
name = bottom;
pos = (244,1);
},
{
name = top;
pos = (247,500);
}
);
background = {
shapes = (
{
closed = 1;
nodes = (
(112,512,o),
(21,455,o),
(21,357,cs),
(21,272,o),
(80,214,o),
(169,192,cs),
(210,182,ls),
(250,172,o),
(269,161,o),
(269,145,cs),
(269,130,o),
(256,118,o),
(233,118,cs),
(201,118,o),
(179,129,o),
(169,156,c),
(30,103,l),
(59,35,o),
(118,-12,o),
(236,-12,cs),
(364,-12,o),
(442,46,o),
(442,149,cs),
(442,224,o),
(397,285,o),
(311,306,cs),
(270,316,ls),
(225,327,o),
(204,338,o),
(204,356,cs),
(204,376,o),
(223,386,o),
(249,386,cs),
(267,386,o),
(296,380,o),
(310,346,c),
(461,390,l),
(437,466,o),
(350,512,o),
(249,512,cs)
);
}
);
};
guides = (
{
angle = 165.6507;
pos = (475,115);
},
{
angle = 165.6507;
pos = (471,266);
}
);
layerId = "747A0BA5-337F-45E8-9896-B2CAF0968805";
shapes = (
{
closed = 1;
nodes = (
(373,-12,o),
(466,45,o),
(466,143,cs),
(466,228,o),
(405,286,o),
(314,308,cs),
(273,318,ls),
(233,328,o),
(214,339,o),
(214,355,cs),
(214,370,o),
(227,382,o),
(250,382,cs),
(282,382,o),
(304,371,o),
(314,344,c),
(453,397,l),
(424,465,o),
(365,512,o),
(247,512,cs),
(117,512,o),
(37,454,o),
(37,351,cs),
(37,276,o),
(83,216,o),
(172,194,cs),
(213,184,ls),
(252,174,o),
(270,162,o),
(270,144,cs),
(270,126,o),
(255,117,o),
(234,117,cs),
(214,117,o),
(183,123,o),
(168,159,c),
(25,103,l),
(49,31,o),
(134,-12,o),
(234,-12,cs)
);
}
);
width = 491;
},
{
anchors = (
{
name = bottom;
pos = (238,0);
},
{
name = top;
pos = (248,500);
}
);
associatedMasterId = m01;
attr = {
coordinates = (
660
);
};
background = {
shapes = (
{
closed = 1;
nodes = (
(353,-12,o),
(419,47,o),
(439,105,c),
(385,125,l),
(363,75,o),
(307,43,o),
(250,43,cs),
(180,43,o),
(123,73,o),
(123,127,cs),
(123,175,o),
(159,204,o),
(230,223,cs),
(279,236,ls),
(368,260,o),
(419,308,o),
(419,366,cs),
(419,458,o),
(359,512,o),
(236,512,cs),
(152,512,o),
(96,466,o),
(62,402,c),
(117,378,l),
(141,428,o),
(179,457,o),
(245,457,cs),
(316,457,o),
(359,425,o),
(359,371,cs),
(359,341,o),
(326,310,o),
(261,293,cs),
(218,282,ls),
(120,257,o),
(63,201,o),
(63,132,cs),
(63,41,o),
(138,-12,o),
(239,-12,cs)
);
}
);
};
guides = (
{
angle = 165.6507;
pos = (453,173);
},
{
angle = 165.6507;
pos = (459,231);
}
);
layerId = "A1025244-5C6E-425B-A1D9-F455D6E60CB4";
name = "{660}";
shapes = (
{
closed = 1;
nodes = (
(360,-12,o),
(446,49,o),
(446,140,cs),
(446,202,o),
(408,277,o),
(311,301,cs),
(246,317,ls),
(211,325,o),
(192,336,o),
(192,353,cs),
(192,379,o),
(212,396,o),
(248,396,cs),
(284,396,o),
(327,378,o),
(336,351,c),
(445,401,l),
(423,466,o),
(341,512,o),
(248,512,cs),
(127,512,o),
(58,453,o),
(58,351,cs),
(58,279,o),
(117,220,o),
(213,195,cs),
(259,183,ls),
(292,175,o),
(313,166,o),
(313,142,cs),
(313,118,o),
(288,105,o),
(244,105,cs),
(198,105,o),
(163,132,o),
(143,164,c),
(30,112,l),
(66,32,o),
(147,-12,o),
(244,-12,cs)
);
}
);
width = 466;
}
);
unicode = 115;
},
{
glyphname = germandbls;
lastChange = "2022-10-02 05:47:14 +0000";
layers = (
{
background = {
shapes = (
{
closed = 1;
nodes = (
(201,-1,o),
(247,-12,o),
(270,-12,cs),
(408,-12,o),
(480,60,o),
(480,183,cs),
(480,305,o),
(404,377,o),
(275,377,cs),
(214,377,l),
(214,322,l),
(275,322,ls),
(366,322,o),
(420,270,o),
(420,183,cs),
(420,95,o),
(374,43,o),
(278,43,cs),
(238,43,o),
(219,70,o),
(210,78,c),
(166,40,l)
);
},
{
closed = 1;
nodes = (
(135,0,l),
(135,550,ls),
(135,622,o),
(176,657,o),
(261,657,cs),
(371,657,o),
(405,595,o),
(437,548,c),
(480,596,l),
(452,638,o),
(398,712,o),
(266,712,cs),
(138,712,o),
(75,659,o),
(75,550,cs),
(75,0,l)
);
},
{
closed = 1;
nodes = (
(257,343,l),
(478,595,l),
(435,633,l),
(214,382,l),
(214,343,l)
);
}
);
};
layerId = m01;
shapes = (
{
closed = 1;
nodes = (
(139,0,l),
(139,519,ls),
(139,598,o),
(198,654,o),
(281,654,cs),
(364,654,o),
(422,599,o),
(422,521,cs),
(422,439,o),
(384,389,o),
(248,389,cs),
(244,389,l),
(244,331,l),
(287,331,ls),
(411,331,o),
(485,400,o),
(485,521,cs),
(485,633,o),
(400,712,o),
(281,712,cs),
(160,712,o),
(75,632,o),
(75,519,cs),
(75,0,l)
);
},
{
closed = 1;
nodes = (
(287,0,ls),
(424,0,o),
(505,68,o),
(505,183,cs),
(505,304,o),
(413,377,o),
(260,377,cs),
(244,377,l),
(244,318,l),
(290,318,ls),
(385,318,o),
(442,268,o),
(442,183,cs),
(442,106,o),
(384,59,o),
(287,59,cs),
(239,59,l),
(239,0,l)
);
}
);
width = 555;
},
{
background = {
shapes = (
{
closed = 1;
nodes = (
(225,0,l),
(225,476,ls),
(225,532,o),
(255,560,o),
(304,560,cs),
(343,560,o),
(376,541,o),
(376,502,cs),
(376,459,o),
(348,435,o),
(306,435,cs),
(294,435,l),
(294,294,l),
(330,294,ls),
(470,294,o),
(566,402,o),
(566,499,cs),
(566,646,o),
(469,712,o),
(306,712,cs),
(149,712,o),
(45,638,o),
(45,476,cs),
(45,0,l)
);
},
{
closed = 1;
nodes = (
(352,0,ls),
(494,0,o),
(594,72,o),
(594,202,cs),
(594,357,o),
(508,409,o),
(305,409,cs),
(294,409,l),
(294,276,l),
(330,276,ls),
(372,276,o),
(402,254,o),
(402,221,cs),
(402,191,o),
(374,163,o),
(330,163,cs),
(294,163,l),
(294,0,l)
);
}
);
};
layerId = "747A0BA5-337F-45E8-9896-B2CAF0968805";
shapes = (
{
closed = 1;
nodes = (
(225,0,l),
(225,476,ls),
(225,532,o),
(255,560,o),
(304,560,cs),
(345,560,o),
(379,541,o),
(379,502,cs),
(379,459,o),
(350,435,o),
(306,435,cs),
(294,435,l),
(294,294,l),
(330,294,ls),
(466,294,o),
(559,402,o),
(559,499,cs),
(559,646,o),
(455,712,o),
(306,712,cs),
(149,712,o),
(45,638,o),
(45,476,cs),
(45,0,l)
);
},
{
closed = 1;
nodes = (
(352,0,ls),
(488,0,o),
(584,72,o),
(584,202,cs),
(584,357,o),
(501,409,o),
(305,409,cs),
(294,409,l),
(294,276,l),
(330,276,ls),
(372,276,o),
(402,254,o),
(402,221,cs),
(402,191,o),
(374,163,o),
(330,163,cs),
(294,163,l),
(294,0,l)
);
}
);
width = 609;
}
);
metricLeft = l;
metricRight = B;
unicode = 223;
},
{
glyphname = t;
kernLeft = tall_left_lowercase;
kernRight = t;
lastChange = "2022-10-17 07:00:39 +0000";
layers = (
{
anchors = (
{
name = bottom;
pos = (209,0);
},
{
name = center;
pos = (179,250);
},
{
name = top;
pos = (179,500);
},
{
name = top_caron;
pos = (198,726);
},
{
name = topright;
pos = (347,800);
}
);
layerId = m01;
shapes = (
{
closed = 1;
nodes = (
(281,-12,o),
(302,-8,o),
(338,13,c),
(313,65,l),
(283,45,o),
(272,43,o),
(256,43,cs),
(201,43,o),
(169,74,o),
(169,128,cs),
(169,656,l),
(109,656,l),
(109,128,ls),
(109,39,o),
(164,-12,o),
(256,-12,cs)
);
},
{
closed = 1;
nodes = (
(328,445,l),
(328,500,l),
(20,500,l),
(20,445,l)
);
}
);
width = 368;
},
{
anchors = (
{
name = bottom;
pos = (223,0);
},
{
name = center;
pos = (203,250);
},
{
name = top;
pos = (203,500);
},
{
name = top_caron;
pos = (265,700);
},
{
name = topright;
pos = (395,800);
}
);
layerId = "747A0BA5-337F-45E8-9896-B2CAF0968805";
shapes = (
{
closed = 1;
nodes = (
(315,-12,o),
(369,13,o),
(400,40,c),
(339,170,l),
(330,163,o),
(311,155,o),
(300,155,cs),
(275,155,o),
(265,169,o),
(265,207,cs),
(265,656,l),
(85,656,l),
(85,158,ls),
(85,48,o),
(144,-12,o),
(268,-12,cs)
);
},
{
closed = 1;
nodes = (
(368,350,l),
(368,500,l),
(10,500,l),
(10,350,l)
);
}
);
width = 425;
}
);
metricLeft = "=f-10";
unicode = 116;
},
{
glyphname = tcaron;
kernLeft = tall_left_lowercase;
kernRight = t;
lastChange = "2022-10-17 07:01:38 +0000";
layers = (
{
layerId = m01;
shapes = (
{
ref = t;
},
{
closed = 1;
nodes = (
(287,553,l),
(357,725,l),
(286,725,l),
(231,553,l)
);
}
);
width = 377;
},
{
layerId = "747A0BA5-337F-45E8-9896-B2CAF0968805";
shapes = (
{
alignment = -1;
ref = t;
},
{
closed = 1;
nodes = (
(420,581,l),
(463,700,l),
(313,700,l),
(290,581,l)
);
}
);
width = 454;
}
);
unicode = 357;
},
{
glyphname = u;
kernLeft = short_lower_case;
lastChange = "2023-04-03 06:35:48 +0000";
layers = (
{
anchors = (
{
name = bottom;
pos = (277,0);
},
{
name = ogonek;
pos = (479,0);
},
{
name = top;
pos = (277,500);
},
{
name = topright;
pos = (534,500);
}
);
layerId = m01;
shapes = (
{
closed = 1;
nodes = (
(479,0,l),
(479,500,l),
(419,500,l),
(419,92,l),
(423,0,l)
);
},
{
angle = 180;
pos = (456,500);
ref = arch;
},
{
closed = 1;
nodes = (
(120,244,l),
(120,500,l),
(60,500,l),
(60,244,l)
);
}
);
width = 554;
},
{
anchors = (
{
name = bottom;
pos = (294,0);
},
{
name = ogonek;
pos = (543,0);
},
{
name = top;
pos = (286,500);
},
{
name = topright;
pos = (568,500);
}
);
layerId = "747A0BA5-337F-45E8-9896-B2CAF0968805";
shapes = (
{
closed = 1;
nodes = (
(533,0,l),
(533,500,l),
(353,500,l),
(353,92,l),
(363,0,l)
);
},
{
angle = 180;
pos = (395,500);
ref = arch;
},
{
closed = 1;
nodes = (
(220,244,l),
(220,500,l),
(40,500,l),
(40,244,l)
);
}
);
width = 578;
}
);
metricLeft = "=|n";
metricRight = "=|n";
unicode = 117;
},
{
glyphname = v;
kernLeft = "undercut-left-lowercase";
kernRight = "undercut-right-lowercase";
lastChange = "2022-09-05 20:45:17 +0000";
layers = (
{
layerId = m01;
shapes = (
{
closed = 1;
nodes = (
(285,0,l),
(496,500,l),
(433,500,l),
(223,0,l)
);
},
{
closed = 1;
nodes = (
(282,0,l),
(72,500,l),
(10,500,l),
(221,0,l)
);
}
);
width = 506;
},
{
layerId = "747A0BA5-337F-45E8-9896-B2CAF0968805";
shapes = (
{
closed = 1;
nodes = (
(384,0,l),
(585,500,l),
(399,500,l),
(223,0,l)
);
},
{
closed = 1;
nodes = (
(367,0,l),
(191,500,l),
(5,500,l),
(206,0,l)
);
}
);
width = 590;
}
);
unicode = 118;
},
{
glyphname = w;
kernLeft = "undercut-left-lowercase";
kernRight = "undercut-right-lowercase";
lastChange = "2022-09-05 20:45:09 +0000";
layers = (
{
anchors = (
{
name = top;
pos = (383,500);
}
);
layerId = m01;
shapes = (
{
closed = 1;
nodes = (
(584,0,l),
(754,500,l),
(694,500,l),
(523,0,l)
);
},
{
closed = 1;
nodes = (
(242,0,l),
(413,500,l),
(353,500,l),
(181,0,l)
);
},
{
closed = 1;
nodes = (
(241,0,l),
(70,500,l),
(10,500,l),
(180,0,l)
);
},
{
closed = 1;
nodes = (
(584,0,l),
(413,500,l),
(353,500,l),
(523,0,l)
);
}
);
width = 764;
},
{
anchors = (
{
name = top;
pos = (442,500);
}
);
layerId = "747A0BA5-337F-45E8-9896-B2CAF0968805";
shapes = (
{
closed = 1;
nodes = (
(702,0,l),
(873,500,l),
(689,500,l),
(527,0,l)
);
},
{
closed = 1;
nodes = (
(356,0,l),
(504,500,l),
(353,500,l),
(201,0,l)
);
},
{
closed = 1;
nodes = (
(345,0,l),
(194,500,l),
(10,500,l),
(180,0,l)
);
},
{
closed = 1;
nodes = (
(681,0,l),
(530,500,l),
(379,500,l),
(526,0,l)
);
}
);
width = 883;
}
);
unicode = 119;
},
{
glyphname = x;
kernLeft = x;
kernRight = x;
lastChange = "2022-09-05 20:45:22 +0000";
layers = (
{
annotations = (
{
pos = (261.094,258.046);
text = "y=258";
type = Text;
}
);
layerId = m01;
shapes = (
{
closed = 1;
nodes = (
(84,0,l),
(243,233,l),
(430,500,l),
(358,500,l),
(214,288,l),
(10,0,l)
);
},
{
closed = 1;
nodes = (
(442,0,l),
(240,288,l),
(95,500,l),
(23,500,l),
(212,233,l),
(369,0,l)
);
}
);
width = 452;
},
{
layerId = "747A0BA5-337F-45E8-9896-B2CAF0968805";
shapes = (
{
closed = 1;
nodes = (
(224,0,l),
(363,213,l),
(570,500,l),
(358,500,l),
(216,284,l),
(10,0,l)
);
},
{
closed = 1;
nodes = (
(582,0,l),
(377,284,l),
(235,500,l),
(23,500,l),
(232,213,l),
(369,0,l)
);
}
);
width = 592;
}
);
unicode = 120;
},
{
glyphname = y;
kernLeft = "undercut-left-lowercase";
kernRight = "undercut-right-lowercase";
lastChange = "2022-09-05 20:45:00 +0000";
layers = (
{
anchors = (
{
name = top;
pos = (253,500);
}
);
layerId = m01;
shapes = (
{
closed = 1;
nodes = (
(181,-212,o),
(216,-165,o),
(252,-80,cs),
(497,500,l),
(434,500,l),
(239,39,l),
(182,-97,ls),
(166,-135,o),
(142,-157,o),
(104,-157,cs),
(90,-157,o),
(67,-150,o),
(32,-137,c),
(10,-188,l),
(49,-204,o),
(78,-212,o),
(99,-212,cs)
);
},
{
closed = 1;
nodes = (
(283,0,l),
(266,40,l),
(73,500,l),
(11,500,l),
(222,0,l)
);
}
);
width = 507;
},
{
anchors = (
{
name = top;
pos = (311,500);
}
);
layerId = "747A0BA5-337F-45E8-9896-B2CAF0968805";
shapes = (
{
closed = 1;
nodes = (
(322,-212,o),
(360,-130,o),
(407,-18,cs),
(622,500,l),
(422,500,l),
(287,130,l),
(227,-10,ls),
(216,-36,o),
(195,-45,o),
(174,-45,cs),
(159,-45,o),
(141,-37,o),
(127,-25,c),
(60,-170,l),
(90,-190,o),
(149,-212,o),
(196,-212,cs)
);
},
{
closed = 1;
nodes = (
(410,0,l),
(349,130,l),
(200,500,l),
(0,500,l),
(240,0,l)
);
}
);
width = 622;
}
);
unicode = 121;
},
{
glyphname = z;
kernLeft = short_lower_case;
lastChange = "2023-04-03 06:24:06 +0000";
layers = (
{
anchors = (
{
name = top;
pos = (247,500);
}
);
background = {
shapes = (
{
closed = 1;
nodes = (
(442,459,l),
(442,500,l),
(55,500,l),
(55,459,l)
);
},
{
closed = 1;
nodes = (
(439,0,l),
(439,41,l),
(53,41,l),
(53,0,l)
);
},
{
closed = 1;
nodes = (
(53,41,l),
(91,18,l),
(442,459,l),
(404,481,l)
);
}
);
};
layerId = m01;
shapes = (
{
closed = 1;
nodes = (
(447,0,l),
(447,55,l),
(129,55,l),
(444,451,l),
(444,500,l),
(50,500,l),
(50,445,l),
(364,445,l),
(50,52,l),
(50,0,l)
);
}
);
width = 497;
},
{
anchors = (
{
name = top;
pos = (232,500);
}
);
layerId = "747A0BA5-337F-45E8-9896-B2CAF0968805";
shapes = (
{
closed = 1;
nodes = (
(444,0,l),
(444,144,l),
(242,144,l),
(444,375,l),
(444,500,l),
(20,500,l),
(20,355,l),
(222,355,l),
(20,125,l),
(20,0,l)
);
}
);
width = 464;
}
);
unicode = 122;
},
{
glyphname = a.ss01;
kernLeft = "round-left-lowercase";
lastChange = "2022-10-20 05:53:40 +0000";
layers = (
{
anchors = (
{
name = ogonek;
pos = (507,0);
},
{
name = top;
pos = (282,500);
}
);
guides = (
{
pos = (250,252);
},
{
pos = (242,307);
}
);
layerId = m01;
shapes = (
{
closed = 1;
nodes = (
(507,0,l),
(507,500,l),
(447,500,l),
(447,93,l),
(450,0,l)
);
},
{
ref = Bowl;
}
);
width = 582;
},
{
anchors = (
{
name = ogonek;
pos = (569,0);
},
{
name = top;
pos = (288,500);
}
);
guides = (
{
angle = 180;
pos = (364,294);
}
);
layerId = "747A0BA5-337F-45E8-9896-B2CAF0968805";
shapes = (
{
closed = 1;
nodes = (
(559,0,l),
(559,500,l),
(379,500,l),
(379,93,l),
(388,0,l)
);
},
{
pos = (9,0);
ref = Bowl;
}
);
width = 604;
}
);
metricLeft = d;
metricRight = d;
},
{
glyphname = aogonek.ss01;
kernLeft = "round-left-lowercase";
kernRight = "arch-right-lowercase";
lastChange = "2022-10-20 05:58:10 +0000";
layers = (
{
background = {
anchors = (
{
name = top;
pos = (305,500);
}
);
shapes = (
{
closed = 1;
nodes = (
(437,-212,o),
(466,-204,o),
(505,-188,c),
(483,-137,l),
(448,-150,o),
(425,-157,o),
(411,-157,cs),
(360,-157,o),
(335,-125,o),
(335,-60,cs),
(335,503,l),
(275,503,l),
(275,-60,ls),
(275,-162,o),
(321,-212,o),
(416,-212,cs)
);
}
);
};
layerId = m01;
shapes = (
{
ref = a.ss01;
},
{
pos = (311,0);
ref = ogonekcomb;
}
);
width = 582;
},
{
layerId = "747A0BA5-337F-45E8-9896-B2CAF0968805";
shapes = (
{
ref = a.ss01;
},
{
pos = (344,0);
ref = ogonekcomb;
}
);
width = 604;
}
);
},
{
glyphname = l.ss02;
kernLeft = tall_left_lowercase;
lastChange = "2023-04-04 06:10:38 +0000";
layers = (
{
anchors = (
{
name = bottom;
pos = (202,0);
},
{
name = top;
pos = (105,670);
},
{
name = top_caron;
pos = (137,700);
}
);
layerId = m01;
shapes = (
{
closed = 1;
nodes = (
(227,-12,o),
(248,-8,o),
(284,13,c),
(259,65,l),
(229,45,o),
(218,43,o),
(202,43,cs),
(160,43,o),
(135,74,o),
(135,128,cs),
(135,700,l),
(75,700,l),
(75,128,ls),
(75,39,o),
(123,-12,o),
(202,-12,cs)
);
}
);
width = 284;
},
{
anchors = (
{
name = bottom;
pos = (135,0);
},
{
name = top;
pos = (135,700);
},
{
name = top_caron;
pos = (227,700);
}
);
layerId = "747A0BA5-337F-45E8-9896-B2CAF0968805";
shapes = (
{
closed = 1;
nodes = (
(262,-12,o),
(312,13,o),
(340,40,c),
(279,170,l),
(273,166,o),
(260,160,o),
(253,160,cs),
(233,160,o),
(225,173,o),
(225,207,cs),
(225,700,l),
(45,700,l),
(45,158,ls),
(45,48,o),
(101,-12,o),
(219,-12,cs)
);
}
);
width = 335;
}
);
metricRight = "=t-30";
},
{
glyphname = lslash.ss02;
kernLeft = tall_left_lowercase;
lastChange = "2023-04-04 06:45:36 +0000";
layers = (
{
layerId = m01;
shapes = (
{
closed = 1;
nodes = (
(260,384,l),
(260,442,l),
(20,327,l),
(20,269,l)
);
},
{
pos = (34,0);
ref = l.ss02;
}
);
width = 318;
},
{
layerId = "747A0BA5-337F-45E8-9896-B2CAF0968805";
shapes = (
{
closed = 1;
nodes = (
(290,358,l),
(290,496,l),
(0,342,l),
(0,204,l)
);
},
{
pos = (10,0);
ref = l.ss02;
}
);
width = 350;
}
);
},
{
glyphname = ordfeminine;
lastChange = "2022-10-02 06:01:51 +0000";
layers = (
{
anchors = (
{
name = bottom;
pos = (158,400);
},
{
name = ogonek;
pos = (286,406);
},
{
name = top;
pos = (160,700);
}
);
layerId = m01;
shapes = (
{
closed = 1;
nodes = (
(287,400,l),
(287,563,ls),
(287,656,o),
(242,707,o),
(156,707,cs),
(101,707,o),
(60,683,o),
(33,638,c),
(87,618,l),
(101,642,o),
(121,656,o),
(155,656,cs),
(210,656,o),
(226,621,o),
(228,556,cs),
(233,400,l)
);
},
{
closed = 1;
nodes = (
(216,393,o),
(260,445,o),
(260,528,c),
(228,525,l),
(228,474,o),
(198,440,o),
(150,440,cs),
(113,440,o),
(91,457,o),
(91,485,c),
(91,517,o),
(112,535,o),
(160,535,cs),
(247,535,l),
(247,578,l),
(143,578,ls),
(72,578,o),
(31,544,o),
(31,485,c),
(31,427,o),
(72,393,o),
(143,393,cs)
);
}
);
userData = {
RMXScaler = {
height = 60;
verticalShift = 400;
width = 60;
};
};
width = 329;
},
{
anchors = (
{
name = bottom;
pos = (156,400);
},
{
name = ogonek;
pos = (300,406);
},
{
name = top;
pos = (156,700);
}
);
layerId = "747A0BA5-337F-45E8-9896-B2CAF0968805";
shapes = (
{
closed = 1;
nodes = (
(315,400,l),
(315,570,ls),
(315,650,o),
(255,707,o),
(157,707,cs),
(87,707,o),
(43,674,o),
(14,624,c),
(120,592,l),
(133,607,o),
(140,612,o),
(154,612,cs),
(201,612,o),
(198,581,o),
(199,545,cs),
(201,400,l)
);
},
{
closed = 1;
nodes = (
(188,393,o),
(226,441,o),
(226,528,c),
(195,515,l),
(195,491,o),
(179,476,o),
(155,476,c),
(141,476,o),
(134,480,o),
(134,487,c),
(134,501,o),
(148,510,o),
(172,510,c),
(208,510,l),
(208,576,l),
(124,576,ls),
(56,576,o),
(14,548,o),
(14,485,cs),
(14,425,o),
(55,393,o),
(124,393,cs)
);
}
);
userData = {
RMXScaler = {
height = 60;
verticalShift = 400;
weight = -300;
width = 60;
};
};
width = 343;
}
);
metricLeft = "=a*.7";
metricRight = "=a*.7";
unicode = 170;
userData = {
RMXScaler = {
source = a;
};
};
},
{
glyphname = ordmasculine;
lastChange = "2022-09-05 20:43:01 +0000";
layers = (
{
anchors = (
{
name = bottom;
pos = (182,400);
},
{
name = center;
pos = (182,550);
},
{
name = ogonek;
pos = (323,406);
},
{
name = top;
pos = (182,700);
},
{
name = topright;
pos = (346,700);
}
);
layerId = m01;
shapes = (
{
closed = 1;
nodes = (
(272,393,o),
(335,458,o),
(335,550,cs),
(335,642,o),
(272,707,o),
(183,707,cs),
(94,707,o),
(31,642,o),
(31,550,cs),
(31,458,o),
(94,393,o),
(184,393,cs)
);
},
{
closed = 1;
nodes = (
(130,448,o),
(92,490,o),
(92,550,cs),
(92,610,o),
(130,652,o),
(183,652,cs),
(236,652,o),
(274,610,o),
(274,550,cs),
(274,490,o),
(237,448,o),
(184,448,cs)
);
}
);
userData = {
RMXScaler = {
height = 60;
verticalShift = 400;
width = 60;
};
};
width = 366;
},
{
anchors = (
{
name = bottom;
pos = (176,400);
},
{
name = center;
pos = (176,550);
},
{
name = ogonek;
pos = (321,406);
},
{
name = top;
pos = (176,700);
},
{
name = topright;
pos = (345,700);
}
);
layerId = "747A0BA5-337F-45E8-9896-B2CAF0968805";
shapes = (
{
closed = 1;
nodes = (
(277,393,o),
(345,458,o),
(345,550,cs),
(345,642,o),
(277,707,o),
(179,707,cs),
(82,707,o),
(14,642,o),
(14,550,cs),
(14,458,o),
(83,393,o),
(181,393,cs)
);
},
{
closed = 1;
nodes = (
(155,504,o),
(138,523,o),
(138,550,cs),
(138,577,o),
(155,597,o),
(179,597,cs),
(204,597,o),
(222,577,o),
(222,550,cs),
(222,523,o),
(204,504,o),
(181,504,cs)
);
}
);
userData = {
RMXScaler = {
height = 60;
verticalShift = 400;
weight = -300;
width = 60;
};
};
width = 359;
}
);
metricLeft = "=o*.7";
metricRight = "=|ordmasculine";
unicode = 186;
userData = {
RMXScaler = {
source = o;
};
};
},
{
glyphname = zero;
lastChange = "2022-09-05 14:28:20 +0000";
layers = (
{
background = {
shapes = (
{
closed = 1;
nodes = (
(584,-16,o),
(722,135,o),
(722,350,cs),
(722,564,o),
(584,716,o),
(386,716,cs),
(188,716,o),
(50,565,o),
(50,350,cs),
(50,135,o),
(191,-16,o),
(389,-16,cs)
);
},
{
closed = 1;
nodes = (
(228,42,o),
(114,170,o),
(114,350,cs),
(114,530,o),
(227,658,o),
(386,658,cs),
(545,658,o),
(658,530,o),
(658,350,cs),
(658,170,o),
(547,42,o),
(389,42,cs)
);
}
);
};
layerId = m01;
shapes = (
{
closed = 1;
nodes = (
(477,-12,o),
(588,138,o),
(588,350,cs),
(588,562,o),
(477,712,o),
(319,712,cs),
(161,712,o),
(50,562,o),
(50,350,cs),
(50,138,o),
(161,-12,o),
(319,-12,cs)
);
},
{
closed = 1;
nodes = (
(199,46,o),
(114,172,o),
(114,350,cs),
(114,528,o),
(199,654,o),
(319,654,cs),
(439,654,o),
(524,528,o),
(524,350,cs),
(524,172,o),
(439,46,o),
(319,46,cs)
);
}
);
width = 638;
},
{
layerId = "747A0BA5-337F-45E8-9896-B2CAF0968805";
shapes = (
{
closed = 1;
nodes = (
(504,-12,o),
(630,138,o),
(630,350,cs),
(630,562,o),
(504,712,o),
(325,712,cs),
(149,712,o),
(25,562,o),
(25,350,cs),
(25,138,o),
(150,-12,o),
(327,-12,cs)
);
},
{
closed = 1;
nodes = (
(256,156,o),
(205,236,o),
(205,350,cs),
(205,465,o),
(255,546,o),
(325,546,cs),
(398,546,o),
(450,465,o),
(450,350,cs),
(450,236,o),
(399,156,o),
(327,156,cs)
);
}
);
width = 655;
},
{
associatedMasterId = "747A0BA5-337F-45E8-9896-B2CAF0968805";
layerId = "BE5E8306-7BA2-4AC7-9CC2-2EDC14BD4F44";
name = "16 Jun 21, 22:16";
shapes = (
{
closed = 1;
nodes = (
(558,-16,o),
(695,136,o),
(695,350,cs),
(695,564,o),
(557,716,o),
(362,716,cs),
(168,716,o),
(30,564,o),
(30,350,cs),
(30,136,o),
(168,-16,o),
(364,-16,cs)
);
},
{
closed = 1;
nodes = (
(280,164,o),
(220,241,o),
(220,350,cs),
(220,459,o),
(279,536,o),
(362,536,cs),
(446,536,o),
(505,459,o),
(505,350,cs),
(505,241,o),
(447,164,o),
(364,164,cs)
);
}
);
width = 725;
}
);
metricLeft = O;
metricRight = O;
unicode = 48;
},
{
glyphname = one;
lastChange = "2023-02-22 13:37:03 +0000";
layers = (
{
layerId = m01;
shapes = (
{
closed = 1;
nodes = (
(290,0,l),
(290,700,l),
(230,700,l),
(226,666,l),
(226,0,l)
);
},
{
closed = 1;
nodes = (
(133,536,o),
(204,589,o),
(269,653,c),
(230,700,l),
(182,645,o),
(103,594,o),
(65,594,c),
(65,536,l)
);
}
);
width = 410;
},
{
layerId = "747A0BA5-337F-45E8-9896-B2CAF0968805";
shapes = (
{
closed = 1;
nodes = (
(350,0,l),
(350,700,l),
(194,700,l),
(175,601,l),
(175,0,l)
);
},
{
closed = 1;
nodes = (
(144,429,o),
(234,500,o),
(312,591,c),
(194,702,l),
(153,657,o),
(92,603,o),
(35,609,c),
(35,441,l)
);
}
);
width = 430;
}
);
metricRight = "=I+20";
unicode = 49;
},
{
glyphname = two;
lastChange = "2023-04-03 06:25:36 +0000";
layers = (
{
layerId = m01;
shapes = (
{
closed = 1;
nodes = (
(486,0,l),
(486,58,l),
(124,58,l),
(124,110,o),
(153,158,o),
(212,203,cs),
(365,320,l),
(440,383,o),
(476,447,o),
(476,515,cs),
(475,627,o),
(389,712,o),
(255,712,cs),
(140,712,o),
(53,634,o),
(30,548,c),
(95,534,l),
(113,596,o),
(171,654,o),
(261,654,cs),
(350,654,o),
(411,591,o),
(411,515,cs),
(411,465,o),
(377,406,o),
(324,366,cs),
(164,245,ls),
(94,188,o),
(60,126,o),
(60,58,cs),
(60,0,l)
);
}
);
width = 551;
},
{
layerId = "747A0BA5-337F-45E8-9896-B2CAF0968805";
shapes = (
{
closed = 1;
nodes = (
(567,0,l),
(567,162,l),
(278,162,l),
(302,190,o),
(330,211,o),
(355,227,cs),
(412,264,ls),
(498,320,o),
(560,384,o),
(560,484,cs),
(560,620,o),
(458,713,o),
(289,713,cs),
(136,713,o),
(38,616,o),
(20,508,c),
(211,477,l),
(220,513,o),
(248,543,o),
(289,543,cs),
(346,543,o),
(370,518,o),
(370,482,cs),
(370,443,o),
(319,405,o),
(284,382,cs),
(214,337,ls),
(117,274,o),
(45,182,o),
(45,130,cs),
(45,0,l)
);
}
);
width = 597;
},
{
associatedMasterId = "747A0BA5-337F-45E8-9896-B2CAF0968805";
background = {
shapes = (
{
closed = 1;
nodes = (
(317,411,o),
(346,440,o),
(346,476,cs),
(346,511,o),
(317,540,o),
(282,540,cs),
(246,540,o),
(217,511,o),
(217,476,cs),
(217,440,o),
(246,411,o),
(282,411,cs)
);
}
);
};
layerId = "929CAB2D-CF57-4F54-934C-F0BD16D06C3B";
name = "16 Jun 21, 21:49";
shapes = (
{
closed = 1;
nodes = (
(52,0,l),
(537,0,l),
(537,147,l),
(169,147,l),
(52,160,l)
);
},
{
closed = 1;
nodes = (
(280,148,l),
(431,261,o),
(538,358,o),
(538,462,c),
(538,609,o),
(427,713,o),
(272,713,cs),
(180,713,o),
(80,664,o),
(31,596,c),
(175,484,l),
(208,512,o),
(229,540,o),
(282,540,cs),
(327,540,o),
(348,503,o),
(348,460,c),
(348,409,o),
(259,331,o),
(164,258,c),
(52,160,l),
(162,46,l)
);
}
);
width = 588;
}
);
unicode = 50;
},
{
glyphname = three;
lastChange = "2022-09-05 14:28:20 +0000";
layers = (
{
background = {
shapes = (
{
closed = 1;
nodes = (
(115,584,l),
(139,615,o),
(179,658,o),
(260,658,cs),
(360,658,o),
(425,592,o),
(425,505,cs),
(425,402,o),
(331,347,o),
(189,350,c),
(189,294,l),
(364,294,o),
(489,367,o),
(489,507,cs),
(489,631,o),
(392,716,o),
(264,716,cs),
(169,716,o),
(104,667,o),
(67,624,c)
);
},
{
closed = 1;
nodes = (
(115,21,o),
(176,-15,o),
(262,-15,cs),
(382,-15,o),
(470,67,o),
(470,167,cs),
(470,283,o),
(353,350,o),
(189,350,c),
(189,293,l),
(318,297,o),
(406,249,o),
(406,168,cs),
(406,102,o),
(348,43,o),
(258,43,cs),
(200,43,o),
(155,68,o),
(119,108,c),
(72,73,l)
);
}
);
};
layerId = m01;
shapes = (
{
closed = 1;
nodes = (
(392,-12,o),
(489,72,o),
(489,196,cs),
(489,333,o),
(369,407,o),
(199,407,cs),
(189,407,l),
(189,351,l),
(199,351,ls),
(335,351,o),
(425,299,o),
(425,198,cs),
(425,111,o),
(360,46,o),
(260,46,cs),
(179,46,o),
(139,89,o),
(115,120,c),
(67,80,l),
(104,37,o),
(169,-12,o),
(264,-12,cs)
);
},
{
closed = 1;
nodes = (
(198,351,ls),
(357,351,o),
(470,418,o),
(470,532,cs),
(470,632,o),
(382,712,o),
(262,712,cs),
(178,712,o),
(117,677,o),
(75,627,c),
(119,589,l),
(155,629,o),
(200,654,o),
(258,654,cs),
(348,654,o),
(406,597,o),
(406,531,cs),
(406,452,o),
(323,408,o),
(199,408,cs),
(189,408,l),
(189,351,l)
);
}
);
width = 539;
},
{
background = {
shapes = (
{
closed = 1;
nodes = (
(43,52,o),
(167,-13,o),
(284,-13,cs),
(419,-13,o),
(527,66,o),
(527,185,cs),
(527,321,o),
(375,379,o),
(243,379,cs),
(179,379,l),
(179,272,l),
(243,272,ls),
(319,272,o),
(344,246,o),
(344,205,cs),
(344,170,o),
(317,146,o),
(280,146,cs),
(253,146,o),
(212,157,o),
(202,218,c),
(25,182,l)
);
}
);
};
layerId = "747A0BA5-337F-45E8-9896-B2CAF0968805";
shapes = (
{
closed = 1;
nodes = (
(416,-12,o),
(537,57,o),
(537,186,cs),
(537,310,o),
(394,395,o),
(243,395,cs),
(188,395,l),
(188,278,l),
(250,278,ls),
(342,278,o),
(351,242,o),
(351,212,cs),
(351,172,o),
(325,147,o),
(280,147,cs),
(219,147,o),
(206,194,o),
(198,217,c),
(20,181,l),
(38,53,o),
(150,-12,o),
(292,-12,cs)
);
},
{
closed = 1;
nodes = (
(243,320,ls),
(375,320,o),
(527,378,o),
(527,514,cs),
(527,633,o),
(419,712,o),
(284,712,cs),
(167,712,o),
(43,647,o),
(25,517,c),
(202,481,l),
(212,542,o),
(253,553,o),
(280,553,cs),
(316,553,o),
(342,529,o),
(342,494,cs),
(342,453,o),
(324,427,o),
(250,427,cs),
(188,427,l),
(188,320,l)
);
}
);
width = 567;
}
);
unicode = 51;
},
{
glyphname = four;
lastChange = "2023-04-03 06:28:44 +0000";
layers = (
{
layerId = m01;
shapes = (
{
closed = 1;
nodes = (
(435,0,l),
(435,182,l),
(586,182,l),
(586,241,l),
(435,241,l),
(435,700,l),
(372,700,l),
(50,231,l),
(50,182,l),
(372,182,l),
(372,0,l)
);
},
{
closed = 1;
nodes = (
(372,597,l),
(372,241,l),
(129,241,l)
);
}
);
width = 616;
},
{
layerId = "747A0BA5-337F-45E8-9896-B2CAF0968805";
shapes = (
{
closed = 1;
nodes = (
(512,0,l),
(512,108,l),
(615,108,l),
(615,265,l),
(512,265,l),
(512,700,l),
(312,700,l),
(10,257,l),
(10,108,l),
(338,108,l),
(338,0,l)
);
},
{
closed = 1;
nodes = (
(338,479,l),
(338,265,l),
(192,265,l)
);
}
);
width = 645;
}
);
unicode = 52;
},
{
glyphname = five;
lastChange = "2023-04-03 06:22:02 +0000";
layers = (
{
layerId = m01;
shapes = (
{
closed = 1;
nodes = (
(425,-12,o),
(522,80,o),
(522,212,cs),
(522,344,o),
(427,437,o),
(294,437,cs),
(249,437,o),
(202,422,o),
(163,398,c),
(184,642,l),
(490,642,l),
(490,700,l),
(125,700,l),
(95,335,l),
(153,321,l),
(182,355,o),
(240,381,o),
(294,381,cs),
(392,381,o),
(460,313,o),
(460,212,cs),
(460,112,o),
(390,44,o),
(289,44,cs),
(225,44,o),
(164,72,o),
(110,136,c),
(65,97,l),
(119,20,o),
(212,-12,o),
(289,-12,cs)
);
}
);
width = 572;
},
{
background = {
shapes = (
{
closed = 1;
nodes = (
(203,269,o),
(239,304,o),
(284,304,cs),
(328,304,o),
(363,269,o),
(363,225,cs),
(363,183,o),
(328,150,o),
(284,150,cs),
(239,150,o),
(203,183,o),
(203,225,cs)
);
},
{
closed = 0;
nodes = (
(209,187,l),
(31,151,l)
);
}
);
};
guides = (
{
angle = 83;
pos = (45,274);
}
);
layerId = "747A0BA5-337F-45E8-9896-B2CAF0968805";
shapes = (
{
closed = 1;
nodes = (
(449,-12,o),
(557,90,o),
(557,239,cs),
(557,359,o),
(467,441,o),
(365,444,cs),
(312,445,o),
(269,433,o),
(234,414,c),
(254,532,l),
(515,532,l),
(515,700,l),
(99,700,l),
(49,305,l),
(215,269,l),
(226,289,o),
(248,308,o),
(282,308,cs),
(332,308,o),
(364,271,o),
(364,228,cs),
(364,179,o),
(331,148,o),
(283,148,cs),
(251,148,o),
(220,161,o),
(209,189,c),
(30,153,l),
(58,49,o),
(186,-12,o),
(296,-12,cs)
);
}
);
width = 587;
},
{
associatedMasterId = "747A0BA5-337F-45E8-9896-B2CAF0968805";
background = {
shapes = (
{
closed = 1;
nodes = (
(314,150,o),
(344,180,o),
(344,217,cs),
(344,253,o),
(314,283,o),
(278,283,cs),
(241,283,o),
(211,253,o),
(211,217,cs),
(211,180,o),
(241,150,o),
(278,150,cs)
);
}
);
};
layerId = "28C4825A-2F02-4BC9-AE4A-319046E5176A";
name = "16 Jun 21, 21:37";
shapes = (
{
closed = 1;
nodes = (
(100,33,o),
(204,-16,o),
(292,-16,cs),
(436,-16,o),
(537,78,o),
(537,210,cs),
(537,343,o),
(438,437,o),
(298,437,cs),
(219,437,o),
(122,382,o),
(63,304,c),
(243,297,l),
(276,694,l),
(88,694,l),
(120,537,l),
(504,537,l),
(504,700,l),
(88,700,l),
(56,305,l),
(219,251,l),
(230,270,o),
(256,283,o),
(281,283,cs),
(318,283,o),
(344,256,o),
(344,217,cs),
(344,178,o),
(318,150,o),
(281,150,cs),
(253,150,o),
(226,166,o),
(216,188,c),
(40,103,l)
);
}
);
width = 567;
}
);
unicode = 53;
},
{
glyphname = six;
lastChange = "2022-09-05 14:28:20 +0000";
layers = (
{
background = {
shapes = (
{
closed = 0;
nodes = (
(65,211,l),
(65,78,o),
(162,-16,o),
(298,-16,cs)
);
}
);
};
layerId = m01;
shapes = (
{
closed = 1;
nodes = (
(434,-12,o),
(530,80,o),
(530,213,cs),
(530,345,o),
(434,437,o),
(298,437,cs),
(199,437,o),
(122,384,o),
(90,300,c),
(104,283,l),
(94,531,o),
(173,654,o),
(321,654,cs),
(369,654,o),
(422,636,o),
(465,605,c),
(504,650,l),
(451,689,o),
(379,712,o),
(311,712,cs),
(157,712,o),
(48,583,o),
(48,334,cs),
(48,150,o),
(102,-12,o),
(298,-12,cs)
);
},
{
closed = 1;
nodes = (
(199,46,o),
(129,114,o),
(129,213,cs),
(129,311,o),
(199,379,o),
(298,379,cs),
(396,379,o),
(466,311,o),
(466,213,cs),
(466,114,o),
(396,46,o),
(298,46,cs)
);
}
);
width = 560;
},
{
layerId = "747A0BA5-337F-45E8-9896-B2CAF0968805";
shapes = (
{
closed = 1;
nodes = (
(462,-12,o),
(563,85,o),
(563,214,cs),
(563,348,o),
(469,457,o),
(337,457,cs),
(256,457,o),
(197,412,o),
(166,346,c),
(203,327,l),
(203,487,o),
(257,551,o),
(330,551,cs),
(363,551,o),
(413,541,o),
(454,514,c),
(541,650,l),
(483,690,o),
(410,712,o),
(332,712,cs),
(100,712,o),
(30,498,o),
(30,305,cs),
(30,124,o),
(116,-12,o),
(299,-12,cs)
);
},
{
closed = 1;
nodes = (
(255,142,o),
(219,178,o),
(219,224,cs),
(219,271,o),
(255,310,o),
(300,310,cs),
(344,310,o),
(379,271,o),
(379,224,cs),
(379,178,o),
(344,142,o),
(300,142,cs)
);
}
);
width = 593;
},
{
associatedMasterId = "747A0BA5-337F-45E8-9896-B2CAF0968805";
background = {
shapes = (
{
closed = 0;
nodes = (
(53,217,l),
(53,91,o),
(170,-16,o),
(309,-16,cs)
);
}
);
};
layerId = "B53FA7EA-42AA-40C9-BF76-8CE3E8D46E84";
name = "16 Jun 21, 20:24";
shapes = (
{
closed = 1;
nodes = (
(447,-16,o),
(564,91,o),
(564,217,cs),
(564,343,o),
(454,450,o),
(323,450,cs),
(223,450,o),
(129,343,o),
(119,217,c),
(56,180,l),
(76,74,o),
(180,-16,o),
(309,-16,cs)
);
},
{
closed = 1;
nodes = (
(272,151,o),
(243,180,o),
(243,217,cs),
(243,253,o),
(272,282,o),
(309,282,cs),
(345,282,o),
(374,253,o),
(374,217,cs),
(374,180,o),
(345,151,o),
(309,151,cs)
);
},
{
closed = 1;
nodes = (
(206,195,l),
(188,421,o),
(245,554,o),
(359,554,cs),
(383,554,o),
(417,542,o),
(450,523,c),
(542,652,l),
(489,691,o),
(417,714,o),
(349,714,cs),
(142,714,o),
(38,543,o),
(38,335,cs),
(38,285,o),
(38,236,o),
(56,180,c)
);
}
);
width = 594;
},
{
associatedMasterId = m01;
background = {
shapes = (
{
closed = 0;
nodes = (
(65,211,l),
(65,78,o),
(162,-16,o),
(298,-16,cs)
);
}
);
};
layerId = "EA0B3C30-4F11-4A04-AE54-5020CFB11B9D";
name = "16 Jun 21, 21:24";
shapes = (
{
closed = 1;
nodes = (
(434,-16,o),
(530,78,o),
(530,211,cs),
(530,343,o),
(434,437,o),
(298,437,cs),
(167,437,o),
(75,343,o),
(75,211,c),
(69,163,l),
(95,51,o),
(180,-16,o),
(298,-16,cs)
);
},
{
closed = 1;
nodes = (
(199,42,o),
(129,112,o),
(129,211,cs),
(129,309,o),
(199,379,o),
(298,379,cs),
(396,379,o),
(466,309,o),
(466,211,cs),
(466,112,o),
(396,42,o),
(298,42,cs)
);
},
{
closed = 1;
nodes = (
(114,171,l),
(72,477,o),
(154,658,o),
(321,658,cs),
(369,658,o),
(422,640,o),
(465,609,c),
(504,654,l),
(451,693,o),
(379,716,o),
(311,716,cs),
(143,716,o),
(48,573,o),
(48,334,cs),
(48,281,o),
(52,224,o),
(69,163,c)
);
}
);
width = 560;
}
);
unicode = 54;
},
{
glyphname = seven;
lastChange = "2022-09-05 14:28:20 +0000";
layers = (
{
layerId = m01;
shapes = (
{
closed = 1;
nodes = (
(148,0,l),
(500,642,l),
(446,672,l),
(77,0,l)
);
},
{
closed = 1;
nodes = (
(463,642,l),
(500,642,l),
(500,700,l),
(45,700,l),
(45,642,l)
);
}
);
width = 530;
},
{
layerId = "747A0BA5-337F-45E8-9896-B2CAF0968805";
shapes = (
{
closed = 1;
nodes = (
(309,0,l),
(543,570,l),
(337,530,l),
(104,0,l)
);
},
{
closed = 1;
nodes = (
(337,530,l),
(543,570,l),
(543,700,l),
(25,700,l),
(25,530,l)
);
}
);
width = 573;
}
);
unicode = 55;
},
{
glyphname = eight;
lastChange = "2022-09-05 14:28:20 +0000";
layers = (
{
layerId = m01;
shapes = (
{
closed = 1;
nodes = (
(452,-12,o),
(555,67,o),
(555,182,cs),
(555,301,o),
(452,384,o),
(307,384,cs),
(162,384,o),
(60,301,o),
(60,182,cs),
(60,67,o),
(162,-12,o),
(307,-12,cs)
);
},
{
closed = 1;
nodes = (
(200,46,o),
(124,103,o),
(124,186,cs),
(124,270,o),
(200,327,o),
(307,327,cs),
(415,327,o),
(491,270,o),
(491,186,cs),
(491,103,o),
(415,46,o),
(307,46,cs)
);
},
{
closed = 1;
nodes = (
(436,337,o),
(528,412,o),
(528,522,cs),
(528,634,o),
(436,712,o),
(307,712,cs),
(178,712,o),
(87,634,o),
(87,522,cs),
(87,412,o),
(178,337,o),
(307,337,cs)
);
},
{
closed = 1;
nodes = (
(216,394,o),
(151,444,o),
(151,517,cs),
(151,598,o),
(216,654,o),
(307,654,cs),
(399,654,o),
(464,598,o),
(464,517,cs),
(464,444,o),
(399,394,o),
(307,394,cs)
);
}
);
width = 615;
},
{
layerId = "747A0BA5-337F-45E8-9896-B2CAF0968805";
shapes = (
{
closed = 1;
nodes = (
(489,-12,o),
(580,67,o),
(580,182,cs),
(580,309,o),
(489,397,o),
(304,396,cs),
(119,397,o),
(30,309,o),
(30,182,cs),
(30,67,o),
(119,-12,o),
(304,-12,cs)
);
},
{
closed = 1;
nodes = (
(255,140,o),
(220,169,o),
(220,209,cs),
(220,257,o),
(255,290,o),
(304,290,cs),
(354,290,o),
(390,257,o),
(390,209,cs),
(390,169,o),
(354,140,o),
(304,140,cs)
);
},
{
closed = 1;
nodes = (
(470,337,o),
(560,412,o),
(560,522,cs),
(560,634,o),
(470,712,o),
(304,712,cs),
(138,712,o),
(50,634,o),
(50,522,cs),
(50,412,o),
(138,337,o),
(304,337,cs)
);
},
{
closed = 1;
nodes = (
(260,427,o),
(230,457,o),
(230,499,cs),
(230,539,o),
(260,567,o),
(304,567,cs),
(348,567,o),
(380,539,o),
(380,499,cs),
(380,457,o),
(348,427,o),
(304,427,cs)
);
}
);
width = 610;
}
);
unicode = 56;
},
{
glyphname = zero.ss02;
lastChange = "2023-04-04 06:59:16 +0000";
layers = (
{
background = {
shapes = (
{
closed = 1;
nodes = (
(584,-16,o),
(722,135,o),
(722,350,cs),
(722,564,o),
(584,716,o),
(386,716,cs),
(188,716,o),
(50,565,o),
(50,350,cs),
(50,135,o),
(191,-16,o),
(389,-16,cs)
);
},
{
closed = 1;
nodes = (
(228,42,o),
(114,170,o),
(114,350,cs),
(114,530,o),
(227,658,o),
(386,658,cs),
(545,658,o),
(658,530,o),
(658,350,cs),
(658,170,o),
(547,42,o),
(389,42,cs)
);
}
);
};
layerId = m01;
shapes = (
{
closed = 1;
nodes = (
(477,-12,o),
(588,138,o),
(588,350,cs),
(588,562,o),
(477,712,o),
(319,712,cs),
(161,712,o),
(50,562,o),
(50,350,cs),
(50,138,o),
(161,-12,o),
(319,-12,cs)
);
},
{
closed = 1;
nodes = (
(199,46,o),
(114,172,o),
(114,350,cs),
(114,528,o),
(199,654,o),
(319,654,cs),
(439,654,o),
(524,528,o),
(524,350,cs),
(524,172,o),
(439,46,o),
(319,46,cs)
);
},
{
closed = 1;
nodes = (
(166,125,l),
(521,529,l),
(483,576,l),
(118,159,l)
);
}
);
width = 638;
},
{
guides = (
{
pos = (325,546);
},
{
pos = (328,154);
}
);
layerId = "747A0BA5-337F-45E8-9896-B2CAF0968805";
shapes = (
{
closed = 1;
nodes = (
(504,-12,o),
(630,138,o),
(630,350,cs),
(630,562,o),
(504,712,o),
(325,712,cs),
(149,712,o),
(25,562,o),
(25,350,cs),
(25,138,o),
(150,-12,o),
(327,-12,cs)
);
},
{
closed = 1;
nodes = (
(256,156,o),
(205,236,o),
(205,350,cs),
(205,465,o),
(255,546,o),
(325,546,cs),
(398,546,o),
(450,465,o),
(450,350,cs),
(450,236,o),
(399,156,o),
(327,156,cs)
);
},
{
closed = 1;
nodes = (
(233,154,l),
(570,546,l),
(418,546,l),
(82,154,l)
);
}
);
width = 655;
},
{
associatedMasterId = "747A0BA5-337F-45E8-9896-B2CAF0968805";
layerId = "BE5E8306-7BA2-4AC7-9CC2-2EDC14BD4F44";
name = "16 Jun 21, 22:16";
shapes = (
{
closed = 1;
nodes = (
(558,-16,o),
(695,136,o),
(695,350,cs),
(695,564,o),
(557,716,o),
(362,716,cs),
(168,716,o),
(30,564,o),
(30,350,cs),
(30,136,o),
(168,-16,o),
(364,-16,cs)
);
},
{
closed = 1;
nodes = (
(280,164,o),
(220,241,o),
(220,350,cs),
(220,459,o),
(279,536,o),
(362,536,cs),
(446,536,o),
(505,459,o),
(505,350,cs),
(505,241,o),
(447,164,o),
(364,164,cs)
);
}
);
width = 725;
}
);
metricLeft = O;
metricRight = O;
},
{
glyphname = one.tf;
lastChange = "2022-09-05 20:43:01 +0000";
layers = (
{
layerId = m01;
shapes = (
{
closed = 1;
nodes = (
(529,0,l),
(529,57,l),
(150,57,l),
(150,0,l)
);
},
{
alignment = -1;
pos = (85,0);
ref = one;
}
);
width = 620;
},
{
layerId = "747A0BA5-337F-45E8-9896-B2CAF0968805";
shapes = (
{
closed = 1;
nodes = (
(586,0,l),
(586,162,l),
(131,162,l),
(131,0,l)
);
},
{
alignment = -1;
pos = (96,0);
ref = one;
}
);
width = 640;
}
);
},
{
glyphname = four.tf;
lastChange = "2022-09-05 20:43:01 +0000";
layers = (
{
layerId = m01;
shapes = (
{
closed = 1;
nodes = (
(419,663,l),
(374,700,l),
(52,231,l),
(101,197,l)
);
},
{
closed = 1;
nodes = (
(588,182,l),
(588,241,l),
(97,241,l),
(52,231,l),
(52,182,l)
);
},
{
closed = 1;
nodes = (
(437,0,l),
(437,700,l),
(374,700,l),
(374,654,l),
(374,0,l)
);
}
);
width = 620;
},
{
layerId = "747A0BA5-337F-45E8-9896-B2CAF0968805";
shapes = (
{
closed = 1;
nodes = (
(413,597,l),
(309,700,l),
(12,257,l),
(142,191,l)
);
},
{
closed = 1;
nodes = (
(607,108,l),
(607,265,l),
(108,265,l),
(12,257,l),
(12,108,l)
);
},
{
closed = 1;
nodes = (
(506,0,l),
(506,700,l),
(310,700,l),
(334,605,l),
(334,0,l)
);
}
);
width = 640;
}
);
},
{
glyphname = zero.tf.ss02;
lastChange = "2023-04-04 06:59:30 +0000";
layers = (
{
layerId = m01;
shapes = (
{
alignment = -1;
pos = (-9,0);
ref = zero;
},
{
closed = 1;
nodes = (
(157,125,l),
(512,529,l),
(474,576,l),
(109,159,l)
);
}
);
width = 620;
},
{
layerId = "747A0BA5-337F-45E8-9896-B2CAF0968805";
shapes = (
{
alignment = -1;
pos = (-8,0);
ref = zero;
},
{
closed = 1;
nodes = (
(233,154,l),
(570,546,l),
(418,546,l),
(82,154,l)
);
}
);
width = 640;
}
);
},
{
glyphname = zero.numr;
lastChange = "2022-10-03 03:31:55 +0000";
layers = (
{
layerId = m01;
shapes = (
{
closed = 1;
nodes = (
(302,273,o),
(371,362,o),
(371,490,cs),
(371,619,o),
(302,707,o),
(203,707,cs),
(104,707,o),
(35,619,o),
(35,490,cs),
(35,362,o),
(105,273,o),
(204,273,cs)
);
},
{
closed = 1;
nodes = (
(142,330,o),
(98,396,o),
(98,490,cs),
(98,585,o),
(142,651,o),
(203,651,cs),
(266,651,o),
(310,585,o),
(310,490,cs),
(310,396,o),
(266,330,o),
(204,330,cs)
);
}
);
userData = {
RMXScaler = {
height = 60;
verticalShift = 280;
width = 60;
};
};
width = 406;
},
{
layerId = "747A0BA5-337F-45E8-9896-B2CAF0968805";
shapes = (
{
closed = 1;
nodes = (
(312,273,o),
(388,361,o),
(388,490,cs),
(388,619,o),
(311,707,o),
(202,707,cs),
(95,707,o),
(18,619,o),
(18,490,cs),
(18,361,o),
(95,273,o),
(203,273,cs)
);
},
{
closed = 1;
nodes = (
(168,385,o),
(144,429,o),
(144,490,cs),
(144,552,o),
(168,597,o),
(202,597,cs),
(241,597,o),
(268,552,o),
(268,490,cs),
(268,428,o),
(241,385,o),
(203,385,cs)
);
}
);
userData = {
RMXScaler = {
height = 60;
verticalShift = 280;
weight = -300;
width = 60;
};
};
width = 406;
}
);
metricLeft = "=zero*.7";
metricRight = "=zero*.7";
userData = {
RMXScaler = {
source = zero;
};
};
},
{
glyphname = one.numr;
lastChange = "2023-02-22 13:37:34 +0000";
layers = (
{
guides = (
{
pos = (15,280);
},
{
pos = (17,706);
}
);
layerId = m01;
shapes = (
{
closed = 1;
nodes = (
(198,280,l),
(198,700,l),
(143,700,l),
(137,667,l),
(137,280,l)
);
},
{
closed = 1;
nodes = (
(91,580,o),
(137,612,o),
(182,659,c),
(143,700,l),
(112,666,o),
(70,639,o),
(45,639,c),
(45,583,l)
);
}
);
userData = {
RMXScaler = {
height = 60;
verticalShift = 280;
width = 60;
};
};
width = 282;
},
{
layerId = "747A0BA5-337F-45E8-9896-B2CAF0968805";
shapes = (
{
closed = 1;
nodes = (
(223,280,l),
(223,700,l),
(120,700,l),
(107,634,l),
(107,280,l)
);
},
{
closed = 1;
nodes = (
(87,528,o),
(141,560,o),
(199,628,c),
(120,701,l),
(91,670,o),
(58,643,o),
(25,647,c),
(25,535,l)
);
}
);
userData = {
RMXScaler = {
height = 60;
verticalShift = 280;
weight = -300;
width = 60;
};
};
width = 279;
}
);
metricLeft = "=one*.7";
metricRight = "=one*.7";
userData = {
RMXScaler = {
source = one;
};
};
},
{
glyphname = two.numr;
lastChange = "2022-10-03 03:31:55 +0000";
layers = (
{
guides = (
{
pos = (4,280);
},
{
pos = (4,706);
}
);
layerId = m01;
shapes = (
{
closed = 1;
nodes = (
(102,350,o),
(127,382,o),
(158,405,cs),
(233,461,l),
(281,498,o),
(307,535,o),
(307,583,cs),
(307,655,o),
(252,707,o),
(165,707,cs),
(89,707,o),
(34,657,o),
(21,601,c),
(85,589,l),
(94,620,o),
(122,650,o),
(167,650,cs),
(214,650,o),
(243,620,o),
(243,582,cs),
(243,554,o),
(219,523,o),
(191,503,c),
(113,445,l),
(66,410,o),
(38,367,o),
(38,329,c),
(100,323,l)
);
},
{
closed = 1;
nodes = (
(313,280,l),
(313,336,l),
(85,336,l),
(38,329,l),
(38,280,l)
);
}
);
userData = {
RMXScaler = {
height = 60;
verticalShift = 280;
width = 60;
};
};
width = 359;
},
{
layerId = "747A0BA5-337F-45E8-9896-B2CAF0968805";
shapes = (
{
closed = 1;
nodes = (
(156,357,o),
(194,395,o),
(220,411,cs),
(255,433,ls),
(307,466,o),
(347,502,o),
(347,567,cs),
(347,651,o),
(285,708,o),
(180,708,cs),
(85,708,o),
(24,648,o),
(14,581,c),
(141,561,l),
(146,581,o),
(161,595,o),
(179,595,cs),
(210,595,o),
(221,583,o),
(221,566,cs),
(221,544,o),
(190,524,o),
(169,511,cs),
(137,491,ls),
(76,453,o),
(29,394,o),
(29,365,c),
(150,345,l)
);
},
{
closed = 1;
nodes = (
(351,280,l),
(351,388,l),
(120,388,l),
(29,365,l),
(29,280,l)
);
}
);
userData = {
RMXScaler = {
height = 60;
verticalShift = 280;
weight = -300;
width = 60;
};
};
width = 372;
}
);
metricLeft = "=two*.7";
metricRight = "=two*.7";
userData = {
RMXScaler = {
source = two;
};
};
},
{
glyphname = three.numr;
lastChange = "2022-10-03 03:31:55 +0000";
layers = (
{
guides = (
{
pos = (13,280);
},
{
pos = (13,706);
}
);
layerId = m01;
shapes = (
{
closed = 1;
nodes = (
(256,273,o),
(319,320,o),
(319,396,cs),
(319,475,o),
(243,522,o),
(144,522,cs),
(129,522,l),
(129,476,l),
(146,476,ls),
(218,476,o),
(256,448,o),
(256,402,cs),
(256,359,o),
(225,328,o),
(176,328,cs),
(139,328,o),
(118,346,o),
(102,371,c),
(47,348,l),
(64,308,o),
(111,273,o),
(180,273,cs)
);
},
{
closed = 1;
nodes = (
(144,484,ls),
(234,484,o),
(310,523,o),
(310,596,cs),
(310,659,o),
(253,707,o),
(178,707,cs),
(120,707,o),
(72,680,o),
(51,634,c),
(104,612,l),
(121,640,o),
(147,652,o),
(175,652,cs),
(219,652,o),
(247,624,o),
(247,591,cs),
(247,551,o),
(209,529,o),
(146,529,cs),
(129,529,l),
(129,484,l)
);
}
);
userData = {
RMXScaler = {
height = 60;
verticalShift = 280;
width = 60;
};
};
width = 354;
},
{
layerId = "747A0BA5-337F-45E8-9896-B2CAF0968805";
shapes = (
{
closed = 1;
nodes = (
(259,273,o),
(334,313,o),
(334,391,cs),
(334,464,o),
(245,516,o),
(157,516,cs),
(119,516,l),
(119,440,l),
(162,440,ls),
(213,440,o),
(210,419,o),
(210,409,cs),
(210,389,o),
(197,378,o),
(177,378,cs),
(142,378,o),
(137,407,o),
(134,420,c),
(14,399,l),
(23,313,o),
(96,273,o),
(185,273,cs)
);
},
{
closed = 1;
nodes = (
(157,469,ls),
(233,469,o),
(329,503,o),
(329,587,cs),
(329,660,o),
(261,707,o),
(179,707,cs),
(106,707,o),
(25,665,o),
(17,579,c),
(136,558,l),
(139,592,o),
(159,602,o),
(177,602,cs),
(193,602,o),
(206,590,o),
(206,573,cs),
(206,552,o),
(201,538,o),
(162,538,cs),
(119,538,l),
(119,469,l)
);
}
);
userData = {
RMXScaler = {
height = 60;
verticalShift = 280;
weight = -300;
width = 60;
};
};
width = 355;
}
);
metricLeft = "=three*.7";
metricRight = "=three*.7";
userData = {
RMXScaler = {
source = three;
};
};
},
{
glyphname = four.numr;
lastChange = "2022-10-03 03:31:55 +0000";
layers = (
{
guides = (
{
pos = (9,280);
}
);
layerId = m01;
shapes = (
{
closed = 1;
nodes = (
(263,665,l),
(224,700,l),
(35,424,l),
(81,397,l)
);
},
{
closed = 1;
nodes = (
(370,374,l),
(370,429,l),
(73,429,l),
(35,424,l),
(35,374,l)
);
},
{
closed = 1;
nodes = (
(289,280,l),
(289,700,l),
(224,700,l),
(229,663,l),
(229,280,l)
);
}
);
userData = {
RMXScaler = {
height = 60;
verticalShift = 280;
width = 60;
};
};
width = 391;
},
{
layerId = "747A0BA5-337F-45E8-9896-B2CAF0968805";
shapes = (
{
closed = 1;
nodes = (
(256,632,l),
(186,700,l),
(7,437,l),
(95,394,l)
);
},
{
closed = 1;
nodes = (
(377,337,l),
(377,441,l),
(71,441,l),
(7,437,l),
(7,337,l)
);
},
{
closed = 1;
nodes = (
(320,280,l),
(320,700,l),
(187,700,l),
(204,638,l),
(204,280,l)
);
}
);
userData = {
RMXScaler = {
height = 60;
verticalShift = 280;
weight = -300;
width = 60;
};
};
width = 398;
}
);
metricLeft = "=four*.7";
metricRight = "=four*.7";
userData = {
RMXScaler = {
source = four;
};
};
},
{
glyphname = five.numr;
lastChange = "2022-10-03 03:31:55 +0000";
layers = (
{
layerId = m01;
shapes = (
{
closed = 1;
nodes = (
(273,273,o),
(334,330,o),
(334,413,cs),
(334,489,o),
(278,544,o),
(204,544,cs),
(146,544,o),
(97,507,o),
(78,475,c),
(119,471,l),
(146,698,l),
(84,698,l),
(90,643,l),
(313,643,l),
(313,700,l),
(84,700,l),
(62,475,l),
(118,462,l),
(132,480,o),
(160,494,o),
(188,494,cs),
(237,494,o),
(271,459,o),
(271,410,cs),
(271,361,o),
(236,327,o),
(186,327,cs),
(154,327,o),
(124,341,o),
(100,372,c),
(46,349,l),
(73,298,o),
(135,273,o),
(188,273,cs)
);
}
);
userData = {
RMXScaler = {
height = 60;
verticalShift = 280;
width = 60;
};
};
width = 369;
},
{
layerId = "747A0BA5-337F-45E8-9896-B2CAF0968805";
shapes = (
{
closed = 1;
nodes = (
(278,273,o),
(344,335,o),
(344,426,cs),
(344,497,o),
(291,545,o),
(233,547,cs),
(139,550,o),
(96,482,o),
(89,460,c),
(139,445,l),
(185,696,l),
(63,696,l),
(86,588,l),
(318,588,l),
(318,700,l),
(63,700,l),
(31,460,l),
(142,436,l),
(148,450,o),
(159,458,o),
(175,458,cs),
(200,458,o),
(215,438,o),
(215,418,cs),
(215,394,o),
(199,379,o),
(176,379,cs),
(159,379,o),
(144,386,o),
(142,399,c),
(21,377,l),
(35,312,o),
(117,273,o),
(185,273,cs)
);
}
);
userData = {
RMXScaler = {
height = 60;
verticalShift = 280;
weight = -300;
width = 60;
};
};
width = 365;
}
);
metricLeft = "=five*.7";
metricRight = "=five*.7";
userData = {
RMXScaler = {
source = five;
};
};
},
{
glyphname = six.numr;
lastChange = "2022-10-03 03:31:55 +0000";
layers = (
{
layerId = m01;
shapes = (
{
closed = 1;
nodes = (
(274,273,o),
(333,329,o),
(333,408,cs),
(333,487,o),
(276,546,o),
(195,546,cs),
(140,546,o),
(97,516,o),
(78,469,c),
(91,459,l),
(87,590,o),
(130,652,o),
(203,652,cs),
(227,652,o),
(260,643,o),
(286,625,c),
(319,670,l),
(286,694,o),
(240,707,o),
(199,707,cs),
(92,707,o),
(34,613,o),
(34,475,cs),
(34,365,o),
(73,273,o),
(187,273,cs)
);
},
{
closed = 1;
nodes = (
(139,327,o),
(104,361,o),
(104,410,cs),
(104,459,o),
(139,494,o),
(188,494,cs),
(236,494,o),
(271,459,o),
(271,410,cs),
(271,361,o),
(236,327,o),
(188,327,cs)
);
}
);
userData = {
RMXScaler = {
height = 60;
verticalShift = 280;
width = 60;
};
};
width = 354;
},
{
layerId = "747A0BA5-337F-45E8-9896-B2CAF0968805";
shapes = (
{
closed = 1;
nodes = (
(285,273,o),
(346,332,o),
(346,409,cs),
(346,488,o),
(290,556,o),
(211,556,cs),
(165,556,o),
(131,531,o),
(112,492,c),
(137,481,l),
(137,568,o),
(168,600,o),
(204,600,cs),
(222,600,o),
(252,595,o),
(276,579,c),
(333,670,l),
(298,694,o),
(254,707,o),
(206,707,cs),
(59,707,o),
(21,570,o),
(21,460,cs),
(21,352,o),
(76,273,o),
(184,273,cs)
);
},
{
closed = 1;
nodes = (
(164,375,o),
(145,393,o),
(145,416,cs),
(145,439,o),
(164,459,o),
(185,459,cs),
(206,459,o),
(224,438,o),
(224,416,cs),
(224,394,o),
(206,375,o),
(185,375,cs)
);
}
);
userData = {
RMXScaler = {
height = 60;
verticalShift = 280;
weight = -300;
width = 60;
};
};
width = 367;
}
);
metricLeft = "=six*.7";
metricRight = "=six*.7";
userData = {
RMXScaler = {
source = six;
};
};
},
{
glyphname = seven.numr;
lastChange = "2022-10-03 03:31:55 +0000";
layers = (
{
layerId = m01;
shapes = (
{
closed = 1;
nodes = (
(129,280,l),
(317,651,l),
(254,655,l),
(60,280,l)
);
},
{
closed = 1;
nodes = (
(261,643,l),
(317,651,l),
(317,700,l),
(31,700,l),
(31,643,l)
);
}
);
userData = {
RMXScaler = {
height = 60;
verticalShift = 280;
width = 60;
};
};
width = 338;
},
{
layerId = "747A0BA5-337F-45E8-9896-B2CAF0968805";
shapes = (
{
closed = 1;
nodes = (
(207,280,l),
(335,615,l),
(196,587,l),
(70,280,l)
);
},
{
closed = 1;
nodes = (
(196,587,l),
(335,615,l),
(335,700,l),
(18,700,l),
(18,587,l)
);
}
);
userData = {
RMXScaler = {
height = 60;
verticalShift = 280;
weight = -300;
width = 60;
};
};
width = 356;
}
);
metricLeft = "=seven*.7";
metricRight = "=seven*.7";
userData = {
RMXScaler = {
source = seven;
};
};
},
{
glyphname = eight.numr;
lastChange = "2022-10-03 03:31:55 +0000";
layers = (
{
layerId = m01;
shapes = (
{
closed = 1;
nodes = (
(290,273,o),
(350,320,o),
(350,389,cs),
(350,462,o),
(290,513,o),
(196,513,cs),
(101,513,o),
(42,462,o),
(42,389,cs),
(42,320,o),
(101,273,o),
(196,273,cs)
);
},
{
closed = 1;
nodes = (
(143,326,o),
(106,355,o),
(106,396,cs),
(106,439,o),
(143,469,o),
(196,469,cs),
(249,469,o),
(286,439,o),
(286,396,cs),
(286,355,o),
(248,326,o),
(196,326,cs)
);
},
{
closed = 1;
nodes = (
(151,523,o),
(118,549,o),
(118,587,cs),
(118,627,o),
(151,655,o),
(196,655,cs),
(241,655,o),
(274,627,o),
(274,587,cs),
(274,549,o),
(241,523,o),
(196,523,cs)
);
},
{
closed = 1;
nodes = (
(280,482,o),
(335,527,o),
(335,593,cs),
(335,660,o),
(281,707,o),
(196,707,cs),
(111,707,o),
(57,660,o),
(57,593,cs),
(57,527,o),
(111,482,o),
(196,482,cs)
);
}
);
userData = {
RMXScaler = {
height = 60;
verticalShift = 280;
width = 60;
};
};
width = 392;
},
{
layerId = "747A0BA5-337F-45E8-9896-B2CAF0968805";
shapes = (
{
closed = 1;
nodes = (
(302,273,o),
(357,320,o),
(357,389,cs),
(357,466,o),
(303,519,o),
(188,519,cs),
(73,519,o),
(21,466,o),
(21,389,cs),
(21,320,o),
(74,273,o),
(188,273,cs)
);
},
{
closed = 1;
nodes = (
(165,373,o),
(148,388,o),
(148,408,cs),
(148,433,o),
(165,450,o),
(188,450,cs),
(212,450,o),
(230,433,o),
(230,408,cs),
(230,388,o),
(212,373,o),
(188,373,cs)
);
},
{
closed = 1;
nodes = (
(166,540,o),
(152,556,o),
(152,578,cs),
(152,597,o),
(166,612,o),
(188,612,cs),
(210,612,o),
(226,597,o),
(226,578,cs),
(226,556,o),
(210,540,o),
(188,540,cs)
);
},
{
closed = 1;
nodes = (
(291,482,o),
(345,527,o),
(345,593,cs),
(345,660,o),
(292,707,o),
(188,707,cs),
(85,707,o),
(32,660,o),
(32,593,cs),
(32,527,o),
(85,482,o),
(188,482,cs)
);
}
);
userData = {
RMXScaler = {
height = 60;
verticalShift = 280;
weight = -300;
width = 60;
};
};
width = 378;
}
);
metricLeft = "=eight*.7";
metricRight = "=eight*.7";
userData = {
RMXScaler = {
source = eight;
};
};
},
{
glyphname = nine.numr;
lastChange = "2022-10-03 03:31:55 +0000";
layers = (
{
layerId = m01;
shapes = (
{
closed = 1;
nodes = (
(263,273,o),
(320,368,o),
(320,505,cs),
(320,614,o),
(282,707,o),
(167,707,cs),
(80,707,o),
(21,651,o),
(21,572,cs),
(21,493,o),
(78,434,o),
(159,434,cs),
(214,434,o),
(257,463,o),
(276,511,c),
(263,521,l),
(267,390,o),
(225,328,o),
(151,328,cs),
(127,328,o),
(94,337,o),
(69,355,c),
(36,310,l),
(69,286,o),
(113,273,o),
(155,273,cs)
);
},
{
closed = 1;
nodes = (
(119,486,o),
(83,521,o),
(83,570,cs),
(83,618,o),
(118,653,o),
(166,653,cs),
(215,653,o),
(250,618,o),
(250,570,cs),
(250,522,o),
(215,486,o),
(166,486,cs)
);
}
);
userData = {
RMXScaler = {
height = 60;
verticalShift = 280;
width = 60;
};
};
width = 354;
},
{
layerId = "747A0BA5-337F-45E8-9896-B2CAF0968805";
shapes = (
{
closed = 1;
nodes = (
(308,272,o),
(346,410,o),
(346,519,cs),
(346,627,o),
(291,707,o),
(183,707,cs),
(82,707,o),
(21,647,o),
(21,571,cs),
(21,491,o),
(77,423,o),
(156,423,cs),
(205,423,o),
(238,452,o),
(255,487,c),
(230,499,l),
(229,407,o),
(197,379,o),
(163,379,cs),
(147,379,o),
(115,384,o),
(91,400,c),
(34,309,l),
(69,285,o),
(114,272,o),
(161,272,cs)
);
},
{
closed = 1;
nodes = (
(161,520,o),
(143,541,o),
(143,564,cs),
(143,586,o),
(161,605,o),
(182,605,cs),
(203,605,o),
(222,586,o),
(222,564,cs),
(222,541,o),
(203,520,o),
(182,520,cs)
);
}
);
userData = {
RMXScaler = {
height = 60;
verticalShift = 280;
weight = -300;
width = 60;
};
};
width = 367;
}
);
metricLeft = "=nine*.7";
metricRight = "=nine*.7";
userData = {
RMXScaler = {
source = nine;
};
};
},
{
glyphname = fraction;
lastChange = "2022-09-05 20:43:01 +0000";
layers = (
{
layerId = m01;
shapes = (
{
closed = 1;
nodes = (
(-95,0,l),
(386,700,l),
(311,700,l),
(-170,0,l)
);
}
);
width = 216;
},
{
layerId = "747A0BA5-337F-45E8-9896-B2CAF0968805";
shapes = (
{
closed = 1;
nodes = (
(-70,0,l),
(411,700,l),
(296,700,l),
(-185,0,l)
);
}
);
width = 226;
}
);
unicode = 8260;
},
{
glyphname = .notdef;
lastChange = "2022-09-05 14:28:20 +0000";
layers = (
{
layerId = m01;
shapes = (
{
closed = 1;
nodes = (
(608,-170,l),
(608,790,l),
(100,790,l),
(100,-170,l)
);
},
{
closed = 1;
nodes = (
(158,732,l),
(550,732,l),
(550,-112,l),
(158,-112,l)
);
}
);
width = 708;
},
{
layerId = "747A0BA5-337F-45E8-9896-B2CAF0968805";
shapes = (
{
closed = 1;
nodes = (
(608,-170,l),
(608,790,l),
(100,790,l),
(100,-170,l)
);
},
{
closed = 1;
nodes = (
(158,732,l),
(550,732,l),
(550,-112,l),
(158,-112,l)
);
}
);
width = 708;
}
);
},
{
glyphname = period;
lastChange = "2022-09-05 14:28:20 +0000";
layers = (
{
layerId = m01;
shapes = (
{
closed = 1;
nodes = (
(121,-14,o),
(142,7,o),
(142,32,cs),
(142,57,o),
(121,78,o),
(96,78,cs),
(71,78,o),
(50,57,o),
(50,32,cs),
(50,7,o),
(71,-14,o),
(96,-14,cs)
);
}
);
width = 192;
},
{
layerId = "747A0BA5-337F-45E8-9896-B2CAF0968805";
shapes = (
{
closed = 1;
nodes = (
(199,-15,o),
(246,32,o),
(246,88,cs),
(246,144,o),
(199,191,o),
(143,191,cs),
(87,191,o),
(40,144,o),
(40,88,cs),
(40,32,o),
(87,-15,o),
(143,-15,cs)
);
}
);
width = 286;
}
);
unicode = 46;
},
{
glyphname = comma;
lastChange = "2022-09-05 14:28:20 +0000";
layers = (
{
layerId = m01;
shapes = (
{
closed = 1;
nodes = (
(101,-116,l),
(171,86,l),
(100,86,l),
(45,-116,l)
);
}
);
width = 214;
},
{
layerId = "747A0BA5-337F-45E8-9896-B2CAF0968805";
shapes = (
{
closed = 1;
nodes = (
(148,-113,l),
(264,146,l),
(84,146,l),
(18,-113,l)
);
}
);
width = 286;
}
);
unicode = 44;
},
{
glyphname = colon;
lastChange = "2022-09-05 14:28:20 +0000";
layers = (
{
layerId = m01;
shapes = (
{
closed = 1;
nodes = (
(141,410,o),
(162,431,o),
(162,456,cs),
(162,481,o),
(141,502,o),
(116,502,cs),
(91,502,o),
(70,481,o),
(70,456,cs),
(70,431,o),
(91,410,o),
(116,410,cs)
);
},
{
closed = 1;
nodes = (
(143,-2,o),
(164,19,o),
(164,44,cs),
(164,69,o),
(143,90,o),
(118,90,cs),
(93,90,o),
(72,69,o),
(72,44,cs),
(72,19,o),
(93,-2,o),
(118,-2,cs)
);
}
);
width = 234;
},
{
layerId = "747A0BA5-337F-45E8-9896-B2CAF0968805";
shapes = (
{
closed = 1;
nodes = (
(229,294,o),
(276,341,o),
(276,397,cs),
(276,453,o),
(229,500,o),
(173,500,cs),
(117,500,o),
(70,453,o),
(70,397,cs),
(70,341,o),
(117,294,o),
(173,294,cs)
);
},
{
closed = 1;
nodes = (
(229,-1,o),
(276,46,o),
(276,102,cs),
(276,158,o),
(229,205,o),
(173,205,cs),
(117,205,o),
(70,158,o),
(70,102,cs),
(70,46,o),
(117,-1,o),
(173,-1,cs)
);
}
);
width = 346;
}
);
unicode = 58;
},
{
glyphname = semicolon;
lastChange = "2022-09-05 14:28:20 +0000";
layers = (
{
layerId = m01;
shapes = (
{
closed = 1;
nodes = (
(137,410,o),
(158,431,o),
(158,456,cs),
(158,481,o),
(137,502,o),
(112,502,cs),
(87,502,o),
(66,481,o),
(66,456,cs),
(66,431,o),
(87,410,o),
(112,410,cs)
);
},
{
ref = comma;
}
);
width = 241;
},
{
layerId = "747A0BA5-337F-45E8-9896-B2CAF0968805";
shapes = (
{
closed = 1;
nodes = (
(230,290,o),
(277,337,o),
(277,393,cs),
(277,449,o),
(230,496,o),
(174,496,cs),
(118,496,o),
(71,449,o),
(71,393,cs),
(71,337,o),
(118,290,o),
(174,290,cs)
);
},
{
pos = (10,0);
ref = comma;
}
);
width = 347;
}
);
metricRight = colon;
unicode = 59;
},
{
glyphname = exclam;
kernLeft = tall_punctuation;
lastChange = "2022-09-05 14:28:20 +0000";
layers = (
{
layerId = m01;
shapes = (
{
closed = 1;
nodes = (
(178,193,l),
(178,700,l),
(114,700,l),
(114,193,l)
);
},
{
closed = 1;
nodes = (
(171,-14,o),
(192,7,o),
(192,32,cs),
(192,57,o),
(171,78,o),
(146,78,cs),
(121,78,o),
(100,57,o),
(100,32,cs),
(100,7,o),
(121,-14,o),
(146,-14,cs)
);
}
);
width = 292;
},
{
layerId = "747A0BA5-337F-45E8-9896-B2CAF0968805";
shapes = (
{
closed = 1;
nodes = (
(248,251,l),
(263,700,l),
(63,700,l),
(78,251,l)
);
},
{
closed = 1;
nodes = (
(219,-16,o),
(266,31,o),
(266,87,cs),
(266,143,o),
(219,190,o),
(163,190,cs),
(107,190,o),
(60,143,o),
(60,87,cs),
(60,31,o),
(107,-16,o),
(163,-16,cs)
);
}
);
width = 326;
}
);
metricLeft = I;
metricRight = I;
unicode = 33;
},
{
glyphname = question;
kernLeft = tall_punctuation;
lastChange = "2023-02-22 13:46:21 +0000";
layers = (
{
layerId = m01;
shapes = (
{
closed = 1;
nodes = (
(244,183,l),
(244,305,l),
(366,313,o),
(450,393,o),
(450,510,cs),
(450,628,o),
(360,712,o),
(232,712,cs),
(133,712,o),
(61,662,o),
(35,593,c),
(93,573,l),
(110,620,o),
(165,654,o),
(232,654,cs),
(322,654,o),
(386,594,o),
(386,510,cs),
(386,421,o),
(319,362,o),
(224,362,cs),
(180,362,l),
(180,183,l)
);
},
{
closed = 1;
nodes = (
(239,-14,o),
(258,5,o),
(258,32,cs),
(258,59,o),
(239,78,o),
(212,78,cs),
(185,78,o),
(166,59,o),
(166,32,cs),
(166,5,o),
(185,-14,o),
(212,-14,cs)
);
}
);
width = 500;
},
{
layerId = "747A0BA5-337F-45E8-9896-B2CAF0968805";
shapes = (
{
closed = 1;
nodes = (
(319,213,l),
(322,289,l),
(428,307,o),
(497,377,o),
(497,478,cs),
(497,615,o),
(392,712,o),
(244,712,cs),
(125,712,o),
(41,649,o),
(15,548,c),
(176,505,l),
(186,532,o),
(210,552,o),
(244,552,cs),
(293,552,o),
(327,521,o),
(327,478,cs),
(327,423,o),
(290,402,o),
(237,396,cs),
(144,387,l),
(151,213,l)
);
},
{
closed = 1;
nodes = (
(291,-15,o),
(338,32,o),
(338,88,cs),
(338,144,o),
(291,191,o),
(235,191,cs),
(179,191,o),
(132,144,o),
(132,88,cs),
(132,32,o),
(179,-15,o),
(235,-15,cs)
);
}
);
width = 522;
}
);
unicode = 63;
},
{
glyphname = bullet;
lastChange = "2022-09-06 19:26:19 +0000";
layers = (
{
layerId = m01;
shapes = (
{
closed = 1;
nodes = (
(301,183,o),
(347,229,o),
(347,282,cs),
(347,336,o),
(301,380,o),
(248,380,cs),
(194,380,o),
(150,336,o),
(150,282,cs),
(150,229,o),
(194,183,o),
(248,183,cs)
);
}
);
width = 497;
},
{
layerId = "747A0BA5-337F-45E8-9896-B2CAF0968805";
shapes = (
{
closed = 1;
nodes = (
(299,155,o),
(359,214,o),
(359,288,cs),
(359,361,o),
(299,420,o),
(224,420,cs),
(150,420,o),
(90,361,o),
(90,288,cs),
(90,214,o),
(150,155,o),
(224,155,cs)
);
}
);
width = 449;
}
);
unicode = 8226;
},
{
glyphname = asterisk;
kernLeft = tall_punctuation;
lastChange = "2022-09-05 14:28:20 +0000";
layers = (
{
layerId = m01;
shapes = (
{
closed = 1;
nodes = (
(366,432,l),
(263,565,l),
(223,537,l),
(317,397,l)
);
},
{
closed = 1;
nodes = (
(259,533,l),
(220,562,l),
(116,430,l),
(165,394,l)
);
},
{
closed = 1;
nodes = (
(247,572,l),
(89,630,l),
(70,572,l),
(231,526,l)
);
},
{
closed = 1;
nodes = (
(263,548,l),
(269,716,l),
(209,716,l),
(215,548,l)
);
},
{
closed = 1;
nodes = (
(408,571,l),
(390,628,l),
(232,571,l),
(246,525,l)
);
}
);
width = 478;
},
{
layerId = "747A0BA5-337F-45E8-9896-B2CAF0968805";
shapes = (
{
closed = 1;
nodes = (
(412,395,l),
(279,543,l),
(215,496,l),
(315,324,l)
);
},
{
closed = 1;
nodes = (
(280,495,l),
(215,542,l),
(83,393,l),
(180,323,l)
);
},
{
closed = 1;
nodes = (
(259,556,l),
(77,636,l),
(40,522,l),
(235,480,l)
);
},
{
closed = 1;
nodes = (
(287,518,l),
(307,716,l),
(187,716,l),
(207,518,l)
);
},
{
closed = 1;
nodes = (
(454,522,l),
(417,636,l),
(235,556,l),
(259,480,l)
);
}
);
width = 494;
}
);
unicode = 42;
},
{
glyphname = numbersign;
lastChange = "2022-03-16 09:32:12 +0000";
layers = (
{
layerId = m01;
shapes = (
{
closed = 1;
nodes = (
(400,0,l),
(510,700,l),
(458,700,l),
(348,0,l)
);
},
{
closed = 1;
nodes = (
(572,200,l),
(578,242,l),
(16,242,l),
(10,200,l)
);
},
{
closed = 1;
nodes = (
(170,0,l),
(280,700,l),
(228,700,l),
(118,0,l)
);
},
{
closed = 1;
nodes = (
(612,458,l),
(618,500,l),
(56,500,l),
(50,458,l)
);
}
);
width = 628;
},
{
layerId = "747A0BA5-337F-45E8-9896-B2CAF0968805";
shapes = (
{
closed = 1;
nodes = (
(430,0,l),
(540,700,l),
(413,700,l),
(303,0,l)
);
},
{
closed = 1;
nodes = (
(572,169,l),
(590,295,l),
(28,295,l),
(10,169,l)
);
},
{
closed = 1;
nodes = (
(225,0,l),
(335,700,l),
(208,700,l),
(98,0,l)
);
},
{
closed = 1;
nodes = (
(600,373,l),
(623,500,l),
(61,500,l),
(38,373,l)
);
}
);
width = 633;
}
);
unicode = 35;
},
{
glyphname = slash;
lastChange = "2022-09-05 14:28:20 +0000";
layers = (
{
layerId = m01;
shapes = (
{
closed = 1;
nodes = (
(83,-84,l),
(357,747,l),
(291,747,l),
(15,-84,l)
);
}
);
width = 372;
},
{
layerId = "747A0BA5-337F-45E8-9896-B2CAF0968805";
shapes = (
{
closed = 1;
nodes = (
(183,-84,l),
(457,747,l),
(291,747,l),
(15,-84,l)
);
}
);
width = 472;
}
);
unicode = 47;
},
{
glyphname = hyphen;
lastChange = "2022-09-05 14:28:20 +0000";
layers = (
{
layerId = m01;
shapes = (
{
closed = 1;
nodes = (
(360,269,l),
(360,326,l),
(60,326,l),
(60,269,l)
);
}
);
width = 420;
},
{
layerId = "747A0BA5-337F-45E8-9896-B2CAF0968805";
shapes = (
{
closed = 1;
nodes = (
(350,223,l),
(350,373,l),
(50,373,l),
(50,223,l)
);
}
);
width = 400;
}
);
unicode = 45;
},
{
glyphname = endash;
lastChange = "2022-09-05 14:28:20 +0000";
layers = (
{
layerId = m01;
shapes = (
{
closed = 1;
nodes = (
(550,269,l),
(550,326,l),
(0,326,l),
(0,269,l)
);
}
);
width = 550;
},
{
layerId = "747A0BA5-337F-45E8-9896-B2CAF0968805";
shapes = (
{
closed = 1;
nodes = (
(550,223,l),
(550,373,l),
(0,373,l),
(0,223,l)
);
}
);
width = 550;
}
);
unicode = 8211;
},
{
glyphname = emdash;
lastChange = "2022-09-05 14:28:20 +0000";
layers = (
{
layerId = m01;
shapes = (
{
closed = 1;
nodes = (
(1100,269,l),
(1100,326,l),
(0,326,l),
(0,269,l)
);
}
);
width = 1100;
},
{
layerId = "747A0BA5-337F-45E8-9896-B2CAF0968805";
shapes = (
{
closed = 1;
nodes = (
(1100,223,l),
(1100,373,l),
(0,373,l),
(0,223,l)
);
}
);
width = 1100;
}
);
unicode = 8212;
},
{
glyphname = underscore;
lastChange = "2022-09-05 14:28:20 +0000";
layers = (
{
layerId = m01;
shapes = (
{
closed = 1;
nodes = (
(420,-57,l),
(420,0,l),
(20,0,l),
(20,-57,l)
);
}
);
width = 440;
},
{
layerId = "747A0BA5-337F-45E8-9896-B2CAF0968805";
shapes = (
{
closed = 1;
nodes = (
(415,-150,l),
(415,0,l),
(15,0,l),
(15,-150,l)
);
}
);
width = 430;
}
);
unicode = 95;
},
{
glyphname = parenleft;
lastChange = "2022-09-05 14:28:20 +0000";
layers = (
{
layerId = m01;
shapes = (
{
closed = 1;
nodes = (
(290,-100,l),
(197,29,o),
(124,185,o),
(124,350,cs),
(124,515,o),
(197,671,o),
(290,800,c),
(226,800,l),
(133,678,o),
(60,523,o),
(60,350,cs),
(60,177,o),
(133,22,o),
(226,-100,c)
);
}
);
width = 340;
},
{
layerId = "747A0BA5-337F-45E8-9896-B2CAF0968805";
shapes = (
{
closed = 1;
nodes = (
(380,-100,l),
(287,29,o),
(214,185,o),
(214,350,cs),
(214,515,o),
(287,671,o),
(380,800,c),
(206,800,l),
(113,678,o),
(40,523,o),
(40,350,cs),
(40,177,o),
(113,22,o),
(206,-100,c)
);
}
);
width = 410;
}
);
unicode = 40;
},
{
glyphname = braceleft;
lastChange = "2022-09-05 14:28:20 +0000";
layers = (
{
background = {
shapes = (
{
closed = 1;
nodes = (
(305,-52,l),
(202,-27,o),
(130,139,o),
(130,350,cs),
(130,561,o),
(201,727,o),
(302,752,c),
(292,800,l),
(160,778,o),
(66,592,o),
(66,350,cs),
(66,108,o),
(161,-78,o),
(295,-100,c)
);
}
);
};
layerId = m01;
shapes = (
{
closed = 1;
nodes = (
(191,339,o),
(224,374,o),
(224,513,cs),
(224,694,o),
(244,740,o),
(322,742,c),
(322,800,l),
(192,800,o),
(160,742,o),
(160,512,cs),
(160,402,o),
(140,375,o),
(60,375,c),
(60,339,l)
);
},
{
closed = 1;
nodes = (
(322,-42,l),
(244,-40,o),
(224,6,o),
(224,187,cs),
(224,326,o),
(191,361,o),
(60,361,c),
(60,325,l),
(140,325,o),
(160,298,o),
(160,188,cs),
(160,-42,o),
(192,-100,o),
(322,-100,c)
);
}
);
width = 382;
},
{
layerId = "747A0BA5-337F-45E8-9896-B2CAF0968805";
shapes = (
{
closed = 1;
nodes = (
(242,339,o),
(290,374,o),
(290,513,cs),
(290,631,o),
(302,661,o),
(352,662,c),
(352,800,l),
(182,800,o),
(140,742,o),
(140,512,cs),
(140,434,o),
(122,415,o),
(50,415,c),
(50,339,l)
);
},
{
closed = 1;
nodes = (
(352,38,l),
(303,39,o),
(291,69,o),
(291,187,cs),
(291,326,o),
(243,361,o),
(50,361,c),
(50,285,l),
(122,285,o),
(140,266,o),
(140,188,cs),
(140,-42,o),
(182,-100,o),
(352,-100,c)
);
}
);
width = 402;
}
);
unicode = 123;
},
{
glyphname = bracketleft;
lastChange = "2022-09-05 14:28:20 +0000";
layers = (
{
background = {
shapes = (
{
closed = 1;
nodes = (
(94,402,o),
(74,375,o),
(-6,375,c),
(-6,339,l),
(125,339,o),
(158,374,o),
(158,513,cs),
(158,694,o),
(174,740,o),
(236,742,c),
(236,800,l),
(122,800,o),
(94,742,o),
(94,512,cs)
);
},
{
closed = 1;
nodes = (
(94,-42,o),
(122,-100,o),
(236,-100,c),
(236,-42,l),
(174,-40,o),
(158,6,o),
(158,187,cs),
(158,326,o),
(125,361,o),
(-6,361,c),
(-6,325,l),
(74,325,o),
(94,298,o),
(94,188,cs)
);
}
);
};
layerId = m01;
shapes = (
{
closed = 1;
nodes = (
(236,-100,l),
(236,-42,l),
(164,-42,l),
(164,742,l),
(236,742,l),
(236,800,l),
(100,800,l),
(100,-100,l)
);
}
);
width = 316;
},
{
layerId = "747A0BA5-337F-45E8-9896-B2CAF0968805";
shapes = (
{
closed = 1;
nodes = (
(322,-100,l),
(322,60,l),
(210,60,l),
(210,640,l),
(322,640,l),
(322,800,l),
(60,800,l),
(60,-100,l)
);
}
);
width = 362;
}
);
metricLeft = I;
metricRight = "=I-20";
unicode = 91;
},
{
glyphname = guilsinglleft;
lastChange = "2022-09-05 20:43:01 +0000";
layers = (
{
guides = (
{
pos = (20,298);
}
);
layerId = m01;
shapes = (
{
closed = 1;
nodes = (
(126,298,l),
(283,500,l),
(207,500,l),
(50,298,l)
);
},
{
closed = 1;
nodes = (
(283,96,l),
(126,298,l),
(50,298,l),
(207,96,l)
);
}
);
width = 343;
},
{
layerId = "747A0BA5-337F-45E8-9896-B2CAF0968805";
shapes = (
{
closed = 1;
nodes = (
(255,298,l),
(388,500,l),
(187,500,l),
(45,298,l)
);
},
{
closed = 1;
nodes = (
(388,96,l),
(255,298,l),
(45,298,l),
(187,96,l)
);
}
);
width = 438;
}
);
unicode = 8249;
},
{
glyphname = quotesingle;
kernLeft = tall_punctuation;
lastChange = "2022-09-05 14:28:20 +0000";
layers = (
{
layerId = m01;
shapes = (
{
closed = 1;
nodes = (
(117,490,l),
(122,716,l),
(60,716,l),
(65,490,l)
);
}
);
width = 182;
},
{
layerId = "747A0BA5-337F-45E8-9896-B2CAF0968805";
shapes = (
{
closed = 1;
nodes = (
(207,440,l),
(227,716,l),
(60,716,l),
(80,440,l)
);
}
);
width = 287;
}
);
unicode = 39;
},
{
glyphname = at;
lastChange = "2022-09-05 14:28:20 +0000";
layers = (
{
layerId = m01;
shapes = (
{
closed = 1;
nodes = (
(574,-213,o),
(657,-194,o),
(713,-166,c),
(685,-119,l),
(639,-140,o),
(568,-155,o),
(514,-155,cs),
(280,-155,o),
(114,14,o),
(114,252,cs),
(114,489,o),
(280,657,o),
(514,657,cs),
(725,657,o),
(874,489,o),
(874,252,c),
(938,252,l),
(938,523,o),
(762,715,o),
(514,715,cs),
(242,715,o),
(50,523,o),
(50,252,cs),
(50,-20,o),
(242,-213,o),
(514,-213,cs)
);
},
{
closed = 1;
nodes = (
(592,15,o),
(682,114,o),
(682,253,cs),
(682,392,o),
(592,490,o),
(465,490,cs),
(331,490,o),
(237,392,o),
(237,253,cs),
(237,114,o),
(331,15,o),
(465,15,cs)
);
},
{
closed = 1;
nodes = (
(373,73,o),
(301,148,o),
(301,253,cs),
(301,358,o),
(373,432,o),
(475,432,cs),
(576,432,o),
(648,358,o),
(648,253,cs),
(648,148,o),
(576,73,o),
(475,73,cs)
);
},
{
closed = 1;
nodes = (
(861,-15,o),
(938,96,o),
(938,252,c),
(874,252,l),
(874,130,o),
(825,43,o),
(755,43,cs),
(730,43,o),
(712,67,o),
(712,100,c),
(646,100,l),
(646,28,o),
(682,-16,o),
(753,-15,cs)
);
},
{
closed = 1;
nodes = (
(712,100,l),
(712,479,l),
(646,479,l),
(646,100,l)
);
}
);
width = 988;
},
{
background = {
shapes = (
{
pos = (293,28);
ref = Bowl;
scale = (0.8957,0.8957);
}
);
};
layerId = "747A0BA5-337F-45E8-9896-B2CAF0968805";
shapes = (
{
closed = 1;
nodes = (
(575,-208,o),
(655,-182,o),
(711,-146,c),
(640,-49,l),
(611,-72,o),
(560,-88,o),
(517,-88,cs),
(299,-88,o),
(145,53,o),
(145,252,cs),
(145,453,o),
(299,595,o),
(517,595,cs),
(711,595,o),
(849,453,o),
(849,252,c),
(969,252,l),
(969,523,o),
(782,715,o),
(517,715,cs),
(229,715,o),
(25,523,o),
(25,252,cs),
(25,-17,o),
(229,-208,o),
(517,-208,cs)
);
},
{
closed = 1;
nodes = (
(575,14,o),
(664,113,o),
(664,252,cs),
(664,391,o),
(575,489,o),
(450,489,cs),
(336,489,o),
(256,391,o),
(256,252,cs),
(256,113,o),
(336,14,o),
(450,14,cs)
);
},
{
closed = 1;
nodes = (
(459,158,o),
(420,196,o),
(420,253,cs),
(420,307,o),
(454,345,o),
(502,345,cs),
(552,345,o),
(589,307,o),
(589,252,cs),
(589,196,o),
(556,158,o),
(511,158,cs)
);
},
{
closed = 1;
nodes = (
(879,-15,o),
(969,96,o),
(969,252,c),
(849,252,l),
(849,158,o),
(814,91,o),
(765,91,cs),
(740,91,o),
(722,96,o),
(722,130,c),
(592,120,l),
(592,41,o),
(664,-15,o),
(751,-15,cs)
);
},
{
closed = 1;
nodes = (
(722,130,l),
(722,479,l),
(582,479,l),
(592,120,l)
);
}
);
width = 994;
}
);
metricLeft = O;
metricRight = O;
unicode = 64;
},
{
glyphname = ampersand;
lastChange = "2022-09-23 06:03:25 +0000";
layers = (
{
guides = (
{
angle = 129.651;
pos = (557,-15);
},
{
angle = 129.651;
pos = (640,-15);
},
{
angle = 34.651;
pos = (23,252);
},
{
angle = 34.651;
pos = (34,186);
}
);
layerId = m01;
shapes = (
{
closed = 1;
nodes = (
(448,-15,o),
(580,120,o),
(580,309,c),
(516,309,l),
(516,153,o),
(410,43,o),
(261,43,cs),
(181,43,o),
(124,94,o),
(124,167,cs),
(124,246,o),
(175,284,o),
(226,319,cs),
(300,370,ls),
(378,424,o),
(449,484,o),
(449,563,cs),
(449,654,o),
(376,715,o),
(282,715,cs),
(194,715,o),
(125,650,o),
(125,565,cs),
(125,507,o),
(162,462,o),
(205,410,c),
(318,274,l),
(545,0,l),
(627,0,l),
(375,306,l),
(256,449,ls),
(217,496,o),
(189,523,o),
(189,565,cs),
(189,616,o),
(231,657,o),
(282,657,cs),
(342,657,o),
(385,620,o),
(385,563,cs),
(385,501,o),
(323,459,o),
(266,420,cs),
(191,368,ls),
(120,319,o),
(60,261,o),
(60,167,cs),
(60,60,o),
(144,-15,o),
(261,-15,cs)
);
}
);
width = 642;
},
{
background = {
backgroundImage = {
imagePath = "../../../Desktop/Screen Shot 2021-05-24 at 9.37.48 AM.png";
pos = (20,-37);
scale = (4.9751,4.9751);
};
};
guides = (
{
angle = 129.651;
pos = (477,-15);
},
{
angle = 129.651;
pos = (679,-15);
},
{
angle = 34.651;
pos = (0,255);
},
{
angle = 34.651;
pos = (-1,75);
}
);
layerId = "747A0BA5-337F-45E8-9896-B2CAF0968805";
shapes = (
{
closed = 1;
nodes = (
(477,-12,o),
(637,116,o),
(637,297,c),
(475,297,l),
(475,183,o),
(352,136,o),
(263,136,cs),
(234,136,o),
(214,156,o),
(214,184,cs),
(214,205,o),
(224,230,o),
(244,244,cs),
(313,292,ls),
(454,390,o),
(515,446,o),
(515,530,cs),
(515,637,o),
(421,712,o),
(287,712,cs),
(166,712,o),
(71,639,o),
(71,537,cs),
(71,498,o),
(84,461,o),
(149,380,c),
(307,188,l),
(465,0,l),
(667,0,l),
(426,290,l),
(284,461,l),
(264,488,o),
(241,506,o),
(241,535,cs),
(241,560,o),
(264,575,o),
(297,575,cs),
(327,575,o),
(352,561,o),
(352,535,cs),
(352,492,o),
(307,467,o),
(294,458,cs),
(125,342,ls),
(67,302,o),
(30,240,o),
(30,179,cs),
(30,67,o),
(121,-12,o),
(249,-12,cs)
);
}
);
width = 651;
}
);
metricLeft = eight;
unicode = 38;
},
{
glyphname = paragraph;
lastChange = "2022-09-05 14:28:20 +0000";
layers = (
{
layerId = m01;
shapes = (
{
closed = 1;
nodes = (
(286,266,l),
(286,700,l),
(228,700,ls),
(112,700,o),
(30,611,o),
(30,483,cs),
(30,356,o),
(112,266,o),
(228,266,cs)
);
},
{
closed = 1;
nodes = (
(317,-84,l),
(317,700,l),
(253,700,l),
(253,-84,l)
);
},
{
closed = 1;
nodes = (
(431,-84,l),
(431,700,l),
(367,700,l),
(367,-84,l)
);
},
{
closed = 1;
nodes = (
(377,642,l),
(377,700,l),
(317,700,l),
(317,642,l)
);
}
);
width = 531;
},
{
layerId = "747A0BA5-337F-45E8-9896-B2CAF0968805";
shapes = (
{
closed = 1;
nodes = (
(316,210,l),
(316,700,l),
(275,700,ls),
(117,700,o),
(5,600,o),
(5,456,cs),
(5,312,o),
(117,210,o),
(275,210,cs)
);
},
{
closed = 1;
nodes = (
(399,-84,l),
(399,700,l),
(282,700,l),
(282,-84,l)
);
},
{
closed = 1;
nodes = (
(561,-84,l),
(561,700,l),
(444,700,l),
(444,-84,l)
);
},
{
closed = 1;
nodes = (
(455,530,l),
(455,700,l),
(388,700,l),
(388,530,l)
);
}
);
width = 621;
}
);
metricLeft = "=|P";
metricRight = I;
unicode = 182;
},
{
glyphname = section;
lastChange = "2022-09-05 14:28:20 +0000";
layers = (
{
layerId = m01;
shapes = (
{
closed = 1;
nodes = (
(425,-90,o),
(488,-23,o),
(488,61,cs),
(488,125,o),
(431,186,o),
(328,211,cs),
(270,225,ls),
(219,237,o),
(185,262,o),
(185,311,cs),
(185,366,o),
(224,402,o),
(287,402,cs),
(344,402,o),
(407,371,o),
(427,322,c),
(477,340,l),
(459,400,o),
(401,459,o),
(302,459,cs),
(185,459,o),
(120,402,o),
(120,306,cs),
(120,228,o),
(179,184,o),
(252,166,cs),
(310,152,ls),
(378,136,o),
(423,105,o),
(423,56,cs),
(423,3,o),
(374,-33,o),
(292,-33,cs),
(225,-33,o),
(177,5,o),
(161,50,c),
(100,28,l),
(120,-33,o),
(186,-90,o),
(302,-90,cs)
);
},
{
closed = 1;
nodes = (
(420,163,o),
(483,230,o),
(483,314,cs),
(483,378,o),
(427,440,o),
(323,465,cs),
(265,479,ls),
(214,491,o),
(180,515,o),
(180,564,cs),
(180,619,o),
(222,655,o),
(291,655,cs),
(356,655,o),
(403,624,o),
(422,575,c),
(482,596,l),
(463,654,o),
(401,712,o),
(297,712,cs),
(180,712,o),
(115,655,o),
(115,559,cs),
(115,481,o),
(174,439,o),
(247,420,cs),
(305,405,ls),
(373,387,o),
(418,358,o),
(418,309,cs),
(418,258,o),
(374,223,o),
(299,223,cs),
(226,223,o),
(174,260,o),
(156,303,c),
(122,286,l),
(140,223,o),
(197,163,o),
(297,163,cs)
);
}
);
width = 588;
},
{
layerId = "747A0BA5-337F-45E8-9896-B2CAF0968805";
shapes = (
{
closed = 1;
nodes = (
(373,-91,o),
(447,-29,o),
(447,75,cs),
(447,151,o),
(395,216,o),
(310,239,cs),
(229,261,ls),
(196,270,o),
(175,284,o),
(175,308,cs),
(175,345,o),
(200,364,o),
(244,364,cs),
(287,364,o),
(313,338,o),
(321,310,c),
(444,349,l),
(411,433,o),
(346,476,o),
(245,476,cs),
(118,476,o),
(42,413,o),
(42,308,cs),
(42,227,o),
(95,171,o),
(177,149,cs),
(256,128,ls),
(292,118,o),
(312,100,o),
(312,75,cs),
(312,40,o),
(280,20,o),
(240,21,cs),
(198,22,o),
(167,46,o),
(157,78,c),
(30,39,l),
(42,-30,o),
(137,-91,o),
(244,-91,cs)
);
},
{
closed = 1;
nodes = (
(376,145,o),
(450,207,o),
(450,310,cs),
(450,387,o),
(398,454,o),
(313,475,cs),
(233,495,ls),
(200,503,o),
(178,520,o),
(178,544,cs),
(178,581,o),
(203,600,o),
(247,600,cs),
(290,600,o),
(316,574,o),
(324,546,c),
(451,586,l),
(417,669,o),
(352,712,o),
(248,712,cs),
(121,712,o),
(45,649,o),
(45,544,cs),
(45,463,o),
(98,407,o),
(180,385,cs),
(259,364,ls),
(295,354,o),
(315,336,o),
(315,310,cs),
(315,276,o),
(283,257,o),
(244,257,cs),
(225,257,o),
(170,282,o),
(160,313,c),
(49,280,l),
(60,208,o),
(148,145,o),
(247,145,cs)
);
}
);
width = 482;
}
);
unicode = 167;
},
{
glyphname = copyright;
lastChange = "2022-10-15 06:00:59 +0000";
layers = (
{
layerId = m01;
shapes = (
{
closed = 1;
nodes = (
(612,-11,o),
(773,150,o),
(773,350,cs),
(773,550,o),
(612,712,o),
(412,712,cs),
(212,712,o),
(50,550,o),
(50,350,cs),
(50,150,o),
(212,-11,o),
(412,-11,cs)
);
},
{
closed = 1;
nodes = (
(474,152,o),
(540,193,o),
(569,251,cs),
(582,278,l),
(525,299,l),
(515,277,ls),
(495,238,o),
(452,210,o),
(410,210,cs),
(336,210,o),
(284,268,o),
(284,350,cs),
(284,432,o),
(336,490,o),
(409,490,cs),
(452,490,o),
(495,465,o),
(512,429,cs),
(525,407,l),
(579,428,l),
(566,455,ls),
(539,509,o),
(474,548,o),
(409,548,cs),
(301,548,o),
(224,466,o),
(224,350,cs),
(224,234,o),
(301,152,o),
(410,152,cs)
);
},
{
closed = 1;
nodes = (
(239,45,o),
(112,172,o),
(112,350,cs),
(112,529,o),
(239,656,o),
(412,656,cs),
(584,656,o),
(711,529,o),
(711,350,cs),
(711,171,o),
(585,45,o),
(412,45,cs)
);
}
);
width = 823;
},
{
layerId = "747A0BA5-337F-45E8-9896-B2CAF0968805";
shapes = (
{
closed = 1;
nodes = (
(598,-11,o),
(748,139,o),
(748,350,cs),
(748,562,o),
(598,712,o),
(387,712,cs),
(175,712,o),
(25,562,o),
(25,350,cs),
(25,139,o),
(175,-11,o),
(387,-11,cs)
);
},
{
closed = 1;
nodes = (
(457,152,o),
(518,192,o),
(551,261,c),
(560,278,l),
(458,314,l),
(452,304,l),
(432,278,o),
(409,262,o),
(388,262,cs),
(343,262,o),
(316,295,o),
(316,350,cs),
(316,405,o),
(342,438,o),
(387,438,cs),
(406,438,o),
(428,427,o),
(446,408,c),
(458,391,l),
(557,428,l),
(545,453,l),
(510,513,o),
(451,548,o),
(387,548,cs),
(271,548,o),
(202,474,o),
(202,350,cs),
(202,226,o),
(271,152,o),
(388,152,cs)
);
},
{
closed = 1;
nodes = (
(242,99,o),
(139,203,o),
(139,350,cs),
(139,498,o),
(242,602,o),
(387,602,cs),
(532,602,o),
(634,498,o),
(634,350,cs),
(634,203,o),
(532,99,o),
(387,99,cs)
);
}
);
width = 773;
}
);
metricLeft = O;
metricRight = O;
unicode = 169;
},
{
glyphname = registered;
lastChange = "2022-09-05 14:28:20 +0000";
layers = (
{
layerId = m01;
shapes = (
{
closed = 1;
nodes = (
(461,176,o),
(581,296,o),
(581,444,cs),
(581,592,o),
(461,712,o),
(313,712,cs),
(165,712,o),
(45,592,o),
(45,444,cs),
(45,296,o),
(165,176,o),
(313,176,cs)
);
},
{
closed = 1;
nodes = (
(188,228,o),
(99,317,o),
(99,444,cs),
(99,571,o),
(188,660,o),
(313,660,cs),
(438,660,o),
(527,571,o),
(527,444,cs),
(527,317,o),
(438,228,o),
(313,228,cs)
);
},
{
closed = 1;
nodes = (
(260,301,l),
(260,409,l),
(313,409,l),
(375,301,l),
(428,301,l),
(358,418,l),
(393,432,o),
(416,463,o),
(416,501,cs),
(416,555,o),
(374,593,o),
(315,593,cs),
(213,593,l),
(213,301,l)
);
},
{
closed = 1;
nodes = (
(260,550,l),
(313,550,ls),
(346,550,o),
(368,530,o),
(368,501,cs),
(368,473,o),
(346,453,o),
(318,453,cs),
(260,453,l)
);
}
);
width = 626;
},
{
layerId = "747A0BA5-337F-45E8-9896-B2CAF0968805";
shapes = (
{
closed = 1;
nodes = (
(461,144,o),
(588,271,o),
(588,428,cs),
(588,585,o),
(461,712,o),
(304,712,cs),
(147,712,o),
(20,585,o),
(20,428,cs),
(20,271,o),
(147,144,o),
(304,144,cs)
);
},
{
closed = 1;
nodes = (
(180,220,o),
(98,303,o),
(98,428,c),
(98,553,o),
(180,636,o),
(304,636,c),
(428,636,o),
(510,553,o),
(510,428,c),
(510,303,o),
(428,220,o),
(304,220,c)
);
},
{
closed = 1;
nodes = (
(272,292,l),
(272,384,l),
(299,384,l),
(352,292,l),
(440,292,l),
(376,398,l),
(408,414,o),
(428,446,o),
(428,484,cs),
(428,542,o),
(382,584,o),
(316,584,cs),
(195,583,l),
(195,292,l)
);
},
{
closed = 1;
nodes = (
(272,513,l),
(312,513,ls),
(332,513,o),
(347,501,o),
(347,484,cs),
(347,467,o),
(332,455,o),
(312,455,cs),
(272,455,l)
);
}
);
width = 608;
}
);
metricLeft = o;
metricRight = o;
unicode = 174;
},
{
glyphname = trademark;
lastChange = "2023-04-03 06:34:05 +0000";
layers = (
{
guides = (
{
pos = (15,350);
}
);
layerId = m01;
shapes = (
{
closed = 1;
nodes = (
(734,600,l),
(734,280,l),
(796,280,l),
(796,700,l),
(730,700,l),
(594,498,l),
(457,700,l),
(390,700,l),
(390,280,l),
(453,280,l),
(453,598,l),
(593,392,l)
);
},
{
closed = 1;
nodes = (
(200,280,l),
(200,643,l),
(331,643,l),
(331,700,l),
(7,700,l),
(7,643,l),
(138,643,l),
(138,280,l)
);
}
);
width = 848;
},
{
layerId = "747A0BA5-337F-45E8-9896-B2CAF0968805";
shapes = (
{
closed = 1;
nodes = (
(744,511,l),
(744,280,l),
(867,280,l),
(867,700,l),
(730,700,l),
(638,563,l),
(545,700,l),
(408,700,l),
(408,280,l),
(531,280,l),
(531,511,l),
(638,357,l)
);
},
{
closed = 1;
nodes = (
(250,280,l),
(250,587,l),
(365,587,l),
(365,700,l),
(11,700,l),
(11,587,l),
(127,587,l),
(127,280,l)
);
}
);
width = 899;
}
);
unicode = 8482;
},
{
glyphname = degree;
lastChange = "2022-09-05 14:28:30 +0000";
layers = (
{
layerId = m01;
shapes = (
{
closed = 1;
nodes = (
(254,450,o),
(315,512,o),
(315,585,cs),
(315,656,o),
(254,715,o),
(182,715,cs),
(110,715,o),
(50,656,o),
(50,585,cs),
(50,512,o),
(110,450,o),
(182,450,cs)
);
},
{
closed = 1;
nodes = (
(143,505,o),
(110,542,o),
(110,585,cs),
(110,626,o),
(143,660,o),
(182,660,cs),
(222,660,o),
(255,626,o),
(255,585,cs),
(255,542,o),
(222,505,o),
(182,505,cs)
);
}
);
width = 365;
},
{
layerId = "747A0BA5-337F-45E8-9896-B2CAF0968805";
shapes = (
{
closed = 1;
nodes = (
(281,403,o),
(357,472,o),
(357,561,cs),
(357,648,o),
(281,716,o),
(193,716,cs),
(106,716,o),
(30,648,o),
(30,561,cs),
(30,473,o),
(105,403,o),
(193,403,cs)
);
},
{
closed = 1;
nodes = (
(170,513,o),
(150,535,o),
(150,561,cs),
(150,586,o),
(170,606,o),
(193,606,cs),
(217,606,o),
(237,586,o),
(237,561,cs),
(237,535,o),
(217,513,o),
(193,513,cs)
);
}
);
width = 387;
}
);
unicode = 176;
},
{
glyphname = bar;
lastChange = "2022-09-05 14:28:20 +0000";
layers = (
{
layerId = m01;
shapes = (
{
closed = 1;
nodes = (
(158,-220,l),
(158,790,l),
(100,790,l),
(100,-220,l)
);
}
);
width = 258;
},
{
layerId = "747A0BA5-337F-45E8-9896-B2CAF0968805";
shapes = (
{
closed = 1;
nodes = (
(195,-220,l),
(195,790,l),
(60,790,l),
(60,-220,l)
);
}
);
width = 255;
}
);
metricLeft = I;
metricRight = I;
unicode = 124;
},
{
glyphname = brokenbar;
lastChange = "2022-09-05 20:43:01 +0000";
layers = (
{
layerId = m01;
shapes = (
{
closed = 1;
nodes = (
(158,350,l),
(158,790,l),
(100,790,l),
(100,350,l)
);
},
{
closed = 1;
nodes = (
(158,-220,l),
(158,220,l),
(100,220,l),
(100,-220,l)
);
}
);
width = 258;
},
{
layerId = "747A0BA5-337F-45E8-9896-B2CAF0968805";
shapes = (
{
closed = 1;
nodes = (
(235,350,l),
(235,790,l),
(100,790,l),
(100,350,l)
);
},
{
closed = 1;
nodes = (
(235,-220,l),
(235,220,l),
(100,220,l),
(100,-220,l)
);
}
);
width = 335;
}
);
unicode = 166;
},
{
glyphname = dagger;
lastChange = "2022-09-05 20:43:01 +0000";
layers = (
{
layerId = m01;
shapes = (
{
closed = 1;
nodes = (
(270,0,l),
(265,472,l),
(270,700,l),
(208,700,l),
(213,472,l),
(208,0,l)
);
},
{
closed = 1;
nodes = (
(239,451,l),
(453,446,l),
(453,502,l),
(239,497,l),
(24,502,l),
(24,446,l)
);
}
);
width = 478;
},
{
layerId = "747A0BA5-337F-45E8-9896-B2CAF0968805";
shapes = (
{
closed = 1;
nodes = (
(338,0,l),
(293,429,l),
(328,700,l),
(166,700,l),
(201,429,l),
(156,0,l)
);
},
{
closed = 1;
nodes = (
(247,381,l),
(461,346,l),
(461,512,l),
(247,477,l),
(32,512,l),
(32,346,l)
);
}
);
width = 494;
}
);
metricWidth = asterisk;
unicode = 8224;
},
{
glyphname = daggerdbl;
lastChange = "2022-09-05 20:43:01 +0000";
layers = (
{
layerId = m01;
shapes = (
{
closed = 1;
nodes = (
(270,-200,l),
(265,24,l),
(270,250,l),
(265,472,l),
(270,700,l),
(208,700,l),
(213,472,l),
(208,250,l),
(213,24,l),
(208,-200,l)
);
},
{
closed = 1;
nodes = (
(240,2,l),
(453,-3,l),
(453,53,l),
(240,48,l),
(25,53,l),
(25,-3,l)
);
},
{
closed = 1;
nodes = (
(239,451,l),
(453,446,l),
(453,502,l),
(239,497,l),
(25,502,l),
(25,446,l)
);
}
);
width = 478;
},
{
layerId = "747A0BA5-337F-45E8-9896-B2CAF0968805";
shapes = (
{
closed = 1;
nodes = (
(335,-200,l),
(290,71,l),
(315,250,l),
(290,429,l),
(325,700,l),
(163,700,l),
(198,429,l),
(173,250,l),
(198,71,l),
(153,-200,l)
);
},
{
closed = 1;
nodes = (
(250,23,l),
(464,-7,l),
(464,149,l),
(250,119,l),
(35,149,l),
(35,-7,l)
);
},
{
closed = 1;
nodes = (
(244,381,l),
(458,351,l),
(458,507,l),
(244,477,l),
(29,507,l),
(29,351,l)
);
}
);
width = 494;
}
);
metricWidth = asterisk;
unicode = 8225;
},
{
glyphname = cent;
lastChange = "2023-02-22 13:38:37 +0000";
layers = (
{
layerId = m01;
shapes = (
{
closed = 1;
nodes = (
(315,0,l),
(315,700,l),
(260,700,l),
(260,0,l)
);
},
{
pos = (0,110);
ref = c;
}
);
width = 534;
},
{
layerId = "747A0BA5-337F-45E8-9896-B2CAF0968805";
shapes = (
{
closed = 1;
nodes = (
(331,0,l),
(331,700,l),
(248,700,l),
(248,0,l)
);
},
{
alignment = -1;
pos = (0,110);
ref = c;
}
);
width = 545;
}
);
unicode = 162;
},
{
glyphname = currency;
lastChange = "2022-09-05 20:43:01 +0000";
layers = (
{
guides = (
{
pos = (-20,350);
}
);
layerId = m01;
shapes = (
{
closed = 1;
nodes = (
(361,189,o),
(434,264,o),
(434,350,cs),
(434,434,o),
(361,506,o),
(272,506,cs),
(183,506,o),
(111,434,o),
(111,350,cs),
(111,264,o),
(182,189,o),
(272,189,cs)
);
},
{
closed = 1;
nodes = (
(192,234,l),
(151,272,l),
(80,201,l),
(119,162,l)
);
},
{
closed = 1;
nodes = (
(210,243,o),
(171,284,o),
(171,350,cs),
(171,413,o),
(210,452,o),
(272,452,cs),
(335,452,o),
(374,413,o),
(374,350,cs),
(374,284,o),
(334,243,o),
(272,243,cs)
);
},
{
closed = 1;
nodes = (
(192,468,l),
(119,540,l),
(80,500,l),
(152,429,l)
);
},
{
closed = 1;
nodes = (
(458,201,l),
(400,261,l),
(360,222,l),
(418,162,l)
);
},
{
closed = 1;
nodes = (
(458,500,l),
(418,540,l),
(351,473,l),
(392,435,l)
);
}
);
width = 538;
},
{
guides = (
{
pos = (-2,350);
}
);
layerId = "747A0BA5-337F-45E8-9896-B2CAF0968805";
shapes = (
{
closed = 1;
nodes = (
(453,131,o),
(546,222,o),
(546,350,cs),
(546,478,o),
(453,569,o),
(319,569,cs),
(186,569,o),
(93,478,o),
(93,350,cs),
(93,222,o),
(187,131,o),
(321,131,cs)
);
},
{
closed = 1;
nodes = (
(305,238,l),
(205,333,l),
(61,188,l),
(158,91,l)
);
},
{
closed = 1;
nodes = (
(281,281,o),
(253,310,o),
(253,350,cs),
(253,390,o),
(281,419,o),
(319,419,cs),
(358,419,o),
(386,390,o),
(386,350,cs),
(386,310,o),
(359,281,o),
(320,281,cs)
);
},
{
closed = 1;
nodes = (
(316,454,l),
(157,609,l),
(60,512,l),
(217,359,l)
);
},
{
closed = 1;
nodes = (
(578,188,l),
(431,333,l),
(332,238,l),
(481,91,l)
);
},
{
closed = 1;
nodes = (
(578,512,l),
(481,609,l),
(324,463,l),
(424,368,l)
);
}
);
width = 638;
}
);
unicode = 164;
},
{
glyphname = dollar;
lastChange = "2022-09-05 14:28:30 +0000";
layers = (
{
layerId = m01;
shapes = (
{
closed = 1;
nodes = (
(439,23,o),
(512,104,o),
(512,200,cs),
(512,275,o),
(442,351,o),
(316,380,cs),
(251,395,ls),
(188,410,o),
(146,440,o),
(146,505,cs),
(146,574,o),
(200,619,o),
(285,619,cs),
(366,619,o),
(428,581,o),
(453,518,c),
(510,541,l),
(491,603,o),
(418,677,o),
(295,677,cs),
(156,677,o),
(82,610,o),
(82,498,cs),
(82,404,o),
(152,355,o),
(237,333,cs),
(300,317,ls),
(387,295,o),
(448,257,o),
(448,193,cs),
(448,126,o),
(386,81,o),
(279,81,cs),
(194,81,o),
(132,128,o),
(111,183,c),
(55,161,l),
(80,90,o),
(152,23,o),
(294,23,cs)
);
},
{
closed = 1;
nodes = (
(324,-103,l),
(324,780,l),
(265,780,l),
(265,-103,l)
);
}
);
width = 567;
},
{
associatedMasterId = m01;
attr = {
axisRules = (
{
min = 550;
}
);
};
layerId = "37BEE1AC-9B8D-480C-9A05-4CE0B79F60FD";
name = "May 22, 22, 13:10";
shapes = (
{
closed = 1;
nodes = (
(439,23,o),
(512,104,o),
(512,200,cs),
(512,275,o),
(442,351,o),
(316,380,cs),
(251,395,ls),
(188,410,o),
(146,440,o),
(146,505,cs),
(146,574,o),
(200,619,o),
(285,619,cs),
(366,619,o),
(428,581,o),
(453,518,c),
(510,541,l),
(491,603,o),
(418,677,o),
(295,677,cs),
(156,677,o),
(82,610,o),
(82,498,cs),
(82,404,o),
(152,355,o),
(237,333,cs),
(300,317,ls),
(387,295,o),
(448,257,o),
(448,193,cs),
(448,126,o),
(386,81,o),
(279,81,cs),
(194,81,o),
(132,128,o),
(111,183,c),
(55,161,l),
(80,90,o),
(152,23,o),
(294,23,cs)
);
},
{
closed = 1;
nodes = (
(324,-103,l),
(324,37,l),
(265,37,l),
(265,-103,l)
);
},
{
closed = 1;
nodes = (
(324,640,l),
(324,780,l),
(265,780,l),
(265,640,l)
);
}
);
width = 567;
},
{
associatedMasterId = "747A0BA5-337F-45E8-9896-B2CAF0968805";
attr = {
axisRules = (
{
min = 550;
}
);
};
layerId = "10A8D547-6C45-4B23-9E59-D6ED92232EAE";
name = "Jun 21, 22, 00:19";
shapes = (
{
closed = 1;
nodes = (
(425,24,o),
(514,94,o),
(514,218,cs),
(514,308,o),
(457,383,o),
(361,408,cs),
(266,433,ls),
(232,442,o),
(214,458,o),
(214,480,cs),
(214,514,o),
(237,533,o),
(277,533,cs),
(320,533,o),
(344,502,o),
(350,479,c),
(515,526,l),
(472,633,o),
(395,676,o),
(277,676,cs),
(129,676,o),
(43,603,o),
(43,480,cs),
(43,385,o),
(99,317,o),
(197,292,cs),
(292,268,ls),
(324,260,o),
(339,239,o),
(339,219,cs),
(339,187,o),
(308,166,o),
(275,167,cs),
(232,169,o),
(206,193,o),
(196,223,c),
(30,177,l),
(43,95,o),
(159,24,o),
(277,24,cs)
);
},
{
closed = 1;
nodes = (
(352,-103,l),
(352,94,l),
(208,94,l),
(208,-103,l)
);
},
{
closed = 1;
nodes = (
(352,583,l),
(352,780,l),
(208,780,l),
(208,583,l)
);
}
);
width = 546;
},
{
layerId = "747A0BA5-337F-45E8-9896-B2CAF0968805";
name = Black;
shapes = (
{
closed = 1;
nodes = (
(425,24,o),
(514,94,o),
(514,218,cs),
(514,308,o),
(457,383,o),
(361,408,cs),
(266,433,ls),
(232,442,o),
(214,458,o),
(214,480,cs),
(214,514,o),
(237,533,o),
(277,533,cs),
(320,533,o),
(344,502,o),
(350,479,c),
(515,526,l),
(472,633,o),
(395,676,o),
(277,676,cs),
(129,676,o),
(43,603,o),
(43,480,cs),
(43,385,o),
(99,317,o),
(197,292,cs),
(292,268,ls),
(324,260,o),
(339,239,o),
(339,219,cs),
(339,187,o),
(308,166,o),
(275,167,cs),
(232,169,o),
(206,193,o),
(196,223,c),
(30,177,l),
(43,95,o),
(159,24,o),
(277,24,cs)
);
},
{
closed = 1;
nodes = (
(352,-103,l),
(352,780,l),
(208,780,l),
(208,-103,l)
);
}
);
visible = 1;
width = 546;
}
);
metricLeft = S;
metricRight = S;
unicode = 36;
},
{
glyphname = euro;
lastChange = "2022-09-05 14:28:30 +0000";
layers = (
{
layerId = m01;
shapes = (
{
closed = 1;
nodes = (
(470,-12,o),
(567,63,o),
(609,170,c),
(555,203,l),
(523,111,o),
(448,46,o),
(375,46,cs),
(251,46,o),
(165,171,o),
(165,350,cs),
(165,528,o),
(251,654,o),
(372,654,cs),
(444,654,o),
(520,594,o),
(552,509,c),
(606,542,l),
(564,642,o),
(468,712,o),
(372,712,cs),
(213,712,o),
(101,562,o),
(101,350,cs),
(101,138,o),
(214,-12,o),
(375,-12,cs)
);
},
{
closed = 1;
nodes = (
(449,258,l),
(449,310,l),
(20,310,l),
(20,258,l)
);
},
{
closed = 1;
nodes = (
(449,390,l),
(449,442,l),
(20,442,l),
(20,390,l)
);
}
);
width = 649;
},
{
annotations = (
{
pos = (378.086,339.453);
type = Text;
}
);
background = {
shapes = (
{
closed = 1;
nodes = (
(506,-12,o),
(603,63,o),
(645,170,c),
(591,203,l),
(559,111,o),
(484,46,o),
(411,46,cs),
(287,46,o),
(201,171,o),
(201,350,cs),
(201,528,o),
(287,654,o),
(408,654,cs),
(480,654,o),
(556,594,o),
(588,509,c),
(642,542,l),
(600,642,o),
(504,712,o),
(408,712,cs),
(249,712,o),
(137,562,o),
(137,350,cs),
(137,138,o),
(250,-12,o),
(411,-12,cs)
);
},
{
closed = 1;
nodes = (
(485,390,l),
(485,442,l),
(56,442,l),
(56,390,l)
);
},
{
closed = 1;
nodes = (
(485,258,l),
(485,310,l),
(56,310,l),
(56,258,l)
);
}
);
};
layerId = "747A0BA5-337F-45E8-9896-B2CAF0968805";
shapes = (
{
closed = 1;
nodes = (
(559,-12,o),
(666,74,o),
(710,201,c),
(545,257,l),
(519,197,o),
(483,158,o),
(416,158,cs),
(331,158,o),
(270,237,o),
(270,350,cs),
(270,463,o),
(330,542,o),
(414,542,cs),
(476,542,o),
(519,504,o),
(544,444,c),
(708,500,l),
(663,626,o),
(557,712,o),
(414,712,cs),
(217,712,o),
(80,562,o),
(80,350,cs),
(80,138,o),
(217,-12,o),
(414,-12,cs)
);
},
{
closed = 1;
nodes = (
(485,254,l),
(485,336,l),
(10,336,l),
(10,254,l)
);
},
{
closed = 1;
nodes = (
(485,364,l),
(485,446,l),
(10,446,l),
(10,364,l)
);
}
);
width = 725;
}
);
metricRight = C;
unicode = 8364;
},
{
glyphname = sterling;
lastChange = "2022-09-10 16:35:24 +0000";
layers = (
{
layerId = m01;
shapes = (
{
closed = 1;
nodes = (
(193,135,l),
(193,519,ls),
(193,598,o),
(248,654,o),
(325,654,cs),
(402,654,o),
(456,599,o),
(456,521,c),
(519,511,l),
(519,638,o),
(438,712,o),
(325,712,cs),
(210,712,o),
(129,632,o),
(129,519,cs),
(129,120,l)
);
},
{
closed = 1;
nodes = (
(144,0,o),
(193,50,o),
(193,135,c),
(129,120,l),
(129,85,o),
(106,58,o),
(78,58,c),
(84,0,l)
);
},
{
closed = 1;
nodes = (
(519,0,l),
(519,58,l),
(50,58,l),
(50,0,l)
);
},
{
closed = 1;
nodes = (
(392,291,l),
(392,350,l),
(50,350,l),
(50,291,l)
);
}
);
width = 569;
},
{
layerId = "747A0BA5-337F-45E8-9896-B2CAF0968805";
shapes = (
{
closed = 1;
nodes = (
(285,240,l),
(285,476,ls),
(285,532,o),
(308,560,o),
(346,560,cs),
(377,560,o),
(403,542,o),
(403,504,c),
(583,493,l),
(583,644,o),
(486,712,o),
(348,712,cs),
(202,712,o),
(105,638,o),
(105,476,cs),
(105,230,l)
);
},
{
closed = 1;
nodes = (
(179,88,o),
(285,157,o),
(285,240,c),
(105,230,l),
(105,197,o),
(82,170,o),
(54,170,c),
(54,88,l)
);
},
{
closed = 1;
nodes = (
(583,0,l),
(583,170,l),
(40,170,l),
(40,0,l)
);
},
{
closed = 1;
nodes = (
(493,272,l),
(493,412,l),
(40,412,l),
(40,272,l)
);
}
);
width = 613;
}
);
unicode = 163;
},
{
glyphname = yen;
lastChange = "2022-09-05 14:28:30 +0000";
layers = (
{
layerId = m01;
shapes = (
{
closed = 1;
nodes = (
(512,712,l),
(441,712,l),
(242,328,l),
(293,296,l)
);
},
{
closed = 1;
nodes = (
(293,0,l),
(293,336,l),
(229,336,l),
(229,0,l)
);
},
{
closed = 1;
nodes = (
(431,194,l),
(431,246,l),
(91,246,l),
(91,194,l)
);
},
{
closed = 1;
nodes = (
(431,296,l),
(431,348,l),
(91,348,l),
(91,296,l)
);
},
{
closed = 1;
nodes = (
(280,328,l),
(81,712,l),
(10,712,l),
(229,296,l)
);
}
);
width = 522;
},
{
layerId = "747A0BA5-337F-45E8-9896-B2CAF0968805";
shapes = (
{
closed = 1;
nodes = (
(641,700,l),
(431,700,l),
(238,318,l),
(409,287,l)
);
},
{
closed = 1;
nodes = (
(416,0,l),
(416,336,l),
(231,336,l),
(231,0,l)
);
},
{
closed = 1;
nodes = (
(560,164,l),
(560,256,l),
(85,256,l),
(85,164,l)
);
},
{
closed = 1;
nodes = (
(560,284,l),
(560,376,l),
(85,376,l),
(85,284,l)
);
},
{
closed = 1;
nodes = (
(408,318,l),
(215,700,l),
(5,700,l),
(237,287,l)
);
}
);
width = 646;
}
);
unicode = 165;
},
{
glyphname = divisionslash;
lastChange = "2022-09-05 20:43:01 +0000";
layers = (
{
layerId = m01;
shapes = (
{
closed = 1;
nodes = (
(103,0,l),
(585,700,l),
(517,700,l),
(35,0,l)
);
}
);
width = 620;
},
{
layerId = "747A0BA5-337F-45E8-9896-B2CAF0968805";
shapes = (
{
closed = 1;
nodes = (
(131,0,l),
(612,700,l),
(509,700,l),
(28,0,l)
);
}
);
width = 640;
}
);
unicode = 8725;
},
{
glyphname = plus;
lastChange = "2022-09-05 14:28:20 +0000";
layers = (
{
layerId = m01;
shapes = (
{
closed = 1;
nodes = (
(339,73,l),
(339,523,l),
(282,523,l),
(282,73,l)
);
},
{
closed = 1;
nodes = (
(535,269,l),
(535,326,l),
(85,326,l),
(85,269,l)
);
}
);
width = 620;
},
{
layerId = "747A0BA5-337F-45E8-9896-B2CAF0968805";
shapes = (
{
closed = 1;
nodes = (
(390,63,l),
(390,533,l),
(250,533,l),
(250,63,l)
);
},
{
closed = 1;
nodes = (
(555,228,l),
(555,368,l),
(85,368,l),
(85,228,l)
);
}
);
width = 640;
}
);
unicode = 43;
},
{
glyphname = minus;
lastChange = "2022-09-05 14:28:30 +0000";
layers = (
{
layerId = m01;
shapes = (
{
closed = 1;
nodes = (
(500,269,l),
(500,326,l),
(120,326,l),
(120,269,l)
);
}
);
width = 620;
},
{
layerId = "747A0BA5-337F-45E8-9896-B2CAF0968805";
shapes = (
{
closed = 1;
nodes = (
(515,226,l),
(515,370,l),
(125,370,l),
(125,226,l)
);
}
);
width = 640;
}
);
unicode = 8722;
},
{
glyphname = multiply;
lastChange = "2022-09-05 14:28:20 +0000";
layers = (
{
layerId = m01;
shapes = (
{
closed = 1;
nodes = (
(499,148,l),
(160,487,l),
(121,447,l),
(459,109,l)
);
},
{
closed = 1;
nodes = (
(499,447,l),
(459,487,l),
(121,148,l),
(160,109,l)
);
}
);
width = 620;
},
{
layerId = "747A0BA5-337F-45E8-9896-B2CAF0968805";
shapes = (
{
closed = 1;
nodes = (
(539,176,l),
(198,517,l),
(101,420,l),
(442,79,l)
);
},
{
closed = 1;
nodes = (
(538,420,l),
(441,517,l),
(101,176,l),
(198,79,l)
);
}
);
width = 640;
}
);
unicode = 215;
},
{
glyphname = divide;
lastChange = "2022-09-05 14:28:20 +0000";
layers = (
{
layerId = m01;
shapes = (
{
closed = 1;
nodes = (
(500,269,l),
(500,326,l),
(120,326,l),
(120,269,l)
);
},
{
closed = 1;
nodes = (
(332,109,o),
(350,127,o),
(350,149,cs),
(350,171,o),
(332,189,o),
(310,189,cs),
(288,189,o),
(270,171,o),
(270,149,cs),
(270,127,o),
(288,109,o),
(310,109,cs)
);
},
{
closed = 1;
nodes = (
(332,406,o),
(350,424,o),
(350,446,cs),
(350,468,o),
(332,486,o),
(310,486,cs),
(288,486,o),
(270,468,o),
(270,446,cs),
(270,424,o),
(288,406,o),
(310,406,cs)
);
}
);
width = 620;
},
{
layerId = "747A0BA5-337F-45E8-9896-B2CAF0968805";
shapes = (
{
closed = 1;
nodes = (
(535,226,l),
(535,370,l),
(105,370,l),
(105,226,l)
);
},
{
closed = 1;
nodes = (
(359,50,o),
(393,84,o),
(393,123,cs),
(393,162,o),
(359,196,o),
(320,196,cs),
(281,196,o),
(248,162,o),
(248,123,cs),
(248,84,o),
(281,50,o),
(320,50,cs)
);
},
{
closed = 1;
nodes = (
(359,400,o),
(392,433,o),
(392,472,cs),
(392,511,o),
(359,545,o),
(320,545,cs),
(281,545,o),
(247,511,o),
(247,472,cs),
(247,433,o),
(281,400,o),
(320,400,cs)
);
}
);
width = 640;
}
);
unicode = 247;
},
{
glyphname = equal;
lastChange = "2022-09-05 14:28:20 +0000";
layers = (
{
layerId = m01;
shapes = (
{
closed = 1;
nodes = (
(510,369,l),
(510,426,l),
(110,426,l),
(110,369,l)
);
},
{
closed = 1;
nodes = (
(510,169,l),
(510,226,l),
(110,226,l),
(110,169,l)
);
}
);
width = 620;
},
{
layerId = "747A0BA5-337F-45E8-9896-B2CAF0968805";
shapes = (
{
closed = 1;
nodes = (
(520,328,l),
(520,467,l),
(120,467,l),
(120,328,l)
);
},
{
closed = 1;
nodes = (
(520,128,l),
(520,267,l),
(120,267,l),
(120,128,l)
);
}
);
width = 640;
}
);
unicode = 61;
},
{
glyphname = notequal;
lastChange = "2022-09-05 20:43:01 +0000";
layers = (
{
layerId = m01;
shapes = (
{
closed = 1;
nodes = (
(229,70,l),
(475,582,l),
(411,582,l),
(165,70,l)
);
},
{
pos = (0,30);
ref = equal;
}
);
width = 620;
},
{
layerId = "747A0BA5-337F-45E8-9896-B2CAF0968805";
shapes = (
{
closed = 1;
nodes = (
(252,74,l),
(515,586,l),
(383,586,l),
(120,74,l)
);
},
{
pos = (0,33);
ref = equal;
}
);
width = 640;
}
);
metricLeft = equal;
metricRight = equal;
unicode = 8800;
},
{
glyphname = greater;
lastChange = "2022-09-05 14:28:20 +0000";
layers = (
{
background = {
shapes = (
{
closed = 1;
nodes = (
(150,369,l),
(550,369,l),
(550,426,l),
(150,426,l)
);
},
{
closed = 1;
nodes = (
(150,169,l),
(550,169,l),
(550,226,l),
(150,226,l)
);
},
{
closed = 0;
nodes = (
(150,299,l),
(548,299,l)
);
}
);
};
layerId = m01;
shapes = (
{
closed = 1;
nodes = (
(481,266,l),
(481,332,l),
(150,169,l),
(150,107,l)
);
},
{
closed = 1;
nodes = (
(481,332,l),
(150,489,l),
(150,426,l),
(481,266,l)
);
}
);
width = 620;
},
{
background = {
shapes = (
{
closed = 1;
nodes = (
(120,328,l),
(520,328,l),
(520,467,l),
(120,467,l)
);
},
{
closed = 1;
nodes = (
(120,128,l),
(520,128,l),
(520,267,l),
(120,267,l)
);
}
);
};
layerId = "747A0BA5-337F-45E8-9896-B2CAF0968805";
shapes = (
{
closed = 1;
nodes = (
(521,229,l),
(521,364,l),
(120,217,l),
(120,60,l)
);
},
{
closed = 1;
nodes = (
(521,369,l),
(120,536,l),
(120,379,l),
(521,234,l)
);
}
);
width = 640;
}
);
unicode = 62;
},
{
glyphname = greaterequal;
lastChange = "2022-10-02 21:25:02 +0000";
layers = (
{
layerId = m01;
shapes = (
{
closed = 1;
nodes = (
(481,0,l),
(481,51,l),
(150,51,l),
(150,0,l)
);
},
{
ref = greater;
}
);
width = 620;
},
{
layerId = "747A0BA5-337F-45E8-9896-B2CAF0968805";
shapes = (
{
closed = 1;
nodes = (
(521,0,l),
(521,120,l),
(120,120,l),
(120,0,l)
);
},
{
pos = (0,89);
ref = greater;
scale = (1,0.9);
}
);
width = 640;
}
);
metricLeft = "=greater";
metricRight = "=greater";
unicode = 8805;
},
{
glyphname = plusminus;
lastChange = "2022-09-05 20:43:01 +0000";
layers = (
{
layerId = m01;
shapes = (
{
closed = 1;
nodes = (
(535,314,l),
(535,371,l),
(85,371,l),
(85,314,l)
);
},
{
closed = 1;
nodes = (
(535,0,l),
(535,51,l),
(85,51,l),
(85,0,l)
);
},
{
closed = 1;
nodes = (
(339,139,l),
(339,547,l),
(282,547,l),
(282,139,l)
);
}
);
width = 620;
},
{
layerId = "747A0BA5-337F-45E8-9896-B2CAF0968805";
shapes = (
{
closed = 1;
nodes = (
(555,328,l),
(555,458,l),
(85,458,l),
(85,328,l)
);
},
{
closed = 1;
nodes = (
(555,30,l),
(555,150,l),
(85,150,l),
(85,30,l)
);
},
{
closed = 1;
nodes = (
(390,178,l),
(390,608,l),
(250,608,l),
(250,178,l)
);
}
);
width = 640;
}
);
metricLeft = "=plus";
metricRight = "=plus";
unicode = 177;
},
{
glyphname = logicalnot;
lastChange = "2023-03-16 09:22:15 +0000";
layers = (
{
layerId = m01;
shapes = (
{
closed = 1;
nodes = (
(490,299,l),
(490,356,l),
(130,356,l),
(130,299,l)
);
},
{
closed = 1;
nodes = (
(490,201,l),
(490,356,l),
(433,356,l),
(433,201,l)
);
}
);
width = 620;
},
{
layerId = "747A0BA5-337F-45E8-9896-B2CAF0968805";
shapes = (
{
closed = 1;
nodes = (
(500,265,l),
(500,409,l),
(130,409,l),
(130,265,l)
);
},
{
closed = 1;
nodes = (
(500,135,l),
(500,409,l),
(356,409,l),
(356,135,l)
);
}
);
width = 640;
}
);
unicode = 172;
},
{
glyphname = asciitilde;
lastChange = "2022-09-05 14:28:30 +0000";
layers = (
{
layerId = m01;
shapes = (
{
closed = 1;
nodes = (
(420,237,o),
(461,296,o),
(469,368,c),
(414,368,l),
(406,324,o),
(387,294,o),
(351,294,cs),
(327,294,o),
(302,322,o),
(284,341,cs),
(257,370,o),
(221,396,o),
(177,396,cs),
(109,396,o),
(65,335,o),
(60,265,c),
(114,265,l),
(123,310,o),
(142,339,o),
(177,339,cs),
(195,339,o),
(215,326,o),
(247,290,cs),
(274,259,o),
(302,237,o),
(351,237,cs)
);
}
);
width = 529;
},
{
background = {
shapes = (
{
closed = 1;
nodes = (
(357,168,o),
(414,145,o),
(510,145,cs),
(641,145,o),
(709,245,o),
(709,388,c),
(569,388,l),
(565,348,o),
(549,320,o),
(512,320,cs),
(470,320,o),
(447,374,o),
(432,402,cs),
(407,449,o),
(361,488,o),
(249,488,cs),
(118,488,o),
(50,388,o),
(50,245,c),
(190,245,l),
(194,291,o),
(216,313,o),
(244,313,cs),
(283,313,o),
(301,280,o),
(316,250,cs)
);
}
);
};
layerId = "747A0BA5-337F-45E8-9896-B2CAF0968805";
shapes = (
{
closed = 1;
nodes = (
(621,145,o),
(709,245,o),
(709,388,c),
(569,388,l),
(565,342,o),
(542,320,o),
(509,320,cs),
(479,320,o),
(455,354,o),
(442,383,cs),
(404,467,o),
(339,488,o),
(249,488,cs),
(138,488,o),
(50,388,o),
(50,245,c),
(190,245,l),
(195,285,o),
(213,313,o),
(253,313,cs),
(292,313,o),
(309,278,o),
(326,250,cs),
(357,198,o),
(417,145,o),
(510,145,cs)
);
}
);
width = 759;
}
);
metricLeft = hyphen;
metricRight = hyphen;
unicode = 126;
},
{
glyphname = asciicircum;
lastChange = "2022-09-05 14:28:30 +0000";
layers = (
{
layerId = m01;
shapes = (
{
closed = 1;
nodes = (
(459,373,l),
(302,700,l),
(235,700,l),
(397,373,l)
);
},
{
closed = 1;
nodes = (
(143,373,l),
(301,700,l),
(235,700,l),
(80,373,l)
);
}
);
width = 539;
},
{
layerId = "747A0BA5-337F-45E8-9896-B2CAF0968805";
shapes = (
{
closed = 1;
nodes = (
(539,373,l),
(382,700,l),
(225,700,l),
(387,373,l)
);
},
{
closed = 1;
nodes = (
(223,373,l),
(381,700,l),
(225,700,l),
(70,373,l)
);
}
);
width = 609;
}
);
unicode = 94;
},
{
glyphname = micro;
lastChange = "2022-09-05 20:43:01 +0000";
layers = (
{
layerId = m01;
shapes = (
{
closed = 1;
nodes = (
(387,-12,o),
(456,83,o),
(456,243,c),
(419,243,l),
(419,118,o),
(363,44,o),
(268,44,cs),
(185,44,o),
(120,78,o),
(120,244,c),
(80,214,l),
(79,62,o),
(150,-12,o),
(258,-12,cs)
);
},
{
closed = 1;
nodes = (
(120,-200,l),
(120,72,l),
(120,74,l),
(120,500,l),
(60,500,l),
(60,-200,l)
);
},
{
closed = 1;
nodes = (
(479,0,l),
(479,500,l),
(419,500,l),
(419,92,l),
(423,0,l)
);
}
);
width = 554;
},
{
layerId = "747A0BA5-337F-45E8-9896-B2CAF0968805";
shapes = (
{
closed = 1;
nodes = (
(361,-12,o),
(402,76,o),
(402,234,c),
(353,234,l),
(353,180,o),
(328,155,o),
(277,157,cs),
(239,159,o),
(220,187,o),
(220,244,c),
(153,214,l),
(152,60,o),
(201,-12,o),
(281,-12,cs)
);
},
{
closed = 1;
nodes = (
(200,-200,l),
(200,99,l),
(220,99,l),
(220,500,l),
(40,500,l),
(40,-200,l)
);
},
{
closed = 1;
nodes = (
(533,0,l),
(533,500,l),
(353,500,l),
(353,92,l),
(363,0,l)
);
}
);
width = 578;
}
);
metricLeft = u;
metricRight = u;
unicode = 181;
},
{
glyphname = percent;
lastChange = "2022-09-06 19:33:13 +0000";
layers = (
{
background = {
shapes = (
{
closed = 1;
nodes = (
(108,0,l),
(172,0,l),
(172,700,l),
(108,700,l)
);
},
{
closed = 1;
nodes = (
(596,0,l),
(660,0,l),
(660,700,l),
(596,700,l)
);
},
{
closed = 1;
nodes = (
(172,332,l),
(596,332,l),
(596,390,l),
(172,390,l)
);
}
);
};
layerId = m01;
shapes = (
{
closed = 1;
nodes = (
(175,0,l),
(675,700,l),
(597,700,l),
(100,0,l)
);
},
{
closed = 1;
nodes = (
(662,-16,o),
(725,52,o),
(725,147,cs),
(725,242,o),
(662,310,o),
(572,310,cs),
(482,310,o),
(419,242,o),
(419,147,cs),
(419,52,o),
(482,-16,o),
(572,-16,cs)
);
},
{
closed = 1;
nodes = (
(518,38,o),
(479,84,o),
(479,147,cs),
(479,210,o),
(518,256,o),
(572,256,cs),
(626,256,o),
(665,210,o),
(665,147,cs),
(665,84,o),
(626,38,o),
(572,38,cs)
);
},
{
closed = 1;
nodes = (
(293,390,o),
(356,458,o),
(356,553,cs),
(356,648,o),
(293,716,o),
(203,716,cs),
(113,716,o),
(50,648,o),
(50,553,cs),
(50,458,o),
(113,390,o),
(203,390,cs)
);
},
{
closed = 1;
nodes = (
(149,444,o),
(110,490,o),
(110,553,cs),
(110,616,o),
(149,661,o),
(203,661,cs),
(257,661,o),
(296,616,o),
(296,553,cs),
(296,490,o),
(257,444,o),
(203,444,cs)
);
}
);
width = 775;
},
{
background = {
shapes = (
{
closed = 1;
nodes = (
(101,0,l),
(291,-1,l),
(291,699,l),
(101,700,l)
);
},
{
closed = 1;
nodes = (
(539,0,l),
(729,0,l),
(729,700,l),
(539,700,l)
);
},
{
closed = 1;
nodes = (
(228,276,l),
(652,276,l),
(652,446,l),
(228,446,l)
);
}
);
};
layerId = "747A0BA5-337F-45E8-9896-B2CAF0968805";
shapes = (
{
closed = 1;
nodes = (
(248,0,l),
(748,700,l),
(580,700,l),
(83,0,l)
);
},
{
closed = 1;
nodes = (
(733,-15,o),
(803,60,o),
(803,165,cs),
(803,270,o),
(733,345,o),
(634,345,cs),
(535,345,o),
(465,270,o),
(465,165,cs),
(465,60,o),
(535,-15,o),
(634,-15,cs)
);
},
{
closed = 1;
nodes = (
(602,96,o),
(581,126,o),
(581,165,cs),
(581,204,o),
(602,234,o),
(634,234,cs),
(666,234,o),
(687,204,o),
(687,165,cs),
(687,126,o),
(666,96,o),
(634,96,cs)
);
},
{
closed = 1;
nodes = (
(303,356,o),
(373,431,o),
(373,536,cs),
(373,641,o),
(303,716,o),
(204,716,cs),
(105,716,o),
(35,641,o),
(35,536,cs),
(35,431,o),
(105,356,o),
(204,356,cs)
);
},
{
closed = 1;
nodes = (
(172,467,o),
(151,497,o),
(151,536,cs),
(151,575,o),
(172,605,o),
(204,605,cs),
(236,605,o),
(257,575,o),
(257,536,cs),
(257,497,o),
(236,467,o),
(204,467,cs)
);
}
);
width = 838;
}
);
unicode = 37;
},
{
glyphname = upArrow;
lastChange = "2022-09-06 19:22:52 +0000";
layers = (
{
layerId = m01;
shapes = (
{
closed = 1;
nodes = (
(344,712,l),
(90,404,l),
(134,370,l),
(372,652,l)
);
},
{
closed = 1;
nodes = (
(372,652,l),
(315,652,l),
(315,0,l),
(372,0,l)
);
},
{
closed = 1;
nodes = (
(344,712,l),
(315,652,l),
(553,370,l),
(597,404,l)
);
}
);
width = 687;
},
{
layerId = "747A0BA5-337F-45E8-9896-B2CAF0968805";
shapes = (
{
closed = 1;
nodes = (
(385,712,l),
(90,443,l),
(196,335,l),
(465,576,l)
);
},
{
closed = 1;
nodes = (
(459,619,l),
(309,619,l),
(309,0,l),
(459,0,l)
);
},
{
closed = 1;
nodes = (
(385,712,l),
(301,577,l),
(567,331,l),
(674,437,l)
);
}
);
width = 764;
}
);
unicode = 8593;
},
{
glyphname = northEastArrow;
layers = (
{
layerId = m01;
shapes = (
{
closed = 1;
nodes = (
(601,638,l),
(561,678,l),
(100,217,l),
(140,177,l)
);
},
{
closed = 1;
nodes = (
(596,640,l),
(624,700,l),
(229,700,l),
(229,640,l)
);
},
{
closed = 1;
nodes = (
(624,305,l),
(624,700,l),
(564,673,l),
(564,305,l)
);
}
);
width = 724;
},
{
layerId = "747A0BA5-337F-45E8-9896-B2CAF0968805";
shapes = (
{
closed = 1;
nodes = (
(555,580,l),
(449,686,l),
(60,297,l),
(166,191,l)
);
},
{
closed = 1;
nodes = (
(531,556,l),
(568,700,l),
(168,700,l),
(168,554,l)
);
},
{
closed = 1;
nodes = (
(568,300,l),
(568,700,l),
(424,663,l),
(422,300,l)
);
}
);
width = 628;
}
);
metricLeft = I;
metricRight = I;
unicode = 8599;
},
{
glyphname = rightArrow;
lastChange = "2022-09-05 20:43:01 +0000";
layers = (
{
layerId = m01;
shapes = (
{
closed = 1;
nodes = (
(680,297,l),
(372,551,l),
(338,507,l),
(620,269,l)
);
},
{
closed = 1;
nodes = (
(620,269,l),
(620,326,l),
(70,326,l),
(70,269,l)
);
},
{
closed = 1;
nodes = (
(680,297,l),
(620,326,l),
(338,88,l),
(372,44,l)
);
}
);
width = 740;
},
{
layerId = "747A0BA5-337F-45E8-9896-B2CAF0968805";
shapes = (
{
closed = 1;
nodes = (
(703,297,l),
(434,592,l),
(326,486,l),
(567,217,l)
);
},
{
closed = 1;
nodes = (
(610,223,l),
(610,373,l),
(60,373,l),
(60,223,l)
);
},
{
closed = 1;
nodes = (
(703,297,l),
(568,381,l),
(322,115,l),
(428,8,l)
);
}
);
width = 758;
}
);
unicode = 8594;
},
{
glyphname = dieresiscomb;
lastChange = "2022-09-25 05:37:21 +0000";
layers = (
{
anchors = (
{
name = _top;
pos = (135,500);
},
{
name = top;
pos = (135,710);
}
);
layerId = m01;
shapes = (
{
closed = 1;
nodes = (
(278,630,o),
(296,648,o),
(296,670,cs),
(296,692,o),
(278,710,o),
(256,710,cs),
(234,710,o),
(216,692,o),
(216,670,cs),
(216,648,o),
(234,630,o),
(256,630,cs)
);
},
{
closed = 1;
nodes = (
(36,630,o),
(54,648,o),
(54,670,cs),
(54,692,o),
(36,710,o),
(14,710,cs),
(-8,710,o),
(-26,692,o),
(-26,670,cs),
(-26,648,o),
(-8,630,o),
(14,630,cs)
);
}
);
width = 270;
},
{
anchors = (
{
name = _top;
pos = (280,500);
},
{
name = top;
pos = (280,748);
}
);
layerId = "747A0BA5-337F-45E8-9896-B2CAF0968805";
shapes = (
{
closed = 1;
nodes = (
(462,569,o),
(503,610,o),
(503,657,cs),
(503,704,o),
(462,745,o),
(415,745,cs),
(368,745,o),
(327,704,o),
(327,657,cs),
(327,610,o),
(368,569,o),
(415,569,cs)
);
},
{
closed = 1;
nodes = (
(193,569,o),
(233,609,o),
(233,657,cs),
(233,705,o),
(193,745,o),
(145,745,cs),
(97,745,o),
(57,705,o),
(57,657,cs),
(57,609,o),
(97,569,o),
(145,569,cs)
);
}
);
width = 600;
}
);
unicode = 776;
},
{
glyphname = dotaccentcomb;
lastChange = "2022-09-05 14:57:42 +0000";
layers = (
{
anchors = (
{
name = _top;
pos = (40,500);
}
);
layerId = m01;
shapes = (
{
closed = 1;
nodes = (
(62,630,o),
(80,648,o),
(80,670,cs),
(80,692,o),
(62,710,o),
(40,710,cs),
(18,710,o),
(0,692,o),
(0,670,cs),
(0,648,o),
(18,630,o),
(40,630,cs)
);
}
);
width = 80;
},
{
anchors = (
{
name = _top;
pos = (100,500);
}
);
layerId = "747A0BA5-337F-45E8-9896-B2CAF0968805";
shapes = (
{
closed = 1;
nodes = (
(154,548,o),
(200,594,o),
(200,648,cs),
(200,702,o),
(154,748,o),
(100,748,cs),
(46,748,o),
(0,702,o),
(0,648,cs),
(0,594,o),
(46,548,o),
(100,548,cs)
);
}
);
width = 200;
}
);
unicode = 775;
},
{
glyphname = gravecomb;
lastChange = "2022-09-05 20:43:01 +0000";
layers = (
{
anchors = (
{
name = _top;
pos = (249,500);
},
{
name = top;
pos = (249,500);
}
);
guides = (
{
pos = (15,574);
}
);
layerId = m01;
shapes = (
{
closed = 1;
nodes = (
(352,574,l),
(231,701,l),
(146,701,l),
(276,574,l)
);
}
);
width = 600;
},
{
anchors = (
{
name = _top;
pos = (228,500);
},
{
name = top;
pos = (228,500);
}
);
guides = (
{
pos = (15,554);
}
);
layerId = "747A0BA5-337F-45E8-9896-B2CAF0968805";
shapes = (
{
closed = 1;
nodes = (
(340,554,l),
(228,701,l),
(38,701,l),
(170,554,l)
);
}
);
width = 600;
}
);
unicode = 768;
},
{
glyphname = acutecomb;
lastChange = "2022-10-15 06:00:01 +0000";
layers = (
{
anchors = (
{
name = _top;
pos = (289,500);
},
{
name = top;
pos = (289,500);
}
);
guides = (
{
pos = (15,700);
},
{
pos = (15,574);
}
);
layerId = m01;
shapes = (
{
closed = 1;
nodes = (
(303,574,l),
(431,700,l),
(346,700,l),
(227,574,l)
);
}
);
width = 431;
},
{
anchors = (
{
name = _top;
pos = (348,500);
},
{
name = top;
pos = (348,500);
}
);
guides = (
{
pos = (15,554);
},
{
pos = (15,700);
}
);
layerId = "747A0BA5-337F-45E8-9896-B2CAF0968805";
shapes = (
{
closed = 1;
nodes = (
(419,554,l),
(549,700,l),
(359,700,l),
(249,554,l)
);
}
);
width = 549;
}
);
unicode = 769;
},
{
glyphname = hungarumlautcomb;
lastChange = "2022-09-05 20:43:01 +0000";
layers = (
{
anchors = (
{
name = _top;
pos = (142,500);
}
);
guides = (
{
pos = (-92,700);
},
{
pos = (-92,574);
}
);
layerId = m01;
shapes = (
{
closed = 1;
nodes = (
(250,574,l),
(358,700,l),
(269,700,l),
(170,574,l)
);
},
{
closed = 1;
nodes = (
(80,574,l),
(188,700,l),
(99,700,l),
(0,574,l)
);
}
);
width = 600;
},
{
anchors = (
{
name = _top;
pos = (190,500);
}
);
guides = (
{
pos = (-25,554);
},
{
pos = (-25,700);
}
);
layerId = "747A0BA5-337F-45E8-9896-B2CAF0968805";
shapes = (
{
closed = 1;
nodes = (
(382,554,l),
(504,700,l),
(334,700,l),
(234,554,l)
);
},
{
closed = 1;
nodes = (
(150,554,l),
(270,700,l),
(100,700,l),
(4,554,l)
);
}
);
width = 600;
}
);
unicode = 779;
},
{
glyphname = caroncomb.alt;
lastChange = "2022-09-05 20:43:01 +0000";
layers = (
{
anchors = (
{
name = _top_caron;
pos = (0,700);
}
);
layerId = m01;
shapes = (
{
closed = 1;
nodes = (
(79,527,l),
(149,699,l),
(78,699,l),
(23,527,l)
);
}
);
width = 149;
},
{
anchors = (
{
name = _top_caron;
pos = (0,700);
}
);
layerId = "747A0BA5-337F-45E8-9896-B2CAF0968805";
shapes = (
{
closed = 1;
nodes = (
(145,552,l),
(188,700,l),
(38,700,l),
(15,552,l)
);
}
);
width = 188;
}
);
},
{
glyphname = circumflexcomb;
lastChange = "2022-09-05 20:43:01 +0000";
layers = (
{
anchors = (
{
name = _top;
pos = (163,500);
}
);
guides = (
{
pos = (163,586);
},
{
pos = (161,712);
}
);
layerId = m01;
shapes = (
{
closed = 1;
nodes = (
(325,586,l),
(205,712,l),
(121,712,l),
(121,711,l),
(249,586,l)
);
},
{
closed = 1;
nodes = (
(76,586,l),
(204,711,l),
(204,712,l),
(120,712,l),
(0,586,l)
);
}
);
width = 325;
},
{
anchors = (
{
name = _top;
pos = (228,500);
}
);
guides = (
{
pos = (222,565);
},
{
pos = (11,712);
}
);
layerId = "747A0BA5-337F-45E8-9896-B2CAF0968805";
shapes = (
{
closed = 1;
nodes = (
(435,565,l),
(308,712,l),
(138,712,l),
(138,699,l),
(285,565,l)
);
},
{
closed = 1;
nodes = (
(160,565,l),
(307,699,l),
(307,712,l),
(137,712,l),
(10,565,l)
);
}
);
width = 445;
}
);
unicode = 770;
},
{
glyphname = caroncomb;
lastChange = "2022-09-25 05:08:50 +0000";
layers = (
{
anchors = (
{
name = _top;
pos = (163,500);
}
);
guides = (
{
pos = (15,700);
},
{
pos = (15,574);
}
);
layerId = m01;
shapes = (
{
closed = 1;
nodes = (
(205,574,l),
(325,700,l),
(247,700,l),
(125,575,l),
(125,574,l)
);
},
{
closed = 1;
nodes = (
(200,574,l),
(200,575,l),
(78,700,l),
(0,700,l),
(120,574,l)
);
}
);
width = 325;
},
{
anchors = (
{
name = _top;
pos = (218,500);
}
);
guides = (
{
pos = (5,554);
},
{
pos = (5,700);
}
);
layerId = "747A0BA5-337F-45E8-9896-B2CAF0968805";
shapes = (
{
closed = 1;
nodes = (
(298,554,l),
(425,700,l),
(275,700,l),
(138,559,l),
(138,554,l)
);
},
{
closed = 1;
nodes = (
(287,554,l),
(287,559,l),
(150,700,l),
(0,700,l),
(127,554,l)
);
}
);
width = 425;
}
);
unicode = 780;
},
{
glyphname = brevecomb;
lastChange = "2022-09-05 20:43:01 +0000";
layers = (
{
anchors = (
{
name = _top;
pos = (163,500);
}
);
background = {
shapes = (
{
closed = 1;
nodes = (
(120,574,l),
(200,574,l),
(200,575,l),
(78,700,l),
(39,700,l),
(0,700,l)
);
},
{
closed = 1;
nodes = (
(247,700,l),
(125,575,l),
(125,574,l),
(205,574,l),
(325,700,l)
);
}
);
};
guides = (
{
pos = (15,700);
},
{
pos = (15,574);
}
);
layerId = m01;
shapes = (
{
closed = 1;
nodes = (
(258,569,o),
(325,623,o),
(325,700,c),
(265,700,l),
(265,655,o),
(223,623,o),
(163,623,cs),
(103,623,o),
(60,655,o),
(60,700,c),
(0,700,l),
(0,623,o),
(68,569,o),
(163,569,cs)
);
}
);
width = 325;
},
{
anchors = (
{
name = _top;
pos = (202,500);
}
);
guides = (
{
pos = (5,554);
},
{
pos = (5,700);
}
);
layerId = "747A0BA5-337F-45E8-9896-B2CAF0968805";
shapes = (
{
closed = 1;
nodes = (
(321,542,o),
(405,607,o),
(405,700,c),
(241,700,l),
(241,677,o),
(225,661,o),
(203,661,cs),
(180,661,o),
(164,677,o),
(164,700,c),
(0,700,l),
(0,607,o),
(84,542,o),
(203,542,cs)
);
}
);
width = 405;
}
);
unicode = 774;
},
{
glyphname = ringcomb;
lastChange = "2022-09-05 20:43:01 +0000";
layers = (
{
anchors = (
{
name = _top;
pos = (138,500);
}
);
layerId = m01;
shapes = (
{
closed = 1;
nodes = (
(186,564,o),
(225,603,o),
(225,649,cs),
(225,696,o),
(186,735,o),
(138,735,cs),
(89,735,o),
(50,696,o),
(50,649,cs),
(50,603,o),
(89,564,o),
(138,564,cs)
);
},
{
closed = 1;
nodes = (
(114,610,o),
(100,624,o),
(100,649,cs),
(100,675,o),
(114,689,o),
(138,689,cs),
(161,689,o),
(175,675,o),
(175,649,cs),
(175,624,o),
(161,610,o),
(138,610,cs)
);
}
);
width = 275;
},
{
anchors = (
{
name = _top;
pos = (178,500);
}
);
layerId = "747A0BA5-337F-45E8-9896-B2CAF0968805";
shapes = (
{
closed = 1;
nodes = (
(251,520,o),
(315,577,o),
(315,649,cs),
(315,722,o),
(251,779,o),
(178,779,cs),
(104,779,o),
(40,722,o),
(40,649,cs),
(40,577,o),
(104,520,o),
(178,520,cs)
);
},
{
closed = 1;
nodes = (
(157,616,o),
(145,629,o),
(145,649,cs),
(145,670,o),
(157,683,o),
(178,683,cs),
(198,683,o),
(210,670,o),
(210,649,cs),
(210,629,o),
(198,616,o),
(178,616,cs)
);
}
);
width = 355;
}
);
metricLeft = period;
metricRight = period;
unicode = 778;
},
{
glyphname = tildecomb;
lastChange = "2022-09-05 20:43:01 +0000";
layers = (
{
anchors = (
{
name = _top;
pos = (247,500);
},
{
name = top;
pos = (247,723);
}
);
background = {
shapes = (
{
closed = 1;
nodes = (
(383,572,o),
(416,620,o),
(422,666,c),
(367,666,l),
(363,640,o),
(353,628,o),
(329,628,cs),
(314,628,o),
(303,632,o),
(295,648,cs),
(279,678,o),
(248,700,o),
(212,700,cs),
(157,700,o),
(121,651,o),
(117,607,c),
(172,607,l),
(178,633,o),
(188,644,o),
(212,644,cs),
(222,644,o),
(237,642,o),
(245,626,cs),
(261,596,o),
(292,572,o),
(329,572,cs)
);
}
);
};
layerId = m01;
shapes = (
{
closed = 1;
nodes = (
(383,572,o),
(416,620,o),
(422,666,c),
(367,666,l),
(363,640,o),
(353,628,o),
(329,628,cs),
(291,628,o),
(278,700,o),
(212,700,cs),
(157,700,o),
(121,651,o),
(117,607,c),
(172,607,l),
(178,633,o),
(188,644,o),
(212,644,cs),
(244,644,o),
(257,572,o),
(329,572,cs)
);
}
);
width = 600;
},
{
anchors = (
{
name = _top;
pos = (270,500);
},
{
name = top;
pos = (270,700);
}
);
annotations = (
{
pos = (271.017,686.996);
type = Text;
}
);
background = {
shapes = (
{
closed = 1;
nodes = (
(428,559,o),
(477,611,o),
(487,704,c),
(376,704,l),
(373,682,o),
(368,665,o),
(351,665,cs),
(324,665,o),
(321,690,o),
(297,710,cs),
(280,725,o),
(252,737,o),
(197,737,cs),
(126,737,o),
(81,690,o),
(71,592,c),
(182,592,l),
(190,627,o),
(202,631,o),
(217,631,cs),
(235,631,o),
(241,619,o),
(252,604,cs),
(267,584,o),
(289,559,o),
(361,559,cs)
);
}
);
};
layerId = "747A0BA5-337F-45E8-9896-B2CAF0968805";
shapes = (
{
closed = 1;
nodes = (
(436,534,o),
(475,586,o),
(487,679,c),
(376,679,l),
(373,658,o),
(369,640,o),
(350,640,cs),
(311,640,o),
(316,712,o),
(207,712,cs),
(126,712,o),
(83,673,o),
(71,567,c),
(182,567,l),
(190,602,o),
(203,606,o),
(213,606,cs),
(258,606,o),
(250,534,o),
(351,534,cs)
);
}
);
width = 600;
}
);
unicode = 771;
},
{
glyphname = macroncomb;
lastChange = "2022-09-05 20:43:01 +0000";
layers = (
{
anchors = (
{
name = _top;
pos = (150,500);
}
);
layerId = m01;
shapes = (
{
closed = 1;
nodes = (
(300,580,l),
(300,637,l),
(0,637,l),
(0,580,l)
);
}
);
width = 300;
},
{
anchors = (
{
name = _top;
pos = (150,500);
}
);
layerId = "747A0BA5-337F-45E8-9896-B2CAF0968805";
shapes = (
{
closed = 1;
nodes = (
(320,549,l),
(320,700,l),
(-20,700,l),
(-20,549,l)
);
}
);
width = 300;
}
);
unicode = 772;
},
{
glyphname = commaaccentcomb;
lastChange = "2022-09-05 20:43:01 +0000";
layers = (
{
anchors = (
{
name = _bottom;
pos = (86,0);
}
);
layerId = m01;
shapes = (
{
closed = 1;
nodes = (
(65,-200,l),
(126,-64,l),
(55,-64,l),
(9,-200,l)
);
}
);
width = 126;
},
{
anchors = (
{
name = _bottom;
pos = (145,0);
}
);
layerId = "747A0BA5-337F-45E8-9896-B2CAF0968805";
shapes = (
{
closed = 1;
nodes = (
(156,-200,l),
(240,-40,l),
(72,-40,l),
(26,-200,l)
);
}
);
width = 246;
}
);
unicode = 806;
},
{
glyphname = cedillacomb;
lastChange = "2022-09-28 06:09:07 +0000";
layers = (
{
anchors = (
{
name = _bottom;
pos = (297,0);
}
);
guides = (
{
angle = 67;
pos = (204,-126);
}
);
layerId = m01;
shapes = (
{
closed = 1;
nodes = (
(337,-210,o),
(361,-169,o),
(361,-120,cs),
(361,-86,o),
(344,-52,o),
(294,-33,c),
(305,-8,l),
(260,6,l),
(231,-63,l),
(285,-73,o),
(311,-88,o),
(311,-125,cs),
(311,-157,o),
(286,-164,o),
(262,-164,cs),
(240,-164,o),
(215,-152,o),
(194,-141,c),
(175,-184,l),
(219,-207,o),
(246,-210,o),
(270,-210,cs)
);
}
);
width = 600;
},
{
anchors = (
{
name = _bottom;
pos = (310,0);
}
);
guides = (
{
angle = 67;
pos = (156,-194);
}
);
layerId = "747A0BA5-337F-45E8-9896-B2CAF0968805";
shapes = (
{
closed = 1;
nodes = (
(343,-210,o),
(394,-172,o),
(394,-108,cs),
(394,-72,o),
(367,-41,o),
(322,-26,c),
(337,6,l),
(240,6,l),
(210,-69,l),
(245,-69,o),
(265,-80,o),
(265,-98,cs),
(265,-110,o),
(251,-117,o),
(228,-117,cs),
(217,-117,o),
(200,-112,o),
(181,-103,c),
(160,-179,l),
(188,-198,o),
(224,-210,o),
(256,-210,cs)
);
}
);
width = 600;
}
);
unicode = 807;
},
{
glyphname = ogonekcomb;
lastChange = "2022-09-05 20:43:01 +0000";
layers = (
{
anchors = (
{
name = _ogonek;
pos = (196,0);
}
);
guides = (
{
angle = 270;
pos = (196,28);
}
);
layerId = m01;
shapes = (
{
closed = 1;
nodes = (
(172,-212,o),
(196,-204,o),
(213,-192,c),
(194,-146,l),
(187,-149,o),
(165,-157,o),
(140,-157,cs),
(115,-157,o),
(100,-145,o),
(100,-124,cs),
(100,-75,o),
(149,-35,o),
(196,0,c),
(146,12,l),
(91,-28,o),
(40,-74,o),
(40,-124,cs),
(40,-182,o),
(79,-212,o),
(146,-212,cs)
);
}
);
width = 213;
},
{
anchors = (
{
name = _ogonek;
pos = (225,0);
}
);
background = {
shapes = (
{
closed = 1;
nodes = (
(172,-212,o),
(196,-204,o),
(213,-192,c),
(194,-146,l),
(187,-149,o),
(165,-157,o),
(140,-157,cs),
(115,-157,o),
(100,-145,o),
(100,-124,cs),
(100,-75,o),
(149,-35,o),
(196,0,c),
(146,12,l),
(91,-28,o),
(40,-74,o),
(40,-124,cs),
(40,-182,o),
(79,-212,o),
(146,-212,cs)
);
}
);
};
layerId = "747A0BA5-337F-45E8-9896-B2CAF0968805";
shapes = (
{
closed = 1;
nodes = (
(209,-212,o),
(234,-208,o),
(254,-196,c),
(202,-88,l),
(195,-92,o),
(188,-95,o),
(177,-95,cs),
(166,-95,o),
(159,-86,o),
(159,-75,c),
(159,-52,o),
(179,-23,o),
(215,0,c),
(77,0,l),
(46,-16,o),
(20,-49,o),
(20,-88,cs),
(20,-170,o),
(92,-212,o),
(176,-212,cs)
);
}
);
width = 254;
}
);
unicode = 808;
},
{
glyphname = ogonekcomb.alt;
lastChange = "2022-09-05 20:43:01 +0000";
layers = (
{
anchors = (
{
name = _ogonek;
pos = (144,33);
}
);
background = {
shapes = (
{
closed = 1;
nodes = (
(172,-212,o),
(196,-204,o),
(213,-192,c),
(194,-146,l),
(187,-149,o),
(165,-157,o),
(140,-157,cs),
(115,-157,o),
(100,-145,o),
(100,-124,cs),
(100,-75,o),
(149,-35,o),
(196,0,c),
(146,12,l),
(91,-28,o),
(40,-74,o),
(40,-124,cs),
(40,-182,o),
(79,-212,o),
(146,-212,cs)
);
}
);
};
guides = (
{
angle = 37;
pos = (160,45);
},
{
angle = 90;
pos = (213,53);
}
);
layerId = m01;
shapes = (
{
closed = 1;
nodes = (
(160,-212,o),
(189,-205,o),
(213,-192,c),
(194,-146,l),
(176,-153,o),
(151,-157,o),
(127,-157,cs),
(95,-157,o),
(76,-138,o),
(76,-106,cs),
(76,-60,o),
(96,-8,o),
(144,33,c),
(128,34,l),
(58,-3,o),
(16,-62,o),
(16,-125,cs),
(16,-180,o),
(60,-212,o),
(134,-212,cs)
);
}
);
width = 213;
},
{
anchors = (
{
name = _ogonek;
pos = (205,50);
}
);
background = {
shapes = (
{
pos = (20,0);
ref = ogonekcomb;
}
);
};
guides = (
{
angle = 45;
pos = (209,53);
},
{
angle = 90;
pos = (254,53);
}
);
layerId = "747A0BA5-337F-45E8-9896-B2CAF0968805";
shapes = (
{
closed = 1;
nodes = (
(229,-212,o),
(254,-208,o),
(274,-196,c),
(222,-89,l),
(211,-93,o),
(201,-96,o),
(184,-96,cs),
(162,-96,o),
(150,-83,o),
(150,-63,cs),
(150,-31,o),
(154,-2,o),
(216,60,c),
(186,60,l),
(95,6,o),
(20,-32,o),
(20,-104,cs),
(20,-176,o),
(101,-212,o),
(196,-212,cs)
);
}
);
width = 274;
}
);
},
{
glyphname = macroncomb.narrow;
lastChange = "2023-03-16 09:34:49 +0000";
layers = (
{
anchors = (
{
name = _top;
pos = (150,500);
}
);
layerId = m01;
shapes = (
{
closed = 1;
nodes = (
(275,580,l),
(275,637,l),
(25,637,l),
(25,580,l)
);
}
);
width = 300;
},
{
anchors = (
{
name = _top;
pos = (150,500);
}
);
layerId = "747A0BA5-337F-45E8-9896-B2CAF0968805";
shapes = (
{
closed = 1;
nodes = (
(300,549,l),
(300,700,l),
(0,700,l),
(0,549,l)
);
}
);
width = 300;
}
);
},
{
glyphname = ring;
lastChange = "2022-10-21 14:22:22 +0000";
layers = (
{
anchors = (
{
name = _top;
pos = (138,500);
}
);
layerId = m01;
shapes = (
{
closed = 1;
nodes = (
(186,564,o),
(225,603,o),
(225,649,cs),
(225,696,o),
(186,735,o),
(138,735,cs),
(89,735,o),
(50,696,o),
(50,649,cs),
(50,603,o),
(89,564,o),
(138,564,cs)
);
},
{
closed = 1;
nodes = (
(114,610,o),
(100,624,o),
(100,649,cs),
(100,675,o),
(114,689,o),
(138,689,cs),
(161,689,o),
(175,675,o),
(175,649,cs),
(175,624,o),
(161,610,o),
(138,610,cs)
);
}
);
width = 275;
},
{
anchors = (
{
name = _top;
pos = (332,500);
}
);
layerId = "747A0BA5-337F-45E8-9896-B2CAF0968805";
shapes = (
{
closed = 1;
nodes = (
(405,520,o),
(469,577,o),
(469,649,cs),
(469,722,o),
(405,779,o),
(332,779,cs),
(258,779,o),
(194,722,o),
(194,649,cs),
(194,577,o),
(258,520,o),
(332,520,cs)
);
},
{
closed = 1;
nodes = (
(311,616,o),
(299,629,o),
(299,649,cs),
(299,670,o),
(311,683,o),
(332,683,cs),
(352,683,o),
(364,670,o),
(364,649,cs),
(364,629,o),
(352,616,o),
(332,616,cs)
);
}
);
width = 600;
}
);
unicode = 730;
},
{
export = 0;
glyphname = Bowl;
lastChange = "2022-09-05 20:20:32 +0000";
layers = (
{
layerId = m01;
shapes = (
{
closed = 1;
nodes = (
(398,-12,o),
(487,97,o),
(487,250,cs),
(487,403,o),
(398,512,o),
(271,512,cs),
(139,512,o),
(45,403,o),
(45,250,cs),
(45,97,o),
(139,-12,o),
(271,-12,cs)
);
},
{
closed = 1;
nodes = (
(179,42,o),
(105,128,o),
(105,250,cs),
(105,372,o),
(178,458,o),
(282,458,cs),
(379,458,o),
(447,372,o),
(447,250,cs),
(447,128,o),
(379,42,o),
(283,42,cs)
);
}
);
width = 582;
},
{
layerId = "747A0BA5-337F-45E8-9896-B2CAF0968805";
shapes = (
{
closed = 1;
nodes = (
(361,-12,o),
(419,85,o),
(419,250,cs),
(419,415,o),
(361,512,o),
(237,512,cs),
(95,512,o),
(11,415,o),
(11,250,cs),
(11,85,o),
(95,-12,o),
(237,-12,cs)
);
},
{
closed = 1;
nodes = (
(236,154,o),
(200,194,o),
(199,250,cs),
(200,306,o),
(235,345,o),
(284,345,cs),
(335,345,o),
(371,306,o),
(371,250,cs),
(371,194,o),
(335,154,o),
(285,154,cs)
);
}
);
width = 585;
}
);
},
